<svg width="7" height="7" viewBox="0 0 7 7" fill="none" xmlns="http://www.w3.org/2000/svg">
<path id="Vector" d="M3.45356 0C4.45571 0 5.28817 0.325277 5.95114 0.991223C6.61412 1.65717 6.9533 2.49345 6.9533 3.50007C6.9533 4.50669 6.61412 5.34297 5.95114 6.00891C5.27277 6.65936 4.42481 7.00003 3.40725 7.00003C2.436 7.00003 1.61883 6.65936 0.971361 6.00891C0.323787 5.34297 0 4.52219 0 3.53108C0 2.50896 0.32379 1.65717 0.986763 0.991223C1.63423 0.325277 2.4668 0 3.45356 0ZM3.49974 0.929316C2.75978 0.929316 2.14301 1.16156 1.68053 1.65717C1.20255 2.13717 0.955862 2.77221 0.955862 3.53108C0.955862 4.25894 1.20255 4.87837 1.68053 5.35848C2.15851 5.85409 2.74428 6.10184 3.46895 6.10184C4.19362 6.10184 4.7949 5.83858 5.27277 5.34297C5.75075 4.84736 5.99745 4.22793 5.99745 3.48457C5.99745 2.75671 5.75075 2.15267 5.27277 1.65717C4.7949 1.17706 4.19362 0.929316 3.49974 0.929316Z" fill="black"/>
</svg>
