<svg width="100" height="35" viewBox="0 0 100 35" fill="none" xmlns="http://www.w3.org/2000/svg">
<g id="Group">
<path id="Vector" d="M15.41 34.2748H2.34248C1.02774 34.2748 0 33.1509 0 31.9289V2.58587C0 1.02559 1.17304 0.247295 2.34248 0.247295C3.51202 0.247295 4.63059 1.02559 4.63059 2.58587V29.634H15.4064C16.9681 29.634 17.749 30.8087 17.749 31.9798C17.749 33.1509 16.9681 34.2748 15.4064 34.2748" fill="black"/>
<path id="Vector_2" d="M36.7764 3.27328L29.4146 20.9962V31.9799C29.4146 33.5438 28.2452 34.2748 27.0756 34.2748C25.9062 34.2748 24.7331 33.5438 24.7331 31.9799V20.9962L17.3713 3.27328C17.2223 3.02964 17.1752 2.68406 17.1752 2.34218C17.1752 1.02564 18.0977 0 19.6122 0C20.4475 0 21.2719 0.440116 21.7114 1.46575L27.0756 14.3988L32.44 1.46575C32.8758 0.440116 33.7075 0 34.5283 0C36.0428 0 36.9725 1.02203 36.9725 2.34218C36.9725 2.68406 36.9217 2.9278 36.7764 3.27328Z" fill="black"/>
<path id="Vector_3" d="M56.1455 19.2869L61.7053 30.9542C61.8976 31.3471 61.9457 31.6889 61.9457 31.9798C61.9457 33.2964 60.9723 34.2748 59.4612 34.2748C58.6801 34.2748 57.903 33.9366 57.4634 33.0091L51.1736 19.7269H47.222V31.9798C47.222 33.5437 46.1065 34.2748 44.9298 34.2748C43.7532 34.2748 42.5405 33.5437 42.5405 31.9798V2.63685C42.5405 1.42204 43.6621 0.298269 44.8828 0.298269H52.8329C58.0953 0.298269 62.3372 4.54261 62.3372 9.8162V10.2562C62.3372 14.4533 59.8497 18.0175 56.1415 19.2905L56.1455 19.2869ZM57.6557 9.8198C57.6557 7.08477 55.6589 4.93536 52.9741 4.93536H47.218V15.0898H53.0222C55.7059 15.0898 57.6527 12.9404 57.6527 10.2562V9.8162L57.6557 9.8198Z" fill="black"/>
<path id="Vector_4" d="M71.443 34.2748C70.2773 34.2748 69.1037 33.5438 69.1037 31.9799V2.34218C69.1037 0.778292 70.2773 0 71.443 0C72.6086 0 73.7852 0.781997 73.7852 2.34218V31.9799C73.7852 33.5438 72.6156 34.2748 71.443 34.2748Z" fill="black"/>
<path id="Vector_5" d="M90.5427 34.2748H90.1031C84.8337 34.2748 80.5988 30.2705 80.5988 24.9459V9.32156C80.5988 4.05157 84.8337 0 90.1031 0H90.5427C95.2754 0 100 3.42239 100 8.15042V8.30323C100 9.81615 99.1718 10.8382 97.6106 10.8382C96.2958 10.8382 95.6639 10.0635 95.3184 8.83788C94.8788 6.44833 93.0783 4.63719 90.5427 4.63719H90.1031C87.3723 4.63719 85.2804 6.59744 85.2804 9.2816V24.9969C85.2804 27.7356 87.4234 29.685 90.1031 29.685H90.5427C93.0813 29.685 94.8828 27.8811 95.3184 25.4843C95.6599 24.2659 96.2958 23.4839 97.6106 23.4839C99.1718 23.4839 100 24.5095 100 26.0226V26.1717C100 30.9543 95.2754 34.2748 90.5427 34.2748Z" fill="black"/>
</g>
</svg>
