<svg width="6" height="7" viewBox="0 0 6 7" fill="none" xmlns="http://www.w3.org/2000/svg">
<path id="Vector" d="M4.68702 0H5.62442V3.92375C5.62442 4.45734 5.5932 4.84973 5.51571 5.13225C5.45329 5.39904 5.35966 5.61882 5.24989 5.80716C5.14011 5.97979 5.01526 6.13681 4.8592 6.27801C4.32754 6.76458 3.65598 6.99995 2.81221 6.99995C1.96844 6.99995 1.28072 6.76457 0.765202 6.29372C0.609148 6.15241 0.46817 5.97979 0.374538 5.80716C0.265838 5.61882 0.172204 5.39905 0.0936386 5.14796C0.0312169 4.88116 0 4.47305 0 3.90803V0H0.937404V3.92375C0.937404 4.56723 0.999837 5.02236 1.14082 5.27356C1.29688 5.54036 1.50027 5.74441 1.79731 5.88562C2.07821 6.04264 2.42154 6.12109 2.81221 6.12109C3.35894 6.12109 3.81203 5.96407 4.1715 5.66595C4.3437 5.49322 4.48467 5.30488 4.56216 5.08522C4.64073 4.84974 4.68702 4.47306 4.68702 3.92375V0Z" fill="black"/>
</svg>
