<svg width="220" height="140" viewBox="0 0 220 140" fill="none" xmlns="http://www.w3.org/2000/svg">
<g id="Equality-Commission-For-Northern-Ireland-Logo.svg">
<path id="Vector" d="M78.94 53.6933H82.296V67.8496H78.94V62.8753C78.2544 63.6845 77.2961 64.0891 76.0696 64.0891C74.7195 64.0891 73.5909 63.578 72.6795 62.5602C71.7682 61.5423 71.3125 60.2732 71.3125 58.7485C71.3125 57.2238 71.7682 55.9547 72.6795 54.9368C73.5909 53.919 74.7195 53.4122 76.0696 53.4122C77.2961 53.4122 78.2544 53.8168 78.94 54.6259V53.6975V53.6933ZM75.2817 60.3456C75.6735 60.7501 76.1846 60.9503 76.8191 60.9503C77.4537 60.9503 77.9648 60.7501 78.3566 60.3456C78.7484 59.941 78.9443 59.4086 78.9443 58.7485C78.9443 58.0884 78.7484 57.556 78.3566 57.1514C77.9648 56.7468 77.4537 56.5424 76.8191 56.5424C76.1846 56.5424 75.6735 56.7468 75.2817 57.1514C74.8899 57.556 74.694 58.0884 74.694 58.7485C74.694 59.4086 74.8899 59.941 75.2817 60.3456Z" fill="black"/>
<path id="Vector_2" d="M89.825 53.6932H93.181V63.8037H89.825V62.7901C89.2203 63.6546 88.2791 64.0848 87.0142 64.0848C85.9197 64.0848 85.0296 63.71 84.3354 62.9604C83.6412 62.2109 83.292 61.1377 83.292 59.7365V53.689H86.6479V59.3106C86.6479 59.8387 86.7842 60.2348 87.061 60.5031C87.3379 60.7714 87.7041 60.9077 88.1641 60.9077C88.6922 60.9077 89.0968 60.7501 89.3864 60.4307C89.676 60.1155 89.8208 59.6598 89.8208 59.0636V53.6847L89.825 53.6932Z" fill="black"/>
<path id="Vector_3" d="M101.657 53.6933H105.012V63.8037H101.657V62.8753C100.971 63.6845 100.013 64.0891 98.7861 64.0891C97.436 64.0891 96.3074 63.578 95.396 62.5602C94.4846 61.5423 94.0332 60.2732 94.0332 58.7485C94.0332 57.2238 94.4889 55.9547 95.396 54.9368C96.3074 53.919 97.436 53.4122 98.7861 53.4122C100.013 53.4122 100.971 53.8168 101.657 54.6259V53.6975V53.6933ZM97.9982 60.3456C98.39 60.7501 98.9011 60.9503 99.5356 60.9503C100.17 60.9503 100.681 60.7501 101.073 60.3456C101.465 59.941 101.661 59.4086 101.661 58.7485C101.661 58.0884 101.465 57.556 101.073 57.1514C100.681 56.7468 100.17 56.5424 99.5356 56.5424C98.9011 56.5424 98.39 56.7468 97.9982 57.1514C97.6064 57.556 97.4105 58.0884 97.4105 58.7485C97.4105 59.4086 97.6064 59.941 97.9982 60.3456Z" fill="black"/>
<path id="Vector_4" d="M109.365 49.0383H106.009V63.8037H109.365V49.0383Z" fill="black"/>
<path id="Vector_5" d="M113.402 52.2878C113.019 52.6711 112.563 52.8628 112.035 52.8628C111.507 52.8628 111.056 52.6711 110.668 52.2878C110.285 51.9045 110.093 51.4488 110.093 50.9207C110.093 50.3926 110.285 49.9412 110.668 49.5664C111.051 49.1874 111.507 49 112.035 49C112.563 49 113.015 49.1874 113.402 49.5664C113.786 49.9455 113.977 50.3969 113.977 50.9207C113.977 51.4446 113.786 51.9003 113.402 52.2878ZM110.357 53.6932H113.713V63.8037H110.357V53.6932Z" fill="black"/>
<path id="Vector_6" d="M121.69 56.8789H119.586V59.7962C119.586 60.2391 119.748 60.5159 120.072 60.6224C120.395 60.7289 120.936 60.7629 121.69 60.7246V63.7441C119.68 63.9869 118.27 63.7995 117.453 63.1905C116.635 62.5815 116.23 61.4742 116.23 59.8771V56.8789H114.714V53.6762H116.23V51.862L119.586 50.8569V53.6762H121.69V56.8789Z" fill="black"/>
<path id="Vector_7" d="M129.837 53.6932H133.56L130.101 63.6419C129.561 65.1665 128.802 66.2653 127.814 66.9382C126.831 67.6111 125.557 67.9177 123.99 67.8496V64.6938C124.705 64.6938 125.242 64.6044 125.608 64.4298C125.975 64.2551 126.268 63.9357 126.498 63.48L122.453 53.689H126.213L128.257 59.5534L129.837 53.689V53.6932Z" fill="black"/>
<path id="Vector_8" d="M66.3806 80.5409C64.2511 80.5409 62.488 79.8382 61.0911 78.4285C59.6942 77.0189 59 75.2642 59 73.1604C59 71.0565 59.6984 69.3018 61.0911 67.8922C62.488 66.4825 64.2511 65.7798 66.3806 65.7798C67.6625 65.7798 68.8464 66.0822 69.941 66.6912C71.0355 67.2959 71.8915 68.1136 72.509 69.14L69.3745 70.9415C69.1062 70.4432 68.7016 70.0471 68.1693 69.7575C67.6369 69.4679 67.0407 69.3231 66.3806 69.3231C65.2477 69.3231 64.3363 69.6766 63.6421 70.3836C62.9479 71.0906 62.5987 72.019 62.5987 73.1646C62.5987 74.3102 62.9479 75.2387 63.6421 75.9456C64.3363 76.6526 65.252 77.0061 66.3806 77.0061C67.0407 77.0061 67.6369 76.8613 68.1693 76.5717C68.7016 76.2821 69.102 75.8817 69.3745 75.3707L72.509 77.1892C71.8872 78.2284 71.0355 79.0461 69.9495 79.6466C68.8635 80.2471 67.6753 80.5452 66.3806 80.5452" fill="black"/>
<path id="Vector_9" d="M78.241 80.5196C76.7461 80.5196 75.4685 80.0043 74.4208 78.9737C73.3689 77.943 72.8408 76.6781 72.8408 75.1833C72.8408 73.6884 73.3646 72.4236 74.4208 71.3887C75.4727 70.358 76.7461 69.8427 78.241 69.8427C79.7358 69.8427 81.0305 70.358 82.0739 71.3887C83.1174 72.4193 83.6412 73.6842 83.6412 75.1833C83.6412 76.6824 83.1174 77.943 82.0739 78.9737C81.0305 80.0043 79.7529 80.5196 78.241 80.5196ZM78.241 77.2872C78.833 77.2872 79.3227 77.0913 79.706 76.6994C80.0893 76.3076 80.281 75.8051 80.281 75.1833C80.281 74.5615 80.0893 74.059 79.706 73.6671C79.3227 73.2753 78.833 73.0794 78.241 73.0794C77.649 73.0794 77.1805 73.2753 76.793 73.6671C76.4097 74.059 76.218 74.5658 76.218 75.1833C76.218 75.8008 76.4097 76.3076 76.793 76.6994C77.1763 77.0913 77.6575 77.2872 78.241 77.2872Z" fill="black"/>
<path id="Vector_10" d="M93.1684 71.1374C93.3813 70.8776 93.6156 70.6562 93.8754 70.4773C94.4801 70.0557 95.2212 69.8427 96.0985 69.8427C97.7552 69.8427 98.6282 70.2771 99.1947 71.1374C99.4076 70.8776 99.6418 70.6562 99.9016 70.4773C100.507 70.0557 101.248 69.8427 102.125 69.8427C103.782 69.8427 104.655 70.2771 105.221 71.1374C105.92 70.2771 106.899 69.8427 108.156 69.8427C109.327 69.8427 110.255 70.2175 110.937 70.967C111.618 71.7166 111.959 72.743 111.959 74.0504V80.2385H108.581V74.4337C108.581 73.4925 108.16 73.0198 107.325 73.0198C106.865 73.0198 106.52 73.1731 106.282 73.4755C106.043 73.7779 105.928 74.1952 105.928 74.7191V80.2385H102.572V74.4337C102.572 73.6118 102.244 73.1433 101.597 73.0411C101.503 73.0241 101.405 73.0198 101.299 73.0198C101.248 73.0198 101.201 73.0198 101.154 73.0283C100.766 73.0581 100.468 73.2072 100.26 73.4755C100.021 73.7779 99.9059 74.1952 99.9059 74.7191V80.2385H96.5499V74.4337C96.5499 73.6118 96.222 73.1433 95.5746 73.0411C95.481 73.0241 95.383 73.0198 95.2765 73.0198C95.2254 73.0198 95.1786 73.0198 95.1317 73.0283C94.7442 73.0581 94.4461 73.2072 94.2374 73.4755C93.9989 73.7779 93.8839 74.1952 93.8839 74.7191V80.2385H90.5279V74.4337C90.5279 73.4925 90.102 73.0198 89.2545 73.0198C89.2034 73.0198 89.1566 73.0198 89.1097 73.0283C88.7222 73.0581 88.4241 73.2072 88.2154 73.4755C87.9769 73.7779 87.8619 74.1952 87.8619 74.7191V80.2385H84.5059V70.1238H87.8619V71.0735C88.1941 70.6349 88.6072 70.3112 89.1097 70.1068C89.1353 70.094 89.1608 70.0855 89.1864 70.0769C89.5867 69.9236 90.0339 69.8427 90.5407 69.8427C90.5577 69.8427 90.579 69.8427 90.5961 69.8427C91.1369 69.8427 91.6139 69.9364 92.0228 70.1281C92.4912 70.341 92.8788 70.6817 93.1812 71.1417" fill="black"/>
<path id="Vector_11" d="M115.958 68.7184C115.574 69.1017 115.119 69.2933 114.591 69.2933C114.062 69.2933 113.611 69.1017 113.224 68.7184C112.84 68.3351 112.649 67.8794 112.649 67.3513C112.649 66.8232 112.84 66.3717 113.224 65.997C113.607 65.6179 114.062 65.4305 114.591 65.4305C115.119 65.4305 115.57 65.6179 115.958 65.997C116.341 66.376 116.533 66.8274 116.533 67.3513C116.533 67.8751 116.341 68.3308 115.958 68.7184Z" fill="black"/>
<path id="Vector_12" d="M116.269 70.1238H112.913V80.2343H116.269V70.1238Z" fill="black"/>
<path id="Vector_13" d="M121.026 73.0327C121.026 73.2031 121.2 73.3479 121.554 73.4628C121.907 73.5778 122.316 73.7056 122.785 73.8589C123.253 74.008 123.739 74.1656 124.245 74.3274C124.752 74.4892 125.178 74.8129 125.523 75.2984C125.868 75.7839 126.038 76.3929 126.038 77.1254C126.038 78.2839 125.604 79.1399 124.735 79.6935C123.866 80.2472 122.836 80.524 121.643 80.524C119.378 80.524 117.866 79.7233 117.112 78.1178L120.046 76.6399C120.302 77.381 120.83 77.7515 121.622 77.7515C122.227 77.7515 122.533 77.5726 122.533 77.2106C122.533 77.0232 122.363 76.8699 122.018 76.7549C121.673 76.6357 121.268 76.4994 120.804 76.3376C120.34 76.1757 119.859 76.0139 119.36 75.8435C118.862 75.6732 118.445 75.3623 118.108 74.9109C117.772 74.4594 117.602 73.9015 117.602 73.2414C117.602 72.1639 118.002 71.3292 118.803 70.7329C119.603 70.141 120.566 69.8428 121.69 69.8428C123.683 69.8428 125.076 70.6265 125.855 72.1895L123.023 73.4628C122.725 72.8836 122.308 72.594 121.767 72.594C121.268 72.594 121.017 72.7431 121.017 73.037" fill="black"/>
<path id="Vector_14" d="M130.387 73.0327C130.387 73.2031 130.561 73.3479 130.915 73.4628C131.268 73.5778 131.677 73.7056 132.145 73.8589C132.614 74.008 133.099 74.1656 133.606 74.3274C134.113 74.4892 134.539 74.8129 134.884 75.2984C135.229 75.7839 135.399 76.3929 135.399 77.1254C135.399 78.2839 134.965 79.1399 134.096 79.6935C133.227 80.2472 132.197 80.524 131.004 80.524C128.738 80.524 127.231 79.7233 126.473 78.1178L129.407 76.6399C129.663 77.381 130.186 77.7515 130.983 77.7515C131.588 77.7515 131.894 77.5726 131.894 77.2106C131.894 77.0232 131.72 76.8699 131.379 76.7549C131.034 76.6357 130.629 76.4994 130.165 76.3376C129.701 76.1757 129.22 76.0139 128.721 75.8435C128.223 75.6732 127.806 75.3623 127.469 74.9109C127.133 74.4594 126.962 73.9015 126.962 73.2414C126.962 72.1639 127.363 71.3292 128.163 70.7329C128.964 70.141 129.927 69.8428 131.051 69.8428C133.044 69.8428 134.437 70.6265 135.216 72.1895L132.384 73.4628C132.086 72.8836 131.668 72.594 131.132 72.594C130.634 72.594 130.382 72.7431 130.382 73.037" fill="black"/>
<path id="Vector_15" d="M139.296 68.7185C138.913 69.1018 138.457 69.2935 137.929 69.2935C137.401 69.2935 136.95 69.1018 136.562 68.7185C136.179 68.3352 135.987 67.8795 135.987 67.3514C135.987 66.8233 136.179 66.3719 136.562 65.9971C136.945 65.6181 137.401 65.4307 137.929 65.4307C138.457 65.4307 138.909 65.6181 139.296 65.9971C139.679 66.3762 139.871 66.8276 139.871 67.3514C139.871 67.8753 139.679 68.331 139.296 68.7185ZM136.251 70.1239H139.607V80.2344H136.251V70.1239Z" fill="black"/>
<path id="Vector_16" d="M145.859 80.5197C144.364 80.5197 143.086 80.0044 142.035 78.9738C140.983 77.9431 140.459 76.6783 140.459 75.1834C140.459 73.6886 140.983 72.4237 142.035 71.3888C143.086 70.3582 144.36 69.8428 145.859 69.8428C147.358 69.8428 148.648 70.3582 149.692 71.3888C150.735 72.4194 151.259 73.6843 151.259 75.1834C151.259 76.6825 150.735 77.9431 149.692 78.9738C148.648 80.0044 147.371 80.5197 145.859 80.5197ZM145.859 77.2873C146.451 77.2873 146.941 77.0914 147.324 76.6996C147.707 76.3078 147.899 75.8052 147.899 75.1834C147.899 74.5616 147.707 74.0591 147.324 73.6673C146.941 73.2755 146.451 73.0796 145.859 73.0796C145.267 73.0796 144.798 73.2755 144.411 73.6673C144.028 74.0591 143.836 74.5659 143.836 75.1834C143.836 75.801 144.028 76.3078 144.411 76.6996C144.794 77.0914 145.275 77.2873 145.859 77.2873Z" fill="black"/>
<path id="Vector_17" d="M158.278 69.8428C159.368 69.8428 160.262 70.2176 160.957 70.9672C161.651 71.7167 162 72.79 162 74.1954V80.2429H158.644V74.6213C158.644 74.0974 158.508 73.6971 158.231 73.4288C157.954 73.1605 157.588 73.0242 157.128 73.0242C156.604 73.0242 156.195 73.1818 155.906 73.5012C155.616 73.8163 155.471 74.272 155.471 74.8683V80.2472H152.115V70.1367H155.471V71.146C156.076 70.2858 157.013 69.8514 158.282 69.8514" fill="black"/>
<path id="Vector_18" d="M70.4651 52.9309V49.6473H63.6296H60.4355V52.9309V55.2903V58.1608V60.5244V63.8037H63.6296H70.4651V60.5244H63.6296V58.1608H70.4651V55.2903H63.6296V52.9309H70.4651Z" fill="black"/>
<path id="Vector_19" d="M64.7877 84.2249V89.4079L61.206 84.2249H60.499V91.1242H61.4147V85.9667L64.9623 91.1242H65.7033V84.2249H64.7877Z" fill="black"/>
<path id="Vector_20" d="M70.8098 90.5025C70.303 91.0008 69.6897 91.252 68.9657 91.252C68.2417 91.252 67.6284 91.0008 67.1259 90.5025C66.6233 90.0042 66.3721 89.3867 66.3721 88.6584C66.3721 87.9301 66.6233 87.3126 67.1259 86.8143C67.6284 86.316 68.2417 86.0648 68.9657 86.0648C69.6897 86.0648 70.303 86.316 70.8098 86.8143C71.3166 87.3126 71.5679 87.9301 71.5679 88.6584C71.5679 89.3867 71.3166 90.0042 70.8098 90.5025ZM68.9657 90.413C69.4597 90.413 69.8728 90.2469 70.2093 89.9105C70.5457 89.574 70.7118 89.1567 70.7118 88.6584C70.7118 88.1601 70.5415 87.7427 70.2093 87.4063C69.8728 87.0698 69.4597 86.9038 68.9657 86.9038C68.4717 86.9038 68.0671 87.0698 67.7349 87.4063C67.3985 87.7427 67.2324 88.1601 67.2324 88.6584C67.2324 89.1567 67.3985 89.574 67.7349 89.9105C68.0713 90.2469 68.4802 90.413 68.9657 90.413Z" fill="black"/>
<path id="Vector_21" d="M72.999 87.023C73.2801 86.4139 73.7954 86.1073 74.5365 86.1073V87.0059C74.1149 86.9846 73.7528 87.0996 73.4505 87.3424C73.1481 87.5851 72.9948 87.9769 72.9948 88.5178V91.1285H72.1387V86.201H72.9948V87.0272L72.999 87.023Z" fill="black"/>
<path id="Vector_22" d="M78.3224 87.0229H77.0107V89.6932C77.0107 89.936 77.0575 90.1106 77.1512 90.2128C77.2449 90.315 77.394 90.3661 77.5899 90.3704C77.7858 90.3704 78.0286 90.3704 78.3182 90.3533V91.1242C77.5686 91.2221 77.0192 91.1625 76.67 90.941C76.3208 90.7196 76.1461 90.3065 76.1461 89.6932V87.0229H75.1709V86.1967H76.1461V85.0724L77.0022 84.8168V86.1967H78.3139V87.0229H78.3224Z" fill="black"/>
<path id="Vector_23" d="M81.4482 86.0647C82.0274 86.0647 82.4916 86.2479 82.8366 86.6141C83.1858 86.9804 83.3604 87.4744 83.3604 88.0962V91.1242H82.5044V88.1473C82.5044 87.747 82.3937 87.4361 82.1808 87.2146C81.9635 86.9931 81.6654 86.8824 81.2821 86.8824C80.8563 86.8824 80.5113 87.0144 80.2472 87.2827C79.9832 87.5511 79.8512 87.9599 79.8512 88.5093V91.1242H78.9951V84.2206H79.8512V86.9037C80.2004 86.3458 80.7327 86.0647 81.4482 86.0647Z" fill="black"/>
<path id="Vector_24" d="M84.8597 89.0544C84.9449 89.4931 85.1451 89.8381 85.4645 90.0808C85.7839 90.3236 86.1757 90.4471 86.6442 90.4471C87.2958 90.4471 87.7685 90.2086 88.0624 89.7273L88.7906 90.1404C88.3094 90.8857 87.5854 91.2562 86.6229 91.2562C85.8393 91.2562 85.2047 91.0092 84.7149 90.5237C84.2252 90.034 83.9824 89.4164 83.9824 88.6669C83.9824 87.9173 84.2209 87.3083 84.7022 86.8143C85.1834 86.3203 85.8009 86.0732 86.5675 86.0732C87.2915 86.0732 87.8793 86.3288 88.3392 86.8356C88.7949 87.3466 89.0249 87.9599 89.0249 88.6754C89.0249 88.7989 89.0164 88.9267 88.9951 89.0587H84.864L84.8597 89.0544ZM86.5675 86.8739C86.1076 86.8739 85.7243 87.0017 85.4219 87.2615C85.1195 87.5212 84.9321 87.8662 84.8597 88.3006H88.1518C88.0794 87.8321 87.8963 87.4787 87.5982 87.2359C87.3043 86.9931 86.9551 86.8696 86.5633 86.8696" fill="black"/>
<path id="Vector_25" d="M90.4726 87.023C90.7537 86.4139 91.269 86.1073 92.0101 86.1073V87.0059C91.5885 86.9846 91.2264 87.0996 90.9241 87.3424C90.6217 87.5851 90.4684 87.9769 90.4684 88.5178V91.1285H89.6123V86.201H90.4684V87.0272L90.4726 87.023Z" fill="black"/>
<path id="Vector_26" d="M95.0551 86.0648C95.6343 86.0648 96.0985 86.2479 96.4435 86.6141C96.7927 86.9804 96.9673 87.4744 96.9673 88.0962V91.1243H96.107V88.1473C96.107 87.747 96.0005 87.4361 95.7833 87.2146C95.5661 86.9932 95.268 86.8825 94.8847 86.8825C94.4588 86.8825 94.1139 87.0145 93.8498 87.2828C93.5858 87.5468 93.4537 87.9599 93.4537 88.5093V91.1243H92.5977V86.1925H93.4537V86.9037C93.803 86.3458 94.3353 86.0648 95.0508 86.0648" fill="black"/>
<path id="Vector_27" d="M101.039 84.2249H100.123V91.1284H101.039V84.2249Z" fill="black"/>
<path id="Vector_28" d="M102.696 87.0229C102.977 86.4139 103.492 86.1072 104.233 86.1072V87.0059C103.812 86.9846 103.45 87.0995 103.147 87.3423C102.845 87.5851 102.691 87.9769 102.691 88.5177V91.1284H101.835V86.2009H102.691V87.0271L102.696 87.0229Z" fill="black"/>
<path id="Vector_29" d="M105.115 89.0544C105.2 89.493 105.4 89.838 105.72 90.0807C106.039 90.3235 106.431 90.447 106.899 90.447C107.551 90.447 108.024 90.2085 108.317 89.7273L109.046 90.1404C108.564 90.8857 107.845 91.2562 106.878 91.2562C106.094 91.2562 105.46 91.0092 104.97 90.5237C104.48 90.0339 104.237 89.4164 104.237 88.6668C104.237 87.9173 104.476 87.3082 104.957 86.8142C105.434 86.3202 106.056 86.0732 106.823 86.0732C107.547 86.0732 108.134 86.3287 108.594 86.8355C109.05 87.3466 109.28 87.9598 109.28 88.6753C109.28 88.7988 109.271 88.9266 109.25 89.0586H105.119L105.115 89.0544ZM106.818 86.8738C106.358 86.8738 105.975 87.0016 105.673 87.2614C105.37 87.5212 105.183 87.8662 105.11 88.3006H108.403C108.33 87.8321 108.147 87.4786 107.849 87.2358C107.555 86.9931 107.21 86.8696 106.814 86.8696" fill="black"/>
<path id="Vector_30" d="M110.77 83.9268H109.914V91.1242H110.77V83.9268Z" fill="black"/>
<path id="Vector_31" d="M115.821 86.1966H116.677V91.1283H115.821V90.2808C115.396 90.9324 114.774 91.2561 113.956 91.2561C113.266 91.2561 112.678 91.0048 112.193 90.5023C111.707 89.9997 111.465 89.3864 111.465 88.6624C111.465 87.9384 111.707 87.3252 112.193 86.8226C112.678 86.3201 113.266 86.0688 113.956 86.0688C114.769 86.0688 115.391 86.3925 115.821 87.0441V86.1966ZM114.067 90.4256C114.565 90.4256 114.982 90.2552 115.319 89.9188C115.655 89.5824 115.821 89.1607 115.821 88.6624C115.821 88.1642 115.655 87.7425 115.319 87.4061C114.982 87.0654 114.565 86.8993 114.067 86.8993C113.568 86.8993 113.16 87.0696 112.823 87.4061C112.487 87.7425 112.321 88.1642 112.321 88.6624C112.321 89.1607 112.491 89.5824 112.823 89.9188C113.155 90.2552 113.573 90.4256 114.067 90.4256Z" fill="black"/>
<path id="Vector_32" d="M119.893 86.0646C120.472 86.0646 120.936 86.2478 121.286 86.614C121.635 86.9803 121.809 87.4743 121.809 88.0961V91.1241H120.953V88.1472C120.953 87.7469 120.843 87.436 120.625 87.2145C120.408 86.9931 120.11 86.8823 119.727 86.8823C119.301 86.8823 118.952 87.0144 118.692 87.2827C118.428 87.5467 118.296 87.9598 118.296 88.5092V91.1241H117.44V86.1924H118.296V86.9036C118.645 86.3457 119.177 86.0646 119.893 86.0646Z" fill="black"/>
<path id="Vector_33" d="M126.835 84.2249H127.691V91.1284H126.835V90.2809C126.409 90.9325 125.787 91.2562 124.969 91.2562C124.279 91.2562 123.692 91.0049 123.206 90.5024C122.721 89.9998 122.478 89.3866 122.478 88.6626C122.478 87.9386 122.721 87.3253 123.206 86.8227C123.692 86.3202 124.279 86.0689 124.969 86.0689C125.783 86.0689 126.405 86.3926 126.835 87.0442V84.2249ZM125.08 90.4257C125.578 90.4257 125.996 90.2554 126.332 89.9189C126.669 89.5825 126.835 89.1608 126.835 88.6626C126.835 88.1643 126.669 87.7427 126.332 87.4062C125.996 87.0655 125.578 86.8994 125.08 86.8994C124.582 86.8994 124.173 87.0698 123.836 87.4062C123.5 87.7427 123.334 88.1643 123.334 88.6626C123.334 89.1608 123.504 89.5825 123.836 89.9189C124.169 90.2554 124.586 90.4257 125.08 90.4257Z" fill="black"/>
</g>
</svg>
