<svg width="26" height="4" viewBox="0 0 26 4" fill="none" xmlns="http://www.w3.org/2000/svg">
<path id="Vector" d="M0.350082 3.5204H1.26147C2.03228 3.5204 2.45292 3.37991 2.45292 2.74566C2.45292 2.11245 2.03228 1.97196 1.33151 1.97196H0.350082V3.5204ZM0.350082 1.68996H1.26147C2.03228 1.68996 2.24229 1.40795 2.24229 0.985464C2.24229 0.492733 1.96225 0.351217 1.19144 0.351217H0.350082V1.68996ZM0 3.8024V0H1.40155C2.31233 0 2.66302 0.422491 2.66302 0.985464C2.66302 1.54844 2.38226 1.7602 2.03228 1.83044C2.52295 1.90068 2.80299 2.25293 2.80299 2.81591C2.80299 3.59064 2.31233 3.87264 1.54152 3.87264H0V3.8024ZM6.16668 3.8024V0H8.68942V0.280974H6.51738V1.68996H8.47972V1.97196H6.51738V3.5204H8.7607V3.8024H6.16668ZM12.0538 3.8024V0H12.404V3.5204H14.4369V3.8024H12.0538ZM17.5906 3.8024V0H20.0429V0.280974H18.011V1.68996H19.9024V1.97196H18.011V3.8024H17.5906ZM23.5468 2.3242H25.0188L24.2481 0.280974L23.5468 2.3242ZM22.6357 3.8024L24.1077 0H24.5281L26.0001 3.8024H25.6489L25.2295 2.60518H23.4063L22.9858 3.8024H22.6357Z" fill="black"/>
</svg>
