<svg width="48" height="56" viewBox="0 0 48 56" fill="none" xmlns="http://www.w3.org/2000/svg">
<g id="Group">
<path id="Vector" fill-rule="evenodd" clip-rule="evenodd" d="M30.8954 0L0 15.4183V19.7334L25.5837 6.9334L19.0051 16.7759L22.2213 18.9092C25.4375 16.7758 29.2873 15.5637 33.4782 15.5637C37.6203 15.5637 41.47 16.7758 44.735 18.9092L47.4152 16.0486C43.468 13.2849 38.6436 11.6849 33.4782 11.6849C30.9929 11.6849 28.605 12.0728 26.3634 12.7516L32.601 3.4424L30.8954 0ZM38.9847 44.703C42.9319 44.703 46.0995 43.0545 48 40.6303L45.1248 38.0606C43.8578 39.6606 41.8111 41.0182 39.0335 41.0182C34.8913 41.0182 31.7239 37.8666 31.7239 33.6969C31.7239 29.6241 34.7939 26.3757 38.8873 26.3757C40.9827 26.3757 42.8345 27.2969 44.1015 28.5575L46.7817 25.7454C44.8324 23.9029 42.1036 22.6908 38.936 22.6908C32.2599 22.6908 27.6305 27.5878 27.6305 33.6969C27.6305 39.8545 32.3086 44.703 38.9847 44.703ZM27.1919 40.6303C25.2913 43.006 22.1239 44.703 18.1767 44.703C11.4518 44.703 6.7736 39.8545 6.8223 33.7454C6.8223 27.5878 11.4518 22.7393 18.1279 22.7393C21.2954 22.7393 24.0244 23.9514 25.9736 25.7938L23.2934 28.606C22.0264 27.3454 20.1746 26.4241 18.0792 26.4241C13.9857 26.4241 10.9157 29.6727 10.9157 33.7454C10.9157 37.9151 14.0833 41.0666 18.2254 41.0666C21.0518 41.0666 23.0497 39.7091 24.3167 38.109L27.1919 40.6303ZM0.0486984 44.4121H4.1909V22.8847L0.0486984 24.9696V44.4121ZM43.3218 49.9879H41.4213V48.7758H46.5868V49.9879H44.6863V55.9031H43.3218V49.9879ZM37.4254 56C38.7411 56 39.8619 55.1273 39.8619 53.8667C39.8619 52.4272 38.6935 51.9621 37.7545 51.5884C37.1121 51.3327 36.5771 51.1196 36.5969 50.6666C36.5969 50.1333 37.1817 49.8909 37.7177 49.8909C38.1564 49.8909 38.6436 50.1333 38.936 50.3758L39.667 49.3575C38.9847 48.8727 38.3025 48.6788 37.5716 48.6788C36.3532 48.6788 35.1837 49.406 35.1837 50.6666C35.1837 51.4424 35.6223 51.9273 36.2071 52.2666C36.5145 52.4501 36.8558 52.5854 37.179 52.7135C37.8807 52.9916 38.4975 53.2361 38.4975 53.8667C38.4975 54.4 38.1076 54.7879 37.4741 54.7879C36.7919 54.7879 36.1584 54.4485 35.7685 54.0121L34.8426 54.9333C35.5736 55.6121 36.4508 56 37.4254 56ZM29.6772 50.9576L28.7513 53.0909H30.6031L29.6772 50.9576ZM26.1198 55.8545L29.1898 48.7273H30.2132L33.2832 55.8545H31.8213L31.1391 54.2545H28.2639L27.5817 55.8545H26.1198ZM25.4375 48.7273H21.1492V55.8545H22.5137V52.6545H24.7066V51.4424H22.5137V49.9394H25.4375V48.7273ZM14.4731 48.7273H15.8375V54.6424H18.9076V55.8545H14.4731V48.7273ZM12.0366 54.6909H9.0152V52.7031H11.1594V51.4909H8.9665V49.9879H11.8903V48.7758H7.602V55.9031H12.0366V54.6909ZM2.8264 54.6909C3.3137 54.6909 3.5574 54.5455 3.7523 54.3516C3.8985 54.1576 3.9959 53.9636 3.9959 53.7212C3.9959 53.4788 3.8985 53.2849 3.7523 53.0909C3.5574 52.8969 3.3137 52.7515 2.8264 52.7515H1.4619V54.6909H2.8264ZM2.3878 49.9879H1.4132V51.5393H2.3878C2.8264 51.5393 3.0213 51.4424 3.1675 51.2969C3.265 51.1515 3.3624 50.9576 3.3624 50.7636C3.3624 50.5697 3.3137 50.3758 3.1675 50.2303C3.0213 50.0849 2.8264 49.9879 2.3878 49.9879ZM4.7269 50.6666C4.7269 51.1515 4.532 51.6364 4.2883 51.8788C4.9218 52.2182 5.3604 52.8969 5.3117 53.6727C5.3117 54.3031 5.068 54.8364 4.6782 55.2243C4.2396 55.6121 3.7036 55.8545 2.7777 55.8545H0V48.7273H2.4365C3.265 48.7273 3.7035 48.9212 4.0447 49.2121C4.4832 49.5515 4.7269 50.0848 4.7269 50.6666Z" fill="black"/>
</g>
</svg>
