<svg width="11" height="11" viewBox="0 0 11 11" fill="none" xmlns="http://www.w3.org/2000/svg">
<g id="Group">
<path id="Vector" d="M5.85277 8.85622C6.62826 7.0146 8.53224 2.12547 8.81465 1.13378C8.88512 0.920804 8.95559 0.708451 8.95559 0.637668C8.95694 0.564598 8.93793 0.492674 8.90051 0.429894C8.86319 0.367218 8.80903 0.316394 8.74417 0.283133C8.60334 0.21235 8.3914 0.21235 8.25046 0.21235C8.17999 0.21235 8.10962 0.21235 8.10962 0.141567C8.10962 0.0707832 8.17937 0 8.39141 0C8.95622 0 9.59087 0.0701568 9.73109 0.0701568C9.80156 0.0701568 10.4362 0 10.7891 0C10.9299 0 11.0004 -2.85759e-06 11.0004 0.0701568C11.0004 0.141564 10.9306 0.141567 10.8595 0.141567C10.7891 0.141567 10.4362 0.141566 10.2249 0.283133C10.0135 0.4247 9.80156 0.63767 9.44931 1.55848C9.30847 1.91312 8.60334 3.61317 7.89758 5.31384C7.32529 6.7136 6.73782 8.10702 6.13518 9.49389C5.71183 10.3445 5.71183 10.5569 5.57036 10.5569C5.43004 10.5569 5.35895 10.3445 5.07716 9.70687L1.69267 1.20456C1.33979 0.637047 1.12775 0.4247 0.634662 0.283133H0.14094C-2.88082e-06 0.283133 0 0.212973 0 0.141567C0 0.0701596 0.140943 0.0707833 0.352877 0.0707833C0.987536 0.0707833 1.8335 0.14094 1.97445 0.14094C2.11528 0.14094 2.74994 0.0707833 3.24366 0.0707833C3.52617 0.0707833 3.59654 0.0707804 3.59654 0.14094C3.59654 0.212347 3.52617 0.21235 3.45507 0.21235C3.31413 0.21235 3.03235 0.21235 2.89151 0.283133C2.82042 0.4247 2.82042 0.495478 2.82042 0.637668C2.82042 0.850018 2.96188 1.27534 3.1733 1.77083L5.85277 8.85622Z" fill="black"/>
</g>
</svg>
