<svg width="6" height="7" viewBox="0 0 6 7" fill="none" xmlns="http://www.w3.org/2000/svg">
<path id="Vector" d="M5.82796 5.32746V6.4115C5.14938 6.79869 4.36353 7.00003 3.46937 7.00003C2.74407 7.00003 2.14301 6.8452 1.63434 6.53543C1.14053 6.22577 0.740182 5.80757 0.447085 5.26556C0.153988 4.73904 0 4.15051 0 3.53108C0 2.53986 0.339831 1.70357 1.01735 1.02223C1.68107 0.340779 2.51363 0 3.50018 0C4.17876 0 4.91788 0.185845 5.75044 0.57303V1.61065C4.9954 1.16156 4.25522 0.929316 3.54584 0.929316C2.80567 0.929316 2.18973 1.17706 1.69593 1.67267C1.20318 2.16818 0.955745 2.78772 0.955745 3.53108C0.955745 4.27444 1.20319 4.89387 1.68107 5.37398C2.15894 5.85398 2.77486 6.10184 3.53097 6.10184C4.31681 6.10184 5.07292 5.83858 5.82796 5.32746Z" fill="black"/>
</svg>
