<svg width="36" height="13" viewBox="0 0 36 13" fill="none" xmlns="http://www.w3.org/2000/svg">
<path id="Vector" fill-rule="evenodd" clip-rule="evenodd" d="M0.861 3.6944C0.861 5.0628 1.817 5.7927 3.586 5.7927C4.494 5.7927 5.163 5.519 5.594 5.0172C5.833 4.6979 5.976 4.2874 5.976 3.74V0.7295L6.741 0.136497H4.542L5.307 0.7295V3.8313C5.307 4.2418 5.211 4.5611 5.02 4.7891C4.733 5.1541 4.303 5.3365 3.729 5.3365C2.821 5.3365 2.295 4.8804 2.295 4.0137V0.7295L3.06 0.136497H0L0.764999 0.7295V3.6944H0.861ZM12.192 5.7013H7.172L7.937 5.1083V0.6838L7.172 0.0907974H10.231L9.467 0.6838V5.1996H11.044L12.192 3.8312V5.7013ZM16.781 5.3369C17.259 5.0176 17.498 4.6527 17.498 4.1509C17.498 3.1319 16.573 2.682 15.757 2.2847C15.112 1.9707 14.534 1.6895 14.534 1.186C14.534 0.821097 14.821 0.501801 15.346 0.501801C15.49 0.501801 15.633 0.501801 15.681 0.547401L17.068 1.9614V0.319298L16.876 0.228104C16.59 0.136804 15.92 0 15.346 0C14.677 0 14.103 0.1368 13.673 0.4561C13.243 0.7754 13.052 1.1404 13.052 1.5509C13.052 2.5544 14.103 3.1018 14.964 3.5123C15.538 3.786 16.016 4.1509 16.016 4.5158C16.016 4.972 15.681 5.2913 15.107 5.2913C14.868 5.2913 14.677 5.2456 14.486 5.1544L13.147 3.5123V5.3369L13.386 5.4281C13.479 5.487 13.631 5.5269 13.805 5.5723C13.9 5.5972 14.002 5.6239 14.104 5.6562C14.438 5.7018 14.773 5.7474 15.107 5.7474C15.777 5.793 16.35 5.6105 16.781 5.3369ZM23.427 1.8241L22.184 0.546898H21.419V5.1083L22.184 5.7013H19.124L19.889 5.1083V0.546898H19.124L17.881 1.8241V0.0907974H23.427V1.8241ZM26.296 5.1996V3.0557H27.634L28.447 3.7399V1.8698L27.634 2.554H26.296V0.592598H27.73L28.973 1.8241V0.0907974H24.001L24.766 0.6838V5.1083L24.001 5.7013H29.069V3.7856L27.826 5.1996H26.296ZM32.319 2.8276C32.606 2.8276 32.845 2.782 33.036 2.6452C33.275 2.4627 33.418 2.189 33.418 1.6873C33.418 0.957502 32.94 0.501297 32.367 0.501297L31.984 0.546898V2.782C32.08 2.8276 32.175 2.8276 32.319 2.8276ZM34.638 4.3092C34.802 4.5101 34.907 4.6384 34.948 4.6978L35.283 5.0627C35.426 5.1996 35.713 5.382 36 5.4276V5.7013C35.809 5.7469 35.522 5.7926 35.235 5.7926C34.566 5.7926 34.04 5.6101 33.562 4.9715L32.271 3.375L31.984 3.3294V5.1083L32.749 5.7013H29.689L30.454 5.1083V0.6838L29.689 0.0907974H32.51C33.227 0.0907974 33.801 0.182003 34.183 0.410103C34.614 0.683803 34.948 1.1399 34.948 1.6417C34.948 2.3259 34.47 2.9189 33.705 3.1469C34.111 3.6629 34.425 4.0476 34.638 4.3092ZM7.076 7.3895H4.016L4.781 7.9824V9.807H2.582V7.9824L3.346 7.3895H0.287003L1.052 7.9824V12.407L0.287003 13H3.346L2.582 12.407V10.3544H4.781V12.3614L4.016 13H7.076L6.311 12.407V7.9824L7.076 7.3895ZM10.279 9.0312L9.562 10.5821H10.852L10.279 9.0312ZM10.518 7.2523H10.996L13.147 12.361L13.817 12.954H10.757L11.474 12.361L10.948 10.9926H9.323L8.749 12.361L9.466 12.954H7.41L8.08 12.4067L10.518 7.2523ZM16.445 12.4982V7.9824L17.258 7.3895H14.151L14.963 7.9824V12.407L14.151 13H19.218V11.1298L18.023 12.4982H16.445ZM22.04 7.9824V12.4982H23.618L24.813 11.1298V13H19.745L20.51 12.407V7.9824L19.745 7.3895H22.805L22.04 7.9824Z" fill="black"/>
</svg>
