<svg width="37" height="11" viewBox="0 0 37 11" fill="none" xmlns="http://www.w3.org/2000/svg">
<path id="Vector" d="M1.15479 4.02436V1.1604C1.15479 0.682768 1.0187 0.478325 0.61142 0.410178C0.475326 0.410178 0.272188 0.341329 0.136095 0.341329C0.069049 0.341329 0 0.341331 0 0.273885C0 0.205038 0.0680491 0.136889 0.204142 0.136889C0.815562 0.136889 1.63012 0.205036 1.76521 0.205036C1.9013 0.205036 2.71587 0.137591 3.0551 0.137591C3.19119 0.137591 3.25924 0.137589 3.25924 0.273182C3.25924 0.341329 3.19119 0.341329 3.12315 0.341329C3.0561 0.341329 2.92 0.341331 2.78391 0.410178C2.44468 0.477625 2.30858 0.682768 2.30858 1.1604V5.93497C2.30858 7.84428 2.71586 8.66324 3.32728 9.20902C4.00575 9.82304 4.54912 9.95933 5.36368 9.95933C6.17824 9.95933 6.9928 9.55045 7.46812 9.00458C8.07854 8.25376 8.21564 7.09407 8.21564 5.72993V1.1604C8.21564 0.682768 8.07854 0.478325 7.67126 0.410178C7.53617 0.410178 7.33203 0.341329 7.19694 0.341329C7.12889 0.341329 7.06085 0.341331 7.06085 0.273885C7.06085 0.205038 7.12789 0.136889 7.26499 0.136889C7.87541 0.136889 8.62191 0.205036 8.69096 0.205036C8.75801 0.205036 9.43747 0.137591 9.84375 0.137591C9.98085 0.137591 10.0479 0.137589 10.0479 0.273182C10.0479 0.341329 9.98085 0.341329 9.9118 0.341329C9.84475 0.341329 9.70866 0.341331 9.57257 0.410178C9.23334 0.477625 9.09725 0.682768 9.09725 1.1604V5.45794C9.09725 6.89022 8.96215 8.52755 7.87541 9.48231C6.92576 10.3694 5.90705 10.5057 5.09249 10.5057C4.61717 10.5057 3.25924 10.4376 2.30858 9.55045C1.63012 8.93643 1.15479 7.98177 1.15479 6.00372V4.02436ZM16.09 5.79808H13.5103C13.4432 5.79808 13.4432 5.79808 13.4432 5.73053L14.597 2.11445C14.6641 1.91001 14.7321 1.91001 14.8002 2.11445L16.09 5.73053C16.1581 5.79808 16.1581 5.79808 16.09 5.79808ZM20.0958 10.0956C19.9597 10.0956 19.7556 10.0956 19.5524 10.0281C19.2812 9.95933 18.874 9.75489 18.3986 8.52695C17.5841 6.48074 15.4786 0.955351 15.2765 0.477623C15.1394 0.0675413 15.0713 0 15.0033 0C14.9363 0 14.8672 0.0681417 14.7321 0.545769L11.677 8.86768C11.4058 9.55045 11.2017 10.0281 10.5222 10.0956H10.1159C10.0479 10.0956 9.97985 10.0956 9.97985 10.1638C9.97985 10.2325 10.0469 10.3007 10.251 10.3007C10.8625 10.3007 11.609 10.2325 11.7441 10.2325C11.8812 10.2325 12.4916 10.3001 12.7628 10.3001C12.8988 10.3001 12.9669 10.3001 12.9669 10.1638C12.9669 10.0962 12.8989 10.0962 12.8308 10.0962H12.6957C12.4926 10.0962 12.2204 9.95933 12.2204 9.68675C12.2204 9.41346 12.2884 9.14027 12.4245 8.79953L13.2391 6.412C13.2391 6.34445 13.3071 6.27571 13.3742 6.27571H16.2261C16.2932 6.27571 16.2932 6.27571 16.3622 6.34385L17.5841 9.6186C17.6521 9.82304 17.5841 9.95933 17.516 9.95933C17.448 9.95933 17.448 10.0275 17.448 10.0275C17.448 10.0956 17.5841 10.0956 17.8553 10.0956H19.9597C20.0958 10.0956 20.2319 10.0956 20.2319 9.95933C20.2319 10.0956 20.1638 10.0956 20.0958 10.0956ZM25.7307 5.32105C25.4234 5.50568 25.0702 5.60004 24.713 5.59364C24.1015 5.59364 23.4901 5.52549 23.286 5.3892C23.2189 5.32105 23.2189 5.32105 23.2189 5.2522V0.887206C23.2189 0.818358 23.286 0.75021 23.354 0.75021C23.4901 0.682763 23.8294 0.682765 24.2376 0.682765C25.6626 0.682765 26.5452 1.70557 26.5452 3.34229C26.5452 4.2294 26.206 4.97962 25.7307 5.32105ZM30.9582 10.0956C30.8902 10.0956 30.6861 10.0956 30.4149 10.0281C30.0756 9.95933 29.5323 9.82304 28.7858 9.07272C28.0392 8.25376 27.0886 7.02592 26.0028 5.66178C27.2247 4.57013 27.631 3.54733 27.631 2.59207C27.631 1.63742 27.0205 1.0235 26.6813 0.75021C26.0028 0.272582 25.0512 0.136293 24.2376 0.136293C23.8294 0.136293 22.8107 0.20444 22.6756 0.20444C22.6085 0.20444 21.793 0.136889 21.1825 0.136889C21.0464 0.136889 20.9784 0.136894 20.9784 0.272587C20.9784 0.340734 21.0464 0.340734 21.1145 0.340734C21.2496 0.340734 21.4537 0.340729 21.5888 0.409476C21.9971 0.477022 22.1332 0.750211 22.1332 1.15979V6.4126C22.1332 7.70798 22.1332 8.73139 22.0641 9.34531C21.9971 9.75489 21.929 10.0275 21.6579 10.0956C21.5208 10.0956 21.3857 10.1638 21.2496 10.1638C21.1825 10.1638 21.1145 10.2325 21.1145 10.2325C21.1145 10.3001 21.1815 10.3688 21.3176 10.3688C21.7249 10.3688 22.5395 10.3007 22.5395 10.3007C22.6075 10.3007 23.4221 10.3682 24.1696 10.3682C24.3047 10.3682 24.3727 10.3007 24.3727 10.2325C24.3727 10.1638 24.3727 10.1638 24.2376 10.1638C24.1015 10.1638 23.8294 10.1638 23.6262 10.0962C23.2189 10.0275 23.1509 9.75489 23.0828 9.34531C23.0148 8.79954 23.0148 7.70859 23.0148 6.412V6.07127C23.0148 6.00312 23.0148 5.93497 23.0828 5.93497H24.713C24.78 5.93497 24.8481 5.93497 24.9161 6.00252C25.1873 6.34385 25.7987 7.23036 26.3411 7.98118C27.0886 9.00458 27.5639 9.6186 28.1743 9.95933C28.5146 10.1644 28.8538 10.2325 29.6003 10.2325H30.7541C31.0263 10.2325 31.0943 10.2325 31.0943 10.0956H30.9582ZM32.2481 4.02436V1.1604C32.2481 0.682768 32.112 0.478325 31.7048 0.410178C31.5697 0.410178 31.3655 0.342032 31.2294 0.342032C31.1624 0.342032 31.0943 0.34203 31.0943 0.273182C31.0943 0.205736 31.1614 0.136889 31.2985 0.136889H35.8466C36.1178 0.136889 36.3219 0.0694446 36.39 0.0694446C36.457 0.0694446 36.5251 0.000595501 36.5931 0.000595501C36.6612 0.000595501 36.6612 0.0687422 36.6612 0.136889C36.6612 0.205036 36.5931 0.410178 36.5251 0.750912C36.5251 0.887206 36.457 1.50112 36.457 1.63802C36.457 1.70556 36.39 1.77431 36.39 1.77431C36.3219 1.77431 36.2539 1.70617 36.2539 1.56987C36.2539 1.50112 36.2539 1.22854 36.1858 1.09225C36.1178 0.887208 35.9817 0.682765 35.2352 0.614619C35.032 0.614619 33.538 0.546472 33.4019 0.546472C33.3349 0.546472 33.3349 0.614619 33.3349 0.682765V4.36629C33.3349 4.43444 33.3349 4.50259 33.4019 4.50259H35.5064C35.8466 4.50259 36.0497 4.43514 36.1178 4.29815C36.1858 4.16185 36.2539 4.09371 36.3219 4.09371C36.39 4.09371 36.39 4.09371 36.39 4.23C36.39 4.29815 36.3219 4.57073 36.2539 4.98032C36.2539 5.2529 36.1858 5.73053 36.1858 5.86742C36.1858 6.00372 36.1858 6.14001 36.1178 6.14001C36.0497 6.14001 36.0497 6.07186 36.0497 6.00372C36.0497 5.86682 36.0497 5.73053 35.9817 5.59424C35.9146 5.3898 35.7786 5.18476 35.3032 5.11661C34.964 5.04906 33.6061 5.04906 33.4019 5.04906C33.3349 5.04906 33.3349 5.11661 33.3349 5.11661V8.59509C33.4019 9.55045 33.6061 9.68675 34.8959 9.68675C35.2352 9.68675 35.8466 9.68675 36.1858 9.55045C36.5251 9.41346 36.6612 9.14087 36.7962 8.59509C36.7962 8.4588 36.8653 8.39065 36.9323 8.39065C37.0004 8.39065 37.0004 8.52695 37.0004 8.59509C37.0004 8.73139 36.8653 9.6186 36.7962 9.89119C36.7292 10.2325 36.5931 10.2325 36.0497 10.2325C35.032 10.2325 34.2845 10.2325 33.8102 10.1638C33.2658 10.1638 32.9946 10.0962 32.7915 10.0962H31.5016C31.3655 10.0962 31.2975 10.0962 31.2975 9.95933C31.2975 9.89179 31.2975 9.89178 31.4336 9.89178C31.5697 9.89178 31.7048 9.89179 31.8409 9.82304C32.112 9.75489 32.1801 9.4816 32.2481 9.07272C32.3162 8.52635 32.3162 7.4354 32.3162 6.13941V4.02436H32.2481Z" fill="black"/>
</svg>
