<svg width="101" height="88" viewBox="0 0 101 88" fill="none" xmlns="http://www.w3.org/2000/svg">
<g id="SVG">
<path id="Vector" d="M84.6294 19.456C59.1164 38.2939 33.0166 57.0031 5.97283 73.5606C5.12146 74.0741 4.26145 72.6499 5.04728 72.0854C30.8052 53.5929 57.1311 35.8579 82.8676 17.3054C84.3125 16.2758 86.0493 18.3946 84.6169 19.4401L84.6294 19.456Z" fill="#EF694C"/>
<path id="Vector_2" d="M95.0646 13.7361C96.1335 13.7942 96.6169 15.1296 96.0298 15.9478C89.0371 25.5715 81.6511 34.8892 72.7128 42.8134C71.8113 43.6221 70.7341 42.2146 71.5508 41.3956C79.1914 33.6438 86.4546 25.5736 92.398 16.4394C84.4992 16.1548 76.6283 16.2322 68.714 16.5483C66.9548 16.6216 66.4824 13.8959 68.2732 13.7977C77.19 13.2591 86.1355 13.3121 95.0487 13.7486L95.0646 13.7361Z" fill="#EF694C"/>
</g>
</svg>
