<svg width="102" height="88" viewBox="0 0 102 88" fill="none" xmlns="http://www.w3.org/2000/svg">
<g id="SVG">
<path id="Vector" d="M17.367 19.456C42.8799 38.2939 68.9798 57.0031 96.0235 73.5606C96.8749 74.0741 97.7349 72.6499 96.9491 72.0854C71.1911 53.5929 44.8652 35.8579 19.1287 17.3054C17.6839 16.2758 15.947 18.3946 17.3794 19.4401L17.367 19.456Z" fill="#EF694C"/>
<path id="Vector_2" d="M6.93173 13.7361C5.86283 13.7942 5.37938 15.1296 5.96647 15.9478C12.9592 25.5715 20.3452 34.8892 29.2835 42.8134C30.185 43.6221 31.2622 42.2146 30.4455 41.3956C22.8049 33.6438 15.5417 25.5736 9.59829 16.4394C17.4971 16.1548 25.3681 16.2322 33.2824 16.5483C35.0415 16.6216 35.514 13.8959 33.7231 13.7977C24.8063 13.2591 15.8608 13.3121 6.94758 13.7486L6.93173 13.7361Z" fill="#EF694C"/>
</g>
</svg>
