<svg width="123" height="123" viewBox="0 0 123 123" fill="none" xmlns="http://www.w3.org/2000/svg">
<g id="SVG">
<path id="Vector" d="M48.188 109.725C74.7079 116.831 101.967 101.093 109.073 74.5729C116.179 48.053 100.441 20.7939 73.9211 13.6879C47.4012 6.58194 20.142 22.32 13.0361 48.8399C5.93009 75.3598 21.6682 102.619 48.188 109.725Z" fill="#FFB3DB"/>
<path id="Vector_2" fill-rule="evenodd" clip-rule="evenodd" d="M29.0724 52.3533C33.8021 34.7016 52.0107 24.1888 69.6624 28.9186C87.314 33.6483 97.8268 51.8569 93.097 69.5086C88.3673 87.1603 70.1586 97.673 52.507 92.9433C34.8553 88.2135 24.3426 70.005 29.0724 52.3533ZM33.0739 53.4255C28.9354 68.8706 38.134 84.8032 53.5793 88.9417C69.0244 93.0802 84.957 83.8816 89.0955 68.4364C93.2341 52.9911 84.0354 37.0587 68.5902 32.9201C53.1449 28.7816 37.2125 37.9802 33.0739 53.4255ZM55.8793 80.3596C62.9404 82.2515 70.2134 80.3239 75.3346 75.2032C76.1436 74.3942 76.1437 73.0828 75.3348 72.2739C74.526 71.4648 73.2144 71.4647 72.4055 72.2737C68.3432 76.3355 62.5659 77.8624 56.9513 76.358C51.3366 74.8537 47.0964 70.6426 45.6091 65.0936C45.3131 63.9888 44.1774 63.3332 43.0721 63.6292C41.9672 63.9253 41.3116 65.0612 41.6078 66.1662C43.4828 73.1617 48.818 78.4677 55.8793 80.3596Z" fill="#0C0C0C"/>
<path id="Vector_3" d="M58.0914 45.0786C57.278 44.731 56.5021 44.6993 55.7611 44.9252C55.7498 44.9287 55.7389 44.9325 55.7277 44.9354C55.7139 44.9399 55.6998 44.9438 55.686 44.9483C55.3597 45.053 55.0492 45.2055 54.7521 45.3994C54.675 45.4487 54.5982 45.5004 54.5217 45.5549C54.4128 45.6329 54.3094 45.7206 54.1941 45.816C54.1593 45.8439 54.1239 45.8722 54.0871 45.9012C54.0701 45.8583 54.0535 45.8161 54.0373 45.7746C53.9853 45.6338 53.9397 45.5061 53.8838 45.384C53.8359 45.2786 53.7855 45.177 53.7325 45.0786C53.6145 44.8534 53.4787 44.6436 53.3247 44.4507C53.3218 44.4472 53.3189 44.4437 53.3166 44.4404C53.2862 44.4027 53.2553 44.3648 53.2235 44.3284C52.6825 43.6994 51.9643 43.299 51.0305 43.1866C49.5625 43.0105 47.3656 44.1943 47.2284 46.5886C47.1644 47.7033 47.4274 48.7409 47.9587 49.6918C48.7253 51.063 49.5459 52.4042 50.3545 53.7516L50.3491 53.7716C50.724 54.3731 51.1028 54.9768 51.4882 55.5942L51.4901 55.5932L51.4913 55.5951C52.1656 55.2364 52.8254 54.8869 53.4809 54.5375L53.4868 54.5154C54.8303 53.7704 56.18 53.0347 57.4994 52.2488C58.435 51.691 59.1811 50.9237 59.6835 49.9264C60.762 47.7839 59.4509 45.6601 58.0914 45.0786Z" fill="black"/>
<path id="Vector_4" d="M77.1729 51.1046C76.3596 50.757 75.5837 50.7252 74.8426 50.9511C74.8313 50.9547 74.8204 50.9583 74.8092 50.9613C74.7954 50.9658 74.7813 50.9696 74.7675 50.9742C74.4412 51.0788 74.1307 51.2314 73.8337 51.4253C73.7565 51.4747 73.6797 51.5263 73.6033 51.5807C73.4943 51.6587 73.3909 51.7464 73.2756 51.842C73.2408 51.8698 73.2054 51.898 73.1686 51.9271C73.1516 51.8842 73.135 51.8421 73.1188 51.8005C73.0668 51.6596 73.0212 51.532 72.9653 51.4098C72.9174 51.3045 72.867 51.2029 72.814 51.1044C72.6961 50.8792 72.5603 50.6694 72.4062 50.4766C72.4033 50.4731 72.4005 50.4696 72.3981 50.4662C72.3677 50.4286 72.3368 50.3908 72.305 50.3543C71.764 49.7252 71.0458 49.3249 70.1121 49.2126C68.644 49.0363 66.4471 50.2201 66.31 52.6144C66.2459 53.7291 66.5089 54.7668 67.0403 55.7177C67.8069 57.0889 68.6274 58.4302 69.436 59.7776L69.4307 59.7975C69.8056 60.399 70.1843 61.0026 70.5697 61.6202L70.5716 61.619L70.5728 61.621C71.2471 61.2623 71.9069 60.9128 72.5624 60.5633L72.5683 60.5414C73.9118 59.7963 75.2615 59.0606 76.581 58.2746C77.5166 57.7168 78.2626 56.9495 78.7651 55.9523C79.8435 53.8097 78.5324 51.6859 77.1729 51.1046Z" fill="black"/>
</g>
</svg>
