<svg width="113" height="113" viewBox="0 0 113 113" fill="none" xmlns="http://www.w3.org/2000/svg">
<g id="SVG">
<path id="Vector" d="M46.8329 102.816C72.2989 108.229 97.3313 91.9733 102.744 66.5072C108.157 41.0412 91.901 16.0088 66.435 10.5958C40.969 5.18285 15.9366 21.4391 10.5236 46.9051C5.11063 72.3711 21.3668 97.4035 46.8329 102.816Z" fill="#FFB3DB"/>
<path id="Vector_2" d="M74.6096 38.1811C71.2641 36.9543 68.1357 36.9899 65.202 38.0548C65.1572 38.0713 65.1144 38.0884 65.0699 38.1029C65.0155 38.1239 64.9593 38.1424 64.9048 38.1635C63.6146 38.6529 62.3974 39.332 61.2432 40.1747C60.9429 40.3893 60.6451 40.6133 60.3492 40.8485C59.9272 41.1852 59.5299 41.5598 59.0862 41.9682C58.9519 42.0876 58.8152 42.2087 58.6735 42.333C58.5961 42.1642 58.5204 41.9981 58.4465 41.8343C58.2076 41.2788 57.997 40.7749 57.7464 40.2952C57.5318 39.8819 57.3073 39.4838 57.0736 39.099C56.5514 38.2179 55.9608 37.4025 55.3004 36.6595C55.2881 36.646 55.2757 36.6325 55.2654 36.6193C55.1353 36.4742 55.003 36.3286 54.8673 36.1888C52.5582 33.7724 49.5843 32.3134 45.8038 32.0582C39.8604 31.6586 31.2721 36.8829 31.2255 46.5424C31.2032 51.0395 32.4802 55.1578 34.8183 58.8708C38.1919 64.2246 41.7762 69.4468 45.3134 74.6962L45.2961 74.7774C46.9314 77.118 48.5824 79.4664 50.2633 81.8689C50.2633 81.8689 50.2683 81.8657 50.2709 81.8641C50.2709 81.8641 50.2741 81.8691 50.2758 81.8716C52.913 80.2868 55.4938 78.7422 58.057 77.1982L58.0761 77.1087C63.3239 73.829 68.5988 70.5855 73.7412 67.1462C77.3875 64.7054 80.227 61.4621 82.038 57.3451C85.9247 48.4997 80.2017 40.2334 74.6096 38.1811Z" stroke="#111111" stroke-width="3.95833" stroke-linejoin="round"/>
</g>
</svg>
