<svg width="549" height="25" viewBox="0 0 549 25" fill="none" xmlns="http://www.w3.org/2000/svg">
<g id="pink-underline.svg" clip-path="url(#clip0_2_1433)">
<path id="Vector" d="M9.43293 24.0571C25.8756 24.2119 42.3576 24.2021 58.8556 24.0095C68.8353 23.8911 78.7909 23.7255 88.7873 23.4433C103.165 23.0465 117.511 22.4203 131.881 21.7933C144.274 21.2546 156.669 20.7543 169.063 20.2348C178.987 19.8207 188.934 19.3963 198.858 18.9632C210.308 18.467 221.738 18.01 233.187 17.4659C259.497 16.2201 285.785 14.9846 312.096 13.7772C322.558 13.2964 332.999 12.8739 343.464 12.4602C351.076 12.1558 358.665 11.8522 366.278 11.5573C369.713 11.4181 373.151 11.3363 376.588 11.2354C384.966 10.9906 393.368 10.7546 401.747 10.5097C405.386 10.4017 409.047 10.2834 412.688 10.2329C424.802 10.0687 436.937 9.85573 449.076 9.74825C462.339 9.63027 475.62 9.41565 488.877 9.12512C500.426 8.87507 511.996 8.58589 523.539 8.14412C532.027 7.81868 540.558 7.42456 548.987 6.67889C543.405 6.51885 537.822 6.33005 532.241 6.20836C532.398 6.20286 532.556 6.21654 532.736 6.21985C520.447 5.90067 508.097 5.73722 495.772 5.65926C486.168 5.59179 476.565 5.56265 466.964 5.57187C470.533 5.37997 474.101 5.18807 477.669 4.98658C482.719 4.70454 487.768 4.40332 492.84 4.12048C499.281 3.7706 505.742 3.35283 512.183 2.99336C523.876 2.3352 535.542 1.57237 547.181 0.685699C535.35 0.590477 523.445 0.958534 511.584 1.27709C499.003 1.61118 486.404 2.04191 473.806 2.52057C461.836 2.96767 449.847 3.48266 437.881 4.0448C427.173 4.55339 416.465 5.0524 405.732 5.51385C397.066 5.8935 388.399 6.26357 379.71 6.64401C375.49 6.82991 371.247 7.03577 367.025 7.19292C352.832 7.71772 338.662 8.24173 324.468 8.75696C320.875 8.88253 317.283 9.03687 313.689 9.15287C307.444 9.34231 301.177 9.53253 294.933 9.72197C286.577 9.9756 278.221 10.2293 269.888 10.4917C266.855 10.5785 263.823 10.6844 260.79 10.7521C245.895 11.1191 230.999 11.4861 216.104 11.8531C204.264 12.1421 192.443 12.3344 180.623 12.5747C158.445 13.0139 136.243 13.4251 114.044 13.9225C102.315 14.1789 90.5659 14.4839 78.8411 14.8553C75.8089 14.9516 72.7991 15.0472 69.7672 15.1532C64.3995 15.3408 59.055 15.5467 53.6884 15.7631C49.5791 15.9259 45.494 16.1358 41.3837 16.2699C27.5713 16.743 13.8092 17.3679 0.0205383 17.8786C3.64542 18.0111 7.26997 18.1339 10.9153 18.2081C14.6059 18.2903 18.3182 18.3525 22.0085 18.4251C28.8486 18.5508 35.6874 18.6381 42.5259 18.7158C43.7856 18.7294 45.0668 18.7134 46.3261 18.7174C49.9688 18.7149 53.6111 18.7028 57.2531 18.6811C65.2792 18.6405 73.3043 18.5712 81.3505 18.4628C85.8681 18.4009 90.4071 18.3094 94.9229 18.1996C72.7679 19.3098 50.6474 20.7643 28.6264 22.4937C22.213 22.9962 15.7995 23.4986 9.40981 24.0387L9.43293 24.0571Z" fill="#FFB3DB"/>
</g>
<defs>
<clipPath id="clip0_2_1433">
<rect width="549" height="25" fill="white"/>
</clipPath>
</defs>
</svg>
