<svg width="115" height="115" viewBox="0 0 115 115" fill="none" xmlns="http://www.w3.org/2000/svg">
<g id="SVG">
<path id="Vector" d="M45.07 102.678C69.9614 109.348 95.5467 94.5762 102.216 69.6848C108.886 44.7933 94.1143 19.208 69.2229 12.5384C44.3314 5.86873 18.7461 20.6404 12.0765 45.5319C5.40685 70.4233 20.1785 96.0086 45.07 102.678Z" fill="#FFB3DB"/>
<path id="Vector_2" d="M65.2257 26.834C48.6579 22.3946 31.5674 32.2619 27.1281 48.8296C22.6888 65.3974 32.556 82.488 49.1238 86.9272C65.6916 91.3665 82.7821 81.4993 87.2214 64.9316C91.6608 48.3638 81.7935 31.2733 65.2257 26.834ZM50.1302 83.1715C35.6334 79.287 26.9995 64.3329 30.8839 49.836C34.7684 35.3392 49.7226 26.7054 64.2194 30.5898C78.7162 34.4742 87.3499 49.4284 83.4656 63.9252C79.5811 78.4221 64.627 87.0558 50.1302 83.1715ZM70.5498 70.2766C65.743 75.0828 58.9166 76.8921 52.289 75.1164C45.6612 73.3406 40.6536 68.3604 38.8938 61.7944C38.6159 60.7573 39.2312 59.6911 40.2683 59.4132C41.3056 59.1353 42.3716 59.7508 42.6494 60.7876C44.0454 65.9959 48.0252 69.9485 53.2952 71.3605C58.5651 72.7724 63.9876 71.3394 67.8004 67.5268C68.5596 66.7676 69.7907 66.7677 70.5498 67.527C71.309 68.2864 71.309 69.5173 70.5498 70.2766ZM43.0404 45.1609C43.5956 43.0891 45.7328 41.8552 47.8046 42.4104C49.8766 42.9655 51.1105 45.1027 50.5553 47.1746C50.0002 49.2465 47.863 50.4804 45.7911 49.9252C43.7191 49.3701 42.4852 47.2329 43.0404 45.1609ZM75.2754 53.7983C74.7202 55.8702 72.583 57.1042 70.5111 56.549C68.4392 55.9938 67.2052 53.8566 67.7605 51.7847C68.3157 49.7128 70.4528 48.4789 72.5247 49.034C74.5965 49.5893 75.8305 51.7265 75.2754 53.7983Z" fill="#0C0C0C"/>
</g>
</svg>
