<svg width="62" height="61" viewBox="0 0 62 61" fill="none" xmlns="http://www.w3.org/2000/svg">
<g id="Group">
<path id="Vector" d="M61.4798 26.1778L56.1181 12.8021C55.2735 10.6985 53.4625 9.09258 51.2749 8.50648L20.4386 0.243915C18.2511 -0.342291 15.8783 0.142641 14.0965 1.54237L2.76566 10.4439C0.181237 12.4736 -0.710706 15.9981 0.597412 19.0109L17.0628 56.9973C17.7706 58.6282 19.1587 59.8272 20.8752 60.2872C22.5918 60.747 24.3935 60.4028 25.8217 59.3443L59.0744 34.6798C61.7141 32.7233 62.7035 29.2265 61.4802 26.1764L61.4798 26.1778ZM58.7942 27.2545C58.9677 27.6861 59.0606 28.1335 59.0896 28.5787L46.0157 25.0756L53.3797 13.7853C53.3946 13.8192 53.4173 13.8463 53.4308 13.8798L58.7942 27.2545ZM21.77 56.9477L19.8149 21.0515L41.4128 26.8385L21.77 56.9477ZM21.4488 18.4928L34.8643 8.07943L41.2756 23.8054L21.4488 18.4928ZM51.3365 11.6257L44.0093 22.857L37.9285 7.92671L50.5258 11.3021C50.8095 11.3781 51.0779 11.495 51.3365 11.6257ZM32.2995 6.41836L19.5548 16.3075L18.8257 2.91441C19.115 2.93052 19.4059 2.96354 19.6895 3.03955L32.2995 6.41836ZM15.8836 3.81904C15.912 3.79669 15.9466 3.78501 15.9765 3.76307L16.7087 17.2228L3.63475 13.7196C3.88391 13.3489 4.18804 13.0079 4.55267 12.7206L15.8836 3.81904ZM3.25301 17.8617C3.06516 17.4278 2.95694 16.9763 2.91647 16.5235L16.8738 20.2634L18.68 53.4559L3.25301 17.8617ZM57.3492 32.3567L26.1906 55.4683L44.351 27.6259L58.3084 31.3657C58.047 31.7377 57.7288 32.0749 57.3492 32.3567Z" fill="black"/>
</g>
</svg>
