<svg width="111" height="111" viewBox="0 0 111 111" fill="none" xmlns="http://www.w3.org/2000/svg">
<g id="SVG">
<path id="Vector" d="M55.3688 111C85.9481 111 110.738 86.2106 110.738 55.6312C110.738 25.0519 85.9481 0.26249 55.3688 0.26249C24.7894 0.26249 0 25.0519 0 55.6312C0 86.2106 24.7894 111 55.3688 111Z" fill="#CAF291"/>
<path id="Vector_2" d="M70.1132 31.1086C86.1023 29.4681 91.6617 50.2728 88.8856 62.6184C83.5364 86.4068 58.4846 84.6582 54.4878 61.0038C52.6658 50.2197 57.198 32.4352 70.1132 31.1104V31.1086ZM58.8228 64.0846C61.0121 72.2189 69.1848 79.9038 77.7047 74.5109C88.9952 67.3636 89.0665 43.4743 77.8107 36.3015C69.1739 30.7967 61.0999 38.3915 58.8228 46.6525C64.9102 40.9789 72.6717 45.6029 73.9438 53.029C75.5026 62.1267 67.0612 71.1492 58.8228 64.0846ZM64.7604 46.1956C62.0301 46.1956 61.9789 50.3407 64.7604 50.3407C67.5419 50.3407 67.4908 46.1956 64.7604 46.1956Z" fill="black"/>
<path id="Vector_3" d="M50.7917 35.8909C58.959 44.2492 59.7705 59.8776 54.3592 69.8964C46.6835 84.1081 31.0362 82.3448 24.7476 68.0046C20.8203 59.0463 21.3265 47.4292 26.6556 39.1462C32.3904 30.2357 43.0266 27.9456 50.7917 35.8928V35.8909ZM26.917 64.085C29.2233 72.4452 37.8365 80.2345 46.3472 74.1462C57.0401 66.498 57.0565 44.207 46.3435 36.5938C40.2524 32.265 33.6934 34.9129 29.7642 40.6141C28.5014 42.4455 27.5712 44.5281 26.917 46.6529C33.5179 40.6637 41.5243 46.1924 42.2426 54.1085C43.043 62.9363 34.6638 70.8028 26.917 64.085ZM34.3513 46.7099C32.4324 45.0015 29.5504 47.7191 31.2939 49.6862C33.2054 51.8422 36.453 48.5816 34.3513 46.7099Z" fill="black"/>
</g>
</svg>
