<svg width="19" height="20" viewBox="0 0 19 20" fill="none" xmlns="http://www.w3.org/2000/svg">
<g id="SVG">
<path id="Vector" fill-rule="evenodd" clip-rule="evenodd" d="M18.1788 15.8197C18.41 15.212 18.5677 14.5172 18.613 13.4993C18.6583 12.4799 18.6692 12.1544 18.6692 9.55817C18.6692 6.96274 18.6583 6.63731 18.613 5.61784C18.5677 4.59998 18.41 3.90515 18.1788 3.29747C17.9407 2.669 17.6213 2.13567 17.1021 1.60396C16.5836 1.07303 16.0628 0.746007 15.449 0.501336C14.8548 0.265461 14.177 0.103945 13.1831 0.0575698C12.1875 0.0111941 11.8696 0 9.33427 0C6.79967 0 6.48109 0.0111941 5.48552 0.0575698C4.49229 0.103945 3.81374 0.265461 3.21952 0.501336C2.60656 0.746007 2.08575 1.07303 1.56648 1.60396C1.04801 2.13567 0.728645 2.669 0.489708 3.29747C0.25936 3.90515 0.101631 4.59998 0.0563425 5.61784C0.010273 6.63731 0.000122064 6.96274 0.000122064 9.55817C0.000122064 12.1544 0.010273 12.4799 0.0563425 13.4993C0.101631 14.5172 0.25936 15.212 0.489708 15.8197C0.728645 16.4482 1.04801 16.9814 1.56648 17.5124C2.08575 18.0441 2.60656 18.3712 3.21952 18.615C3.81374 18.8517 4.49229 19.0132 5.48552 19.0595C6.48109 19.1059 6.79967 19.1171 9.33427 19.1171C11.8696 19.1171 12.1875 19.1059 13.1831 19.0595C14.177 19.0132 14.8548 18.8517 15.449 18.615C16.0628 18.3712 16.5836 18.0441 17.1021 17.5124C17.6213 16.9814 17.9407 16.4482 18.1788 15.8197ZM16.932 13.4212C16.8907 14.3528 16.7384 14.8589 16.6103 15.1963C16.4416 15.6424 16.2386 15.9607 15.9122 16.2949C15.5858 16.63 15.2751 16.8371 14.8394 17.0105C14.5099 17.1408 14.0156 17.2967 13.1059 17.3391C12.1213 17.3855 11.8261 17.3951 9.33366 17.3951C6.84123 17.3951 6.54607 17.3855 5.56221 17.3391C4.65175 17.2967 4.15748 17.1408 3.82874 17.0105C3.39303 16.8371 3.08226 16.63 2.7551 16.2949C2.4287 15.9607 2.22646 15.6424 2.05702 15.1963C1.92897 14.8589 1.7767 14.3528 1.73532 13.4212C1.69081 12.413 1.68144 12.1107 1.68144 9.55845C1.68144 7.00619 1.69081 6.70395 1.73532 5.69648C1.7767 4.76417 1.92897 4.25804 2.05702 3.92142C2.22646 3.47525 2.4287 3.15702 2.7551 2.82279C3.08226 2.48776 3.39303 2.28068 3.82874 2.10717C4.15748 1.97604 4.65175 1.82092 5.56143 1.77854C6.54607 1.73217 6.84123 1.72257 9.33366 1.72257C11.8261 1.72257 12.1213 1.73217 13.1059 1.77854C14.0156 1.82092 14.5099 1.97604 14.8394 2.10717C15.2751 2.28068 15.5858 2.48776 15.9122 2.82279C16.2386 3.15702 16.4416 3.47525 16.6103 3.92142C16.7384 4.25804 16.8907 4.76417 16.932 5.69648C16.9765 6.70395 16.9867 7.00619 16.9867 9.55845C16.9867 12.1107 16.9765 12.413 16.932 13.4212ZM13.1968 4.45681C13.1968 3.82274 13.6988 3.3094 14.3172 3.3094C14.9357 3.3094 15.4369 3.82274 15.4369 4.45681C15.4369 5.09007 14.9357 5.6034 14.3172 5.6034C13.6988 5.6034 13.1968 5.09007 13.1968 4.45681ZM9.33419 4.65196C6.68715 4.65196 4.54063 6.85 4.54063 9.56058C4.54063 12.272 6.68715 14.4692 9.33419 14.4692C11.9812 14.4692 14.1278 12.272 14.1278 9.56058C14.1278 6.85 11.9812 4.65196 9.33419 4.65196ZM6.2226 9.55906C6.2226 11.3189 7.61562 12.7454 9.33424 12.7454C11.0529 12.7454 12.4459 11.3189 12.4459 9.55906C12.4459 7.79919 11.0529 6.37274 9.33424 6.37274C7.61562 6.37274 6.2226 7.79919 6.2226 9.55906Z" fill="white"/>
</g>
</svg>
