<svg width="5" height="7" viewBox="0 0 5 7" fill="none" xmlns="http://www.w3.org/2000/svg">
<path id="Vector" d="M0 6.8571V0H1.62535C2.27553 0 2.80182 0.171023 3.18875 0.513067C3.56033 0.855218 3.76153 1.32169 3.76153 1.91248C3.76153 2.30123 3.66866 2.65884 3.48292 2.93873C3.28173 3.23418 3.01858 3.4519 2.66246 3.59179C2.87923 3.73178 3.08042 3.93394 3.26616 4.18269C3.46746 4.43144 3.74607 4.86688 4.10208 5.48881C4.33431 5.87755 4.52004 6.15743 4.65939 6.35959L4.99994 6.8571H3.88543L3.60672 6.39062C3.59126 6.37506 3.57579 6.35959 3.54487 6.31289L3.37459 6.04858L3.08042 5.55097L2.7709 5.00677C2.58506 4.72688 2.39932 4.50916 2.24451 4.33814C2.0898 4.16712 1.93498 4.05825 1.81109 3.98053C1.6873 3.9028 1.47054 3.87167 1.16102 3.87167H0.928788V6.8571H0ZM1.20739 0.839657H0.928788V3.001H1.26934C1.74925 3.001 2.07423 2.95429 2.24451 2.861C2.41478 2.78327 2.55414 2.65884 2.64701 2.48782C2.75534 2.3168 2.80182 2.11465 2.80182 1.89692C2.80182 1.67931 2.73987 1.49272 2.63155 1.30613C2.52322 1.13511 2.3684 1.01068 2.18267 0.948514C1.98137 0.87068 1.65638 0.839657 1.20739 0.839657Z" fill="black"/>
</svg>
