<svg width="6" height="7" viewBox="0 0 6 7" fill="none" xmlns="http://www.w3.org/2000/svg">
<path id="Vector" d="M4.68754 0H5.64066V3.92375C5.64066 4.45734 5.59374 4.84973 5.5156 5.13225C5.45318 5.39904 5.35933 5.61882 5.24998 5.80716C5.14064 5.97979 5.01558 6.13681 4.85942 6.27801C4.34379 6.76458 3.6563 6.99995 2.82813 6.99995C1.96876 6.99995 1.28126 6.76457 0.765637 6.29372C0.609368 6.15241 0.484417 5.97979 0.375072 5.80716C0.265618 5.61882 0.171875 5.39905 0.109453 5.14796C0.0313183 4.88116 0 4.47305 0 3.90803V0H0.937511V3.92375C0.937511 4.56723 1.01565 5.02236 1.15631 5.27356C1.29687 5.54036 1.50006 5.74441 1.79688 5.88562C2.07811 6.04264 2.42186 6.12109 2.81253 6.12109C3.37497 6.12109 3.82818 5.96407 4.17192 5.66595C4.35941 5.49322 4.48436 5.30488 4.56249 5.08522C4.65623 4.84974 4.68754 4.47306 4.68754 3.92375V0Z" fill="black"/>
</svg>
