<svg width="6" height="7" viewBox="0 0 6 7" fill="none" xmlns="http://www.w3.org/2000/svg">
<path id="Vector" d="M5.8131 5.32746V6.4115C5.13451 6.79869 4.34761 7.00003 3.46938 7.00003C2.74514 7.00003 2.12814 6.8452 1.61947 6.53543C1.12566 6.22577 0.725315 5.80757 0.432217 5.26556C0.139121 4.73904 0 4.15051 0 3.53108C0 2.53986 0.323894 1.70357 1.00248 1.02223C1.66513 0.340779 2.4977 0 3.48425 0C4.16283 0 4.91893 0.185845 5.7515 0.57303V1.61065C4.99539 1.16156 4.25522 0.929316 3.53097 0.929316C2.7908 0.929316 2.1738 1.17706 1.68106 1.67267C1.20318 2.16818 0.955753 2.78772 0.955753 3.53108C0.955753 4.27444 1.18726 4.89387 1.66513 5.37398C2.15894 5.85398 2.77593 6.10184 3.51505 6.10184C4.30195 6.10184 5.07292 5.83858 5.8131 5.32746Z" fill="black"/>
</svg>
