<svg width="7" height="7" viewBox="0 0 7 7" fill="none" xmlns="http://www.w3.org/2000/svg">
<path id="Vector" d="M3.46831 0C4.45592 0 5.28849 0.325277 5.95115 0.991223C6.6138 1.65717 6.95362 2.49345 6.95362 3.50007C6.95362 4.50669 6.6138 5.34297 5.95115 6.00891C5.27256 6.65936 4.43999 7.00003 3.40672 7.00003C2.4361 7.00003 1.63434 6.65936 0.986548 6.00891C0.323894 5.34297 0 4.52219 0 3.53108C0 2.50896 0.338762 1.65717 0.986548 0.991223C1.63434 0.325277 2.4669 0 3.46831 0ZM3.50018 0.929316C2.76 0.929316 2.15787 1.16156 1.68 1.65717C1.20212 2.13717 0.955753 2.77221 0.955753 3.53108C0.955753 4.25894 1.20212 4.87837 1.68 5.35848C2.15787 5.85409 2.76 6.10184 3.46831 6.10184C4.19362 6.10184 4.79469 5.83858 5.27256 5.34297C5.76637 4.84736 5.99681 4.22793 5.99681 3.48457C5.99681 2.75671 5.76637 2.15267 5.27256 1.65717C4.79469 1.17706 4.2085 0.929316 3.50018 0.929316Z" fill="black"/>
</svg>
