<svg width="3" height="4" viewBox="0 0 3 4" fill="none" xmlns="http://www.w3.org/2000/svg">
<g id="Group">
<path id="Vector" d="M0.343027 2.75841C0.410824 3.44852 0.823674 3.65595 1.44093 3.65595C2.128 3.65595 2.40222 3.3109 2.40222 2.89704C2.40222 1.72426 0.136607 2.48318 0.136607 1.03517C0.136607 0.482674 0.548439 0 1.37212 0C2.19681 0 2.60864 0.482674 2.60864 1.10397H2.26562C2.26562 0.551483 1.85276 0.275237 1.37212 0.275237C0.686056 0.275237 0.411837 0.6891 0.480646 1.10397C0.617251 2.13812 2.74525 1.44801 2.74525 2.89704C2.74525 3.58715 2.26561 4 1.37212 4C0.617247 4 0 3.58715 0 2.75841H0.343027Z" fill="black"/>
</g>
</svg>
