<svg width="37" height="11" viewBox="0 0 37 11" fill="none" xmlns="http://www.w3.org/2000/svg">
<path id="Vector" d="M1.15478 4.02431V1.16038C1.15478 0.682759 1.01869 0.478319 0.611412 0.410173C0.47532 0.410173 0.272185 0.341325 0.136093 0.341325C0.0690481 0.341325 0 0.341327 0 0.273881C0 0.205035 0.0680482 0.136887 0.20414 0.136887C0.815551 0.136887 1.6301 0.205033 1.76519 0.205033C1.90128 0.205033 2.71583 0.13759 3.05506 0.13759C3.19115 0.13759 3.2592 0.137588 3.2592 0.273179C3.2592 0.341325 3.19115 0.341325 3.1231 0.341325C3.05606 0.341325 2.91996 0.341327 2.78387 0.410173C2.44464 0.477618 2.30855 0.682759 2.30855 1.16038V5.93489C2.30855 7.84418 2.71582 8.66313 3.32724 9.2089C4.00569 9.82291 4.54906 9.9592 5.36361 9.9592C6.17816 9.9592 6.9927 9.55033 7.46802 9.00446C8.07843 8.25365 8.21553 7.09397 8.21553 5.72985V1.16038C8.21553 0.682759 8.07844 0.478319 7.67116 0.410173C7.53607 0.410173 7.33194 0.341325 7.19685 0.341325C7.1288 0.341325 7.06075 0.341327 7.06075 0.273881C7.06075 0.205035 7.1278 0.136887 7.26489 0.136887C7.8753 0.136887 8.6218 0.205033 8.69085 0.205033C8.75789 0.205033 9.43735 0.13759 9.84362 0.13759C9.98072 0.13759 10.0478 0.137588 10.0478 0.273179C10.0478 0.341325 9.98072 0.341325 9.91167 0.341325C9.84462 0.341325 9.70854 0.341327 9.57244 0.410173C9.23322 0.477618 9.09713 0.682759 9.09713 1.16038V5.45787C9.09713 6.89013 8.96203 8.52744 7.8753 9.48218C6.92566 10.3693 5.90697 10.5056 5.09242 10.5056C4.6171 10.5056 3.25919 10.4374 2.30855 9.55033C1.6301 8.93631 1.15478 7.98167 1.15478 6.00364V4.02431ZM16.0898 5.798H13.5101C13.443 5.798 13.443 5.798 13.443 5.73046L14.5968 2.11442C14.6639 1.90998 14.7319 1.90998 14.8 2.11442L16.0898 5.73046C16.1579 5.798 16.1579 5.798 16.0898 5.798ZM20.0955 10.0955C19.9594 10.0955 19.7553 10.0955 19.5522 10.0279C19.281 9.9592 18.8737 9.75476 18.3984 8.52683C17.5838 6.48066 15.4784 0.955338 15.2763 0.477616C15.1392 0.0675404 15.0711 0 15.0031 0C14.9361 0 14.867 0.0681408 14.7319 0.545762L11.6769 8.86756C11.4057 9.55032 11.2015 10.0279 10.5221 10.0955H10.1158C10.0478 10.0955 9.97972 10.0955 9.97972 10.1636C9.97972 10.2324 10.0468 10.3005 10.2509 10.3005C10.8623 10.3005 11.6088 10.2324 11.7439 10.2324C11.881 10.2324 12.4914 10.2999 12.7626 10.2999C12.8987 10.2999 12.9667 10.2999 12.9667 10.1636C12.9667 10.0961 12.8987 10.0961 12.8306 10.0961H12.6955C12.4924 10.0961 12.2202 9.9592 12.2202 9.68662C12.2202 9.41334 12.2883 9.14015 12.4244 8.79942L13.2389 6.41192C13.2389 6.34437 13.307 6.27562 13.374 6.27562H16.2259C16.293 6.27562 16.293 6.27562 16.362 6.34377L17.5838 9.61847C17.6519 9.82291 17.5838 9.9592 17.5158 9.9592C17.4477 9.9592 17.4477 10.0273 17.4477 10.0273C17.4477 10.0955 17.5838 10.0955 17.855 10.0955H19.9594C20.0955 10.0955 20.2316 10.0955 20.2316 9.9592C20.2316 10.0955 20.1636 10.0955 20.0955 10.0955ZM25.7303 5.32098C25.4231 5.5056 25.0699 5.59997 24.7126 5.59356C24.1012 5.59356 23.4898 5.52542 23.2857 5.38913C23.2186 5.32098 23.2186 5.32098 23.2186 5.25213V0.887194C23.2186 0.818347 23.2857 0.7502 23.3537 0.7502C23.4898 0.682754 23.829 0.682756 24.2373 0.682756C25.6623 0.682756 26.5449 1.70554 26.5449 3.34225C26.5449 4.22934 26.2056 4.97955 25.7303 5.32098ZM30.9578 10.0955C30.8898 10.0955 30.6856 10.0955 30.4145 10.0279C30.0752 9.9592 29.5319 9.82291 28.7854 9.0726C28.0389 8.25365 27.0882 7.02583 26.0025 5.66171C27.2243 4.57007 27.6306 3.54728 27.6306 2.59204C27.6306 1.6374 27.0202 1.02348 26.681 0.7502C26.0025 0.272578 25.0509 0.136292 24.2373 0.136292C23.829 0.136292 22.8104 0.204438 22.6753 0.204438C22.6082 0.204438 21.7927 0.136887 21.1823 0.136887C21.0462 0.136887 20.9781 0.136892 20.9781 0.272583C20.9781 0.340729 21.0462 0.340729 21.1142 0.340729C21.2493 0.340729 21.4534 0.340724 21.5885 0.409471C21.9968 0.477016 22.1329 0.750202 22.1329 1.15978V6.41251C22.1329 7.70788 22.1329 8.73127 22.0639 9.34519C21.9968 9.75476 21.9288 10.0273 21.6576 10.0955C21.5205 10.0955 21.3854 10.1636 21.2493 10.1636C21.1823 10.1636 21.1142 10.2324 21.1142 10.2324C21.1142 10.2999 21.1813 10.3687 21.3173 10.3687C21.7246 10.3687 22.5392 10.3005 22.5392 10.3005C22.6072 10.3005 23.4218 10.3681 24.1693 10.3681C24.3044 10.3681 24.3724 10.3005 24.3724 10.2324C24.3724 10.1636 24.3724 10.1636 24.2373 10.1636C24.1012 10.1636 23.829 10.1636 23.6259 10.0961C23.2186 10.0273 23.1506 9.75476 23.0825 9.34519C23.0145 8.79942 23.0145 7.70849 23.0145 6.41192V6.07119C23.0145 6.00304 23.0145 5.93489 23.0825 5.93489H24.7126C24.7797 5.93489 24.8477 5.93489 24.9158 6.00244C25.187 6.34377 25.7984 7.23027 26.3407 7.98107C27.0882 9.00446 27.5635 9.61847 28.174 9.9592C28.5142 10.1642 28.8534 10.2324 29.5999 10.2324H30.7537C31.0259 10.2324 31.0939 10.2324 31.0939 10.0955H30.9578ZM32.2477 4.02431V1.16038C32.2477 0.682759 32.1116 0.478319 31.7043 0.410173C31.5692 0.410173 31.3651 0.342027 31.229 0.342027C31.162 0.342027 31.0939 0.342025 31.0939 0.273179C31.0939 0.205733 31.161 0.136887 31.2981 0.136887H35.8461C36.1173 0.136887 36.3215 0.0694437 36.3895 0.0694437C36.4565 0.0694437 36.5246 0.000595494 36.5926 0.000595494C36.6607 0.000595494 36.6607 0.0687413 36.6607 0.136887C36.6607 0.205033 36.5926 0.410173 36.5246 0.750902C36.5246 0.887194 36.4565 1.5011 36.4565 1.638C36.4565 1.70554 36.3895 1.77429 36.3895 1.77429C36.3215 1.77429 36.2534 1.70614 36.2534 1.56985C36.2534 1.5011 36.2534 1.22853 36.1853 1.09223C36.1173 0.887196 35.9812 0.682756 35.2347 0.61461C35.0316 0.61461 33.5376 0.546465 33.4015 0.546465C33.3344 0.546465 33.3344 0.61461 33.3344 0.682756V4.36624C33.3344 4.43438 33.3344 4.50253 33.4015 4.50253H35.5059C35.8461 4.50253 36.0493 4.43508 36.1173 4.29809C36.1854 4.1618 36.2534 4.09365 36.3214 4.09365C36.3895 4.09365 36.3895 4.09365 36.3895 4.22994C36.3895 4.29809 36.3215 4.57067 36.2534 4.98025C36.2534 5.25283 36.1853 5.73045 36.1853 5.86734C36.1853 6.00364 36.1854 6.13993 36.1173 6.13993C36.0493 6.13993 36.0493 6.07178 36.0493 6.00364C36.0493 5.86674 36.0493 5.73046 35.9812 5.59417C35.9142 5.38973 35.7781 5.18469 35.3028 5.11654C34.9635 5.049 33.6056 5.04899 33.4015 5.04899C33.3344 5.04899 33.3344 5.11654 33.3344 5.11654V8.59498C33.4015 9.55032 33.6056 9.68662 34.8955 9.68662C35.2347 9.68662 35.8461 9.68662 36.1853 9.55033C36.5246 9.41334 36.6607 9.14075 36.7958 8.59498C36.7958 8.45869 36.8648 8.39054 36.9319 8.39054C36.9999 8.39054 36.9999 8.52683 36.9999 8.59498C36.9999 8.73127 36.8648 9.61847 36.7958 9.89106C36.7287 10.2324 36.5926 10.2324 36.0493 10.2324C35.0316 10.2324 34.2841 10.2324 33.8098 10.1636C33.2654 10.1636 32.9942 10.0961 32.7911 10.0961H31.5012C31.3651 10.0961 31.2971 10.0961 31.2971 9.9592C31.2971 9.89166 31.2971 9.89165 31.4332 9.89165C31.5692 9.89165 31.7043 9.89166 31.8404 9.82291C32.1116 9.75476 32.1797 9.48148 32.2477 9.0726C32.3157 8.52624 32.3158 7.4353 32.3158 6.13933V4.02431H32.2477Z" fill="black"/>
</svg>
