<svg width="36" height="29" viewBox="0 0 36 29" fill="none" xmlns="http://www.w3.org/2000/svg">
<g id="Group">
<path id="Vector" d="M16.8559 4.59982C16.3702 5.2967 14.2201 8.43311 13.5269 15.4027C13.2488 18.679 13.1097 20.8394 13.0412 22.2338C12.2774 22.3028 11.5147 22.3028 10.752 22.3724C10.891 20.2817 11.0986 17.5637 11.7233 14.6362C13.2488 7.94511 16.6483 4.66944 16.8559 4.59982ZM6.93647 22.8604C6.24285 22.9301 5.54934 22.9997 4.85573 23.1396C4.99437 20.2817 5.48002 17.5631 7.00579 14.0089C10.1968 6.4816 15.538 4.25168 15.538 4.25168C15.538 4.25168 12.0699 5.78471 9.22549 13.0335C7.76955 16.5877 7.14505 20.0025 6.93647 22.8604ZM20.6021 4.25168C20.6021 4.25168 25.9433 6.4816 29.0647 13.9393C30.5912 17.4941 31.0063 20.212 31.2149 23.0699C30.5217 23.0003 29.8275 22.9301 29.1343 22.7908C28.8787 19.446 28.1302 16.1578 26.9146 13.0335C24.0712 5.78471 20.6021 4.25168 20.6021 4.25168ZM22.5447 15.4027C21.92 8.43373 19.7698 5.22708 19.2146 4.59982C19.3537 4.73907 22.7533 7.94511 24.2777 14.6362C24.9024 17.5637 25.1805 20.2817 25.249 22.3724C24.4863 22.3034 23.7236 22.3034 22.9608 22.2332C23.0293 20.8394 22.8913 18.679 22.5447 15.4027ZM18.0348 4.87894C18.2433 5.57521 19.2146 9.54838 19.5612 12.1272C20.1849 16.8668 19.9079 22.1635 19.9079 22.1635H16.1627C16.1627 22.1635 15.9541 16.8668 16.5093 12.1272C16.9254 9.54899 17.8262 5.57583 18.0348 4.87894ZM0 28.5755C3.39928 27.321 10.1273 26.4848 17.8272 26.4848C25.7347 26.4848 32.6013 27.3906 35.9999 28.7154V0H0.000608441L0 28.5755Z" fill="black"/>
</g>
</svg>
