<svg width="57" height="14" viewBox="0 0 57 14" fill="none" xmlns="http://www.w3.org/2000/svg">
<path id="Vector" fill-rule="evenodd" clip-rule="evenodd" d="M42.282 1.2516C43.314 1.2516 44.204 2.0397 44.204 3.1986C44.251 4.3112 43.36 5.1456 42.282 5.1456C41.204 5.1456 40.36 4.3112 40.36 3.1986C40.36 2.086 41.204 1.2516 42.282 1.2516ZM42.282 0C40.454 0 39.048 1.3907 39.048 3.1986C39.048 4.9602 40.407 6.3509 42.282 6.3509C44.11 6.3509 45.517 4.9602 45.517 3.1986C45.517 1.437 44.11 0 42.282 0ZM24.985 2.9201H25.969C26.672 2.9201 26.954 2.5029 26.954 2.0856C26.954 1.6221 26.672 1.2512 26.11 1.2512H24.985V2.9201ZM25.688 4.0326H24.938V6.2578H23.672V0.0923004H26.063C27.516 0.0923004 28.172 1.0194 28.172 2.0393C28.172 2.781 27.797 3.5227 26.907 3.8472L28.407 6.2578H26.954L25.688 4.0326ZM1.359 0.1381H0L2.063 6.2572H3.094L4.406 2.2241L5.719 6.2572H6.797L8.859 0.1381H7.5L6.234 4.2638L4.828 0.1381H4.031L2.625 4.2638L1.359 0.1381ZM11.672 3.8466H10.219L10.969 1.8069L11.672 3.8466ZM9.891 4.9592H12.047L12.563 6.3035H13.875L11.531 0.1381H10.5L8.109 6.3035H9.422L9.891 4.9592ZM13.077 1.297V0.1381H17.905V1.297H16.124V6.2572H14.858V1.297H13.077ZM22.734 0.1381H18.562V6.2572H22.734V5.1446H19.781V3.7539H22.546V2.595H19.781V1.2506H22.734V0.1381ZM33.329 0.1381H29.203V6.2572H30.422V3.8466H33V2.6877H30.422V1.297H33.329V0.1381ZM35.249 2.9201H36.233C36.936 2.9201 37.218 2.5029 37.218 2.0856C37.218 1.6221 36.936 1.2512 36.374 1.2512H35.249V2.9201ZM35.952 4.0326H35.202V6.2578H33.936V0.0923004H36.327C37.78 0.0923004 38.436 1.0194 38.436 2.0393C38.436 2.781 38.061 3.5227 37.171 3.8472L38.671 6.2578H37.218L35.952 4.0326ZM51.61 0.1381V6.2572H50.766L47.578 2.5023V6.2572H46.313V0.1381H47.11L50.391 3.9393V0.1381H51.61ZM52.219 1.297V0.1381H57V1.297H55.219V6.2572H53.953V1.297H52.219ZM0.608002 7.8809H1.874V10.2914H4.499V7.8809H5.718V14H4.499V11.4967H1.874V14H0.608002V7.8809ZM9.938 11.5893H8.484L9.234 9.5496L9.938 11.5893ZM8.109 12.6555H10.266L10.781 13.9999H12.094L9.75 7.8344H8.719L6.328 13.9999H7.641L8.109 12.6555ZM12.656 7.8809H13.922V12.841H17.062V14H12.656V7.8809ZM18.983 7.8809H17.718V14H22.124V12.841H18.983V7.8809Z" fill="black"/>
</svg>
