<svg width="118" height="20" viewBox="0 0 118 20" fill="none" xmlns="http://www.w3.org/2000/svg">
<path id="Vector" fill-rule="evenodd" clip-rule="evenodd" d="M64.6878 5.21043H70.6177C70.9241 5.21043 71.1953 5.04822 71.2598 4.75022C71.2709 4.71342 71.274 4.67108 71.274 4.62491C71.274 2.10992 69.9785 0 67.4138 0C64.9167 0 63.0597 1.90537 63.0597 4.85466C63.0597 7.60323 64.9499 9.70962 67.7072 9.70962C69.1105 9.70962 70.1489 9.10192 70.6711 8.71933C70.9766 8.4927 71.0169 8.22414 70.8445 7.91364L70.6893 7.63932C70.5118 7.32307 70.1731 7.23224 69.9079 7.43719C69.5087 7.74881 68.7637 8.1702 67.81 8.1702C66.2928 8.1702 64.8239 7.21016 64.6878 5.21043ZM8.94718 9.11633C8.94718 9.4097 9.09114 9.55559 9.38249 9.55559H9.80399C10.0949 9.55559 10.2397 9.4097 10.2397 9.11633V5.42436H15.0773V9.11633C15.0773 9.4097 15.2355 9.55559 15.5122 9.55559H15.948C16.2232 9.55559 16.3699 9.4097 16.3699 9.11633V0.586026C16.3699 0.293466 16.2232 0.147183 15.948 0.147183H15.5122C15.2355 0.147183 15.0773 0.293466 15.0773 0.586026V4.29162H10.2397V0.586026C10.2397 0.293466 10.0949 0.147183 9.80399 0.147183H9.38249C9.09114 0.147183 8.94718 0.293466 8.94718 0.586026V9.11633ZM19.1806 9.55579C18.8919 9.55579 18.7449 9.40981 18.7449 9.11644V0.586126C18.7449 0.293566 18.8919 0.147283 19.1806 0.147283H23.7161C24.0052 0.147283 24.1503 0.293566 24.1503 0.586126V0.853181C24.1503 1.13334 24.0052 1.29323 23.7161 1.29323H20.037V4.23818H22.9514C23.2275 4.23818 23.3868 4.38487 23.3868 4.67864V4.94519C23.3868 5.23856 23.2275 5.38564 22.9514 5.38564H20.037V8.40984H23.9396C24.2295 8.40984 24.376 8.55763 24.376 8.851V9.11644C24.376 9.40981 24.2295 9.55579 23.9396 9.55579H19.1806ZM76.2168 9.02894C76.11 9.33511 76.2441 9.53461 76.5717 9.53461H77.0183C77.2552 9.53461 77.4276 9.41626 77.4921 9.17683L78.3077 6.83443H81.8059L82.6346 9.17683C82.7122 9.41626 82.8705 9.53461 83.1226 9.53461H83.5681C83.8847 9.53461 84.0289 9.33511 83.924 9.02894L80.8724 0.506081C80.7938 0.255359 80.6224 0.147891 80.3845 0.147891H79.7534C79.5044 0.147891 79.3461 0.255359 79.2675 0.506081L76.2168 9.02894ZM85.3334 9.09456C85.3334 9.38904 85.4775 9.53461 85.7679 9.53461H86.1883C86.4756 9.53461 86.6218 9.38904 86.6218 9.09456V5.79837H88.6088L90.4224 9.23076C90.5283 9.44217 90.6876 9.53461 90.9366 9.53461H91.4608C91.7915 9.53461 91.9225 9.32119 91.7512 9.01653L90.0827 5.89223C89.9244 5.60007 89.8055 5.4673 89.8055 5.4673V5.43978C90.8307 5.09439 91.4608 4.05561 91.4608 2.85956C91.4608 1.66241 90.8832 0.799047 90.002 0.400532C89.62 0.227435 89.1734 0.147891 88.2681 0.147891H85.7679C85.4775 0.147891 85.3334 0.294174 85.3334 0.586734V9.09456ZM109.592 9.02894C109.488 9.33511 109.62 9.53461 109.947 9.53461H110.394C110.633 9.53461 110.804 9.41626 110.869 9.17683L111.684 6.83443H115.183L116.012 9.17683C116.091 9.41626 116.249 9.53461 116.499 9.53461H116.946C117.261 9.53461 117.405 9.33511 117.301 9.02894L114.251 0.506081C114.17 0.255359 114.001 0.147891 113.763 0.147891H113.132C112.881 0.147891 112.723 0.255359 112.644 0.506081L109.592 9.02894ZM113.064 2.7653L112.025 5.74404H114.839L113.814 2.7653C113.656 2.28725 113.458 1.43427 113.458 1.43427H113.432C113.432 1.43427 113.222 2.28725 113.064 2.7653ZM110.601 19.3759C110.802 19.5443 111.314 19.8951 112.028 19.8951C112.956 19.8951 113.512 19.2993 113.512 18.5432C113.512 17.6943 112.814 17.3919 112.167 17.1106C111.607 16.8681 111.086 16.6417 111.086 16.0928C111.086 15.5751 111.551 15.2675 112.104 15.2675C112.548 15.2675 112.867 15.4618 113.04 15.5814C113.131 15.6376 113.22 15.6376 113.283 15.5325L113.344 15.4204C113.4 15.33 113.387 15.2523 113.303 15.1898C113.123 15.049 112.701 14.8037 112.118 14.8037C111.267 14.8037 110.594 15.3155 110.594 16.12C110.594 16.9231 111.266 17.2225 111.902 17.5068C112.474 17.7619 113.019 18.0058 113.019 18.5926C113.019 19.1037 112.61 19.4324 112.028 19.4324C111.482 19.4324 111.072 19.1461 110.907 19.0059C110.81 18.9354 110.733 18.9424 110.664 19.0271L110.581 19.1309C110.512 19.2297 110.533 19.3073 110.601 19.3759ZM115.769 19.635C115.769 19.7479 115.831 19.8104 115.942 19.8104H116.081C116.191 19.8104 116.247 19.7479 116.247 19.635V15.3216H117.828C117.937 15.3216 118 15.2588 118 15.1466V15.0628C118 14.951 117.937 14.8882 117.828 14.8882H114.196C114.086 14.8882 114.023 14.951 114.023 15.0628V15.1466C114.023 15.2588 114.086 15.3216 114.196 15.3216H115.769V19.635ZM107.756 16.0361L107.106 17.8224H108.783L108.137 16.0361C108.062 15.8052 107.958 15.3923 107.958 15.3923H107.944C107.944 15.3923 107.833 15.8052 107.756 16.0361ZM105.979 19.6078C105.944 19.7328 105.992 19.8104 106.124 19.8104H106.269C106.366 19.8104 106.436 19.7681 106.464 19.6703L106.976 18.2418H108.93L109.449 19.6703C109.477 19.7681 109.545 19.8104 109.643 19.8104H109.796C109.92 19.8104 109.969 19.7328 109.935 19.6078L108.257 15.0272C108.229 14.9298 108.161 14.8883 108.07 14.8883H107.842C107.751 14.8883 107.683 14.9298 107.654 15.0272L105.979 19.6078ZM103.356 19.8104C103.245 19.8104 103.189 19.7479 103.189 19.635V15.0628C103.189 14.951 103.245 14.8882 103.356 14.8882H105.58C105.692 14.8882 105.753 14.951 105.753 15.0628V15.1466C105.753 15.2588 105.692 15.3216 105.58 15.3216H103.667V17.1711H105.288C105.399 17.1711 105.455 17.2266 105.455 17.3385V17.4292C105.455 17.5421 105.399 17.6046 105.288 17.6046H103.667V19.635C103.667 19.7479 103.606 19.8104 103.502 19.8104H103.356ZM99.5944 19.635C99.5944 19.7479 99.6499 19.8104 99.7608 19.8104H102.156C102.268 19.8104 102.331 19.7479 102.331 19.635V19.5513C102.331 19.4394 102.268 19.3759 102.156 19.3759H100.072V15.0629C100.072 14.9511 100.01 14.8883 99.9069 14.8883H99.7608C99.6499 14.8883 99.5944 14.9511 99.5944 15.0629V19.635ZM95.8039 19.8104C95.692 19.8104 95.6365 19.7479 95.6365 19.635V15.0628C95.6365 14.951 95.692 14.8882 95.8039 14.8882H98.2052C98.3171 14.8882 98.3796 14.951 98.3796 15.0628V15.1466C98.3796 15.2588 98.3171 15.3216 98.2052 15.3216H96.1144V17.1147H97.7909C97.9028 17.1147 97.9643 17.1711 97.9643 17.282V17.3738C97.9643 17.4846 97.9028 17.5492 97.7909 17.5492H96.1144V19.3759H98.3312C98.4421 19.3759 98.5036 19.4394 98.5036 19.5513V19.635C98.5036 19.7479 98.4421 19.8104 98.3312 19.8104H95.8039ZM91.7421 19.3759V17.4443H92.9831C93.5497 17.4443 93.9449 17.8284 93.9449 18.4162C93.9449 19.0049 93.5769 19.3759 92.9891 19.3759H91.7421ZM91.7421 15.3224V17.0248H92.9266C93.4176 17.0248 93.7513 16.6744 93.7513 16.163C93.7513 15.6592 93.4398 15.3224 92.9206 15.3224H91.7421ZM91.2592 19.635C91.2592 19.7479 91.3167 19.8104 91.4265 19.8104H92.9791C93.7956 19.8104 94.4399 19.3063 94.4399 18.4313C94.4399 17.8355 94.1223 17.3536 93.6212 17.2135V17.1983C93.9963 17.01 94.2453 16.6379 94.2453 16.1272C94.2453 15.3562 93.6918 14.8882 92.9226 14.8882H91.4265C91.3167 14.8882 91.2592 14.951 91.2592 15.0628V19.635ZM101.181 9.53461C100.893 9.53461 100.747 9.38904 100.747 9.09456V0.586734C100.747 0.294174 100.893 0.147891 101.181 0.147891H101.679C101.93 0.147891 102.076 0.227435 102.205 0.44005L106.165 6.25042C106.494 6.7561 106.928 7.60666 106.928 7.60666H106.954C106.954 7.60666 106.876 6.76971 106.876 6.25042V0.586734C106.876 0.294174 107.033 0.147891 107.309 0.147891H107.73C108.02 0.147891 108.164 0.294174 108.164 0.586734V9.09456C108.164 9.38904 108.02 9.53461 107.73 9.53461H107.23C106.993 9.53461 106.837 9.45467 106.718 9.24276L102.746 3.44398C102.416 2.92832 101.983 2.07454 101.983 2.07454H101.954C101.954 2.07454 102.036 2.91239 102.036 3.44398V9.09456C102.036 9.38904 101.89 9.53461 101.604 9.53461H101.181ZM93.4489 9.09456C93.4489 9.38904 93.593 9.53461 93.8834 9.53461H98.6296C98.921 9.53461 99.0652 9.38904 99.0652 9.09456V8.82952C99.0652 8.53726 98.921 8.39179 98.6296 8.39179H94.7383V5.37385H97.6447C97.9209 5.37385 98.0792 5.22757 98.0792 4.9334V4.66906C98.0792 4.37499 97.9209 4.22871 97.6447 4.22871H94.7383V1.29112H98.4058C98.6982 1.29112 98.8393 1.13163 98.8393 0.851066V0.586734C98.8393 0.294174 98.6982 0.147891 98.4058 0.147891H93.8834C93.593 0.147891 93.4489 0.294174 93.4489 0.586734V9.09456ZM86.6248 1.29132V4.65384H88.4929C89.506 4.65384 90.1502 3.96388 90.1502 2.91259C90.1502 2.23463 89.8599 1.70344 89.2812 1.45121C89.0443 1.34323 88.7701 1.29132 88.1773 1.29132H86.6248ZM79.6939 2.7653L78.6555 5.74404H81.4702L80.445 2.7653C80.2857 2.28725 80.0901 1.43427 80.0901 1.43427H80.0639C80.0639 1.43427 79.8522 2.28725 79.6939 2.7653ZM3.62645 9.55579C3.34932 9.55579 3.20304 9.40981 3.20304 9.11644V1.29323H0.434505C0.14507 1.29323 0 1.13334 0 0.853181V0.586126C0 0.293566 0.14507 0.147283 0.434505 0.147283H7.2649C7.54244 0.147283 7.68711 0.293566 7.68711 0.586126V0.853181C7.68711 1.13334 7.54244 1.29323 7.2649 1.29323H4.49597V9.11644C4.49597 9.40981 4.33739 9.55579 4.06136 9.55579H3.62645ZM64.7524 3.86366H69.7416C69.7416 2.84858 69.0208 1.39183 67.3836 1.39183C66.1002 1.39183 64.9046 2.29441 64.7524 3.86366ZM57.4091 2.63646C57.4091 1.84911 58.0785 1.46421 58.9495 1.46421C59.8186 1.46421 60.4305 1.78318 60.8156 1.99701C61.1241 2.16657 61.4064 2.12776 61.613 1.79407L61.7764 1.52046C61.9659 1.19483 61.9044 0.921633 61.5767 0.714058C61.1422 0.437729 60.3085 0 59.0403 0C57.2448 0 55.7235 0.915076 55.7235 2.67528C55.7235 4.45402 57.2498 5.02766 58.5685 5.52345C59.5716 5.9007 60.4547 6.23278 60.4547 7.01609C60.4547 7.80546 59.8014 8.2439 58.8951 8.2439C57.8255 8.2439 57.0653 7.76584 56.647 7.49304C56.3334 7.28617 56.0461 7.30059 55.8132 7.61996L55.6328 7.87724C55.4312 8.17988 55.4564 8.47406 55.7598 8.703C56.2689 9.08408 57.3174 9.70962 58.8407 9.70962C60.8156 9.70962 62.1373 8.55632 62.1373 6.98081C62.1373 5.19591 60.622 4.63287 59.3074 4.14443C58.2993 3.77011 57.4091 3.43954 57.4091 2.63646ZM51.2777 9.70962C53.2526 9.70962 54.5763 8.55632 54.5763 6.98081C54.5763 5.19591 53.06 4.63287 51.7454 4.14443C50.7373 3.77011 49.8471 3.43954 49.8471 2.63646C49.8471 1.84911 50.5175 1.46421 51.3875 1.46421C52.2576 1.46421 52.8705 1.78318 53.2526 1.99701C53.5641 2.16657 53.8434 2.12776 54.052 1.79407L54.2143 1.52046C54.4049 1.19483 54.3444 0.921633 54.0157 0.714058C53.5802 0.437729 52.7465 0 51.4783 0C49.6828 0 48.1615 0.915076 48.1615 2.67528C48.1615 4.45402 49.6868 5.02766 51.0045 5.52345C52.0075 5.9007 52.8907 6.23278 52.8907 7.01609C52.8907 7.80546 52.2404 8.2439 51.3331 8.2439C50.2625 8.2439 49.5023 7.76584 49.084 7.49304C48.7714 7.28617 48.4841 7.30059 48.2523 7.61996L48.0702 7.87724C47.8675 8.17988 47.8937 8.47406 48.1968 8.703C48.7069 9.08408 49.7554 9.70962 51.2777 9.70962Z" fill="black"/>
</svg>
