<svg width="80" height="69" viewBox="0 0 80 69" fill="none" xmlns="http://www.w3.org/2000/svg">
<g id="Group">
<path id="Vector" d="M38.5483 43.2315L38.4191 43.269V43.7077H44.3145V24.3955H38.4191V24.8318L38.5433 24.8717C39.2774 25.1109 39.6669 26.3588 39.6669 28.477V39.6262C39.6669 41.7678 39.2794 43.0134 38.5483 43.2292V43.2315Z" fill="black"/>
<path id="Vector_2" d="M52.0866 30.1225L52.1577 30.3054L52.5373 30.1154L52.2959 24.4899H45.4662V25.0318L46.69 25.1631C47.9678 25.318 49.0443 25.7942 49.8875 26.5777C50.7417 27.3684 51.4798 28.5624 52.0846 30.1225H52.0866Z" fill="black"/>
<path id="Vector_3" d="M45.4682 43.7075H53.0379L53.6267 38.157L53.6408 38.0326L53.2652 37.845L53.1861 38.0068C52.4971 39.4097 51.5969 40.5898 50.5113 41.5094C49.4348 42.4219 48.3282 42.9239 47.2197 43.006L45.4682 43.1609V43.7075Z" fill="black"/>
<path id="Vector_4" d="M66.1464 35.9629L65.6476 37.1101L71.3617 37.2368L72.244 39.6106C72.4573 40.1759 72.5955 40.6849 72.6566 41.1212C72.7146 41.5434 72.7056 41.8976 72.6305 42.1744C72.5574 42.4418 72.4403 42.6576 72.281 42.8148C72.1218 42.9743 71.9105 43.0915 71.6571 43.1643L71.4799 43.2159V43.7742H79.9228V43.2182L79.7466 43.1667C79.4963 43.0939 79.2759 42.9673 79.0907 42.7913C78.9545 42.6646 78.7152 42.3668 78.3316 41.663C78.0172 41.086 77.6446 40.2556 77.227 39.193L71.4869 24.4855L71.4258 24.3283H68.8562L67.6395 27.305L70.9522 35.8434L66.1493 35.9629H66.1464Z" fill="black"/>
<path id="Vector_5" d="M53.9841 35.193C54.9334 35.1883 55.7546 35.1813 56.2884 35.1672C56.5397 35.1672 56.75 35.1601 56.9213 35.1531L59.9545 43.8064H65.951V43.1965L65.7538 43.1355C65.5224 43.0651 65.0017 42.6711 64.1465 40.8438L61.8392 36.0374L61.7711 35.9342L61.666 35.9084C60.4753 35.6129 59.4248 35.3056 58.5345 34.9912C60.0647 34.7332 61.3165 34.2265 62.2658 33.4807C63.4355 32.5611 64.0263 31.3672 64.0263 29.9268C64.0263 28.2474 63.3213 26.8915 61.9283 25.8993C60.5644 24.9259 58.5486 24.4286 55.9319 24.4215H55.6535V25.1534L55.9018 25.1792C56.9172 25.2871 57.7094 25.7304 58.2551 26.4975C58.8159 27.2833 59.0993 28.4373 59.0993 29.9292C59.0993 30.8816 58.9721 31.6932 58.7308 32.3288C58.1149 33.6495 56.6829 34.4212 54.8824 34.3955H54.8233H53.9841L52.7493 34.3696C51.7479 34.3462 50.9698 34.1444 50.4351 33.7692C49.9083 33.3986 49.5168 32.845 49.2724 32.1249L49.2043 31.9208H48.5624V38.0524H49.2113L49.2754 37.8389C49.5208 37.0039 49.9193 36.3588 50.4591 35.9154C50.9929 35.4792 51.7619 35.2446 52.7463 35.2211L53.9611 35.1953H53.9841V35.193Z" fill="black"/>
<path id="Vector_6" d="M46.5338 65.6965C46.0391 64.5659 45.7958 62.7623 45.8048 60.3322L45.8378 52.9385C45.8418 51.775 45.95 50.9024 46.1583 50.3418C46.3536 49.8164 46.637 49.4927 47.0025 49.38L47.1267 49.3402V48.9063L40.28 48.8757H40.1017V49.3073L40.2239 49.3496C40.9359 49.5888 41.3064 50.8251 41.2974 52.9198L41.2644 60.3134C41.2433 65.2319 43.7909 67.8927 48.8361 68.2231L49.0253 68.2351V67.6954L48.8821 67.6673C47.8046 67.456 47.0115 66.7941 46.5338 65.6965Z" fill="black"/>
<path id="Vector_7" d="M57.9857 49.3802V49.0119L52.9295 48.9884H52.7843V49.2464L52.7933 49.3614L52.9055 49.3802C53.4032 49.4599 53.8909 49.9032 54.3566 50.7008C54.8332 51.5147 55.0716 52.5445 55.0646 53.7619L55.0365 60.1751C55.0275 62.3003 54.6029 64.0502 53.7737 65.38C52.9526 66.6959 51.818 67.477 50.3889 67.7073L50.2758 67.7234V68.0638L50.2878 68.2161L50.44 68.195C52.1024 67.9627 53.4403 67.1165 54.4176 65.6785C55.388 64.2514 55.8877 62.4011 55.8967 60.1774L55.9248 53.7643C55.9298 52.5633 56.1621 51.5358 56.6148 50.7125C57.0484 49.9197 57.482 49.4669 57.8755 49.4012L57.9857 49.3825V49.3802Z" fill="black"/>
<path id="Vector_8" d="M74.8677 57.4607C74.362 57.8173 73.6229 58.0072 72.6666 58.026L71.5761 58.0565L71.5721 58.948L72.6646 58.9902C73.5999 59.0184 74.329 59.2459 74.8307 59.6658C75.3394 60.0928 75.7139 60.7192 75.9462 61.5285L76.0213 61.7842H76.7694L76.7944 55.9734V55.6426L76.0584 55.6402L75.9763 55.8841C75.745 56.5762 75.3714 57.1088 74.8707 57.4607H74.8677Z" fill="black"/>
<path id="Vector_9" d="M79.2367 62.3843C78.5677 63.7517 77.6985 64.8964 76.653 65.7906C75.6266 66.6649 74.5761 67.1465 73.5286 67.2216L71.4607 67.3759L71.4567 68.202L79.3368 68.2371L79.9727 62.3937L79.3789 62.0888L79.2337 62.3866L79.2367 62.3843Z" fill="black"/>
<path id="Vector_10" d="M25.8429 9.06187C25.3458 9.53334 24.7107 9.66943 24.3731 9.73983C23.9582 9.82195 23.6464 9.83126 23.637 9.83126L21.307 9.96735L22.0009 10.7062L24.7458 10.6828L27.7931 19.0546L27.8517 19.2165H33.9436V18.6582L33.7654 18.6066C33.52 18.5339 32.9783 18.1397 32.09 16.3219L29.7196 11.5624L29.6567 11.4733L29.5652 11.4522C28.2947 11.1495 27.1789 10.8329 26.239 10.5068C27.8541 10.2582 29.1715 9.75385 30.1633 9.00089C31.356 8.09781 31.9608 6.92024 31.9608 5.50113C31.9608 3.84739 31.2388 2.51029 29.8158 1.53221C28.4237 0.575151 26.3586 0.0848596 23.6816 0.0755464H23.4331V0.748699L23.6558 0.769828C24.713 0.877681 25.5357 1.32341 26.103 2.0905C26.682 2.87161 26.9751 4.02093 26.9751 5.50113C26.9751 6.98123 26.6773 8.04854 26.0913 8.77807C26.0116 8.87661 25.9273 8.97274 25.8404 9.05957L25.8429 9.06187Z" fill="black"/>
<path id="Vector_11" d="M49.4126 1.86044C49.9724 2.43986 50.8776 3.53992 52.1034 5.12797L62.9147 19.0826L62.9677 19.1529H64.52V13.6312L54.0351 0.197389L53.995 0.145714H47.6471V0.567912L47.7522 0.61718C48.306 0.872942 48.8638 1.29274 49.4126 1.86044Z" fill="black"/>
<path id="Vector_12" d="M62.5101 1.30686C62.8315 1.59777 63.0989 2.05041 63.3022 2.65567C63.5115 3.27254 63.6307 4.07718 63.6537 5.04826L63.832 10.8539V10.8961L64.3897 11.6514L64.4719 5.04595C64.4819 3.65018 64.6762 2.6087 65.0507 1.95197C65.4192 1.30686 65.956 0.861125 66.6449 0.626593L66.7691 0.584335V0.145714H61.1041V0.586738L61.2323 0.626593C61.755 0.783715 62.1846 1.01364 62.5081 1.30686H62.5101Z" fill="black"/>
<path id="Vector_13" d="M76.9896 16.5685C78.9875 14.9264 79.9999 12.6019 79.9999 9.65799C79.9999 6.71422 78.9755 4.35678 76.9576 2.70304C74.9508 1.05871 72.0507 0.197796 68.3384 0.148526H68.1531V0.709218H68.3334C69.1325 0.718531 69.8756 0.821778 70.5365 1.01645C71.1934 1.20883 71.8163 1.53018 72.3861 1.9688C72.9579 2.40742 73.4456 2.96812 73.8372 3.63657C74.2338 4.30982 74.5472 5.16363 74.7745 6.17236C75.0018 7.18799 75.119 8.36085 75.119 9.65799C75.119 12.5667 74.5452 14.7952 73.4156 16.2776C72.295 17.7483 70.5836 18.5366 68.3284 18.6163L68.1531 18.6233V19.1581L68.3384 19.1534C72.0927 19.069 75.0018 18.1988 76.9876 16.5685H76.9896Z" fill="black"/>
<path id="Vector_14" d="M14.3898 2.03692C15.2595 2.96122 16.0871 4.34769 16.8559 6.15635L17.2287 7.03369L17.0811 1.3214V1.22286L16.9919 1.17129C16.5934 0.934355 15.8432 0.692713 14.7649 0.453374C13.6817 0.214135 12.5823 0.066323 11.4945 0.0123466L11.3046 0.00293384V0.382973L11.4593 0.406505C12.5447 0.575344 13.5317 1.12202 14.3898 2.03692Z" fill="black"/>
<path id="Vector_15" d="M13.5753 11.4552C13.9105 12.0135 14.0817 12.9213 14.0817 14.1574C14.0817 15.6329 13.8589 16.7612 13.4229 17.5118C13.001 18.2319 12.3353 18.6963 11.4468 18.8911L11.3039 18.9216V19.2758L11.4984 19.2593C12.3728 19.1889 13.2283 19.0412 14.0418 18.8183C14.8551 18.5979 15.5069 18.3586 15.9944 18.1006L18.4862 19.2125L18.4112 18.8629C18.2869 18.2906 18.2025 17.7112 18.158 17.1435C18.1112 16.543 18.0876 15.5391 18.0876 14.1551C18.0876 12.0721 18.4276 10.8899 19.1238 10.5404L19.8059 10.1979H11.0484L12.3657 10.5544C12.8932 10.6975 13.2987 11.0001 13.5729 11.4552H13.5753Z" fill="black"/>
<path id="Vector_16" d="M4.66711 18.0244C6.08061 18.7938 7.7003 19.2113 9.49594 19.2653L9.66709 19.2489V18.9111L9.50065 18.897C8.05661 18.775 6.88925 17.9142 6.03134 16.3378C5.14999 14.7169 4.70456 12.4698 4.70456 9.65497C4.70456 6.84009 5.14999 4.75243 6.03134 3.12913C6.88925 1.54348 8.06131 0.628691 9.51236 0.405776L9.66709 0.382343V0L9.47481 0.0117163C7.68628 0.131386 6.06649 0.586431 4.66009 1.36754C3.22546 2.16507 2.07924 3.29336 1.24937 4.72188C0.419591 6.15511 0 7.81356 0 9.65497C0 11.4963 0.419591 13.2133 1.24937 14.6607C2.07924 16.1079 3.23017 17.2386 4.66711 18.022V18.0244Z" fill="black"/>
<path id="Vector_17" d="M40.2588 15.0973C40.4721 15.6579 40.6123 16.1622 40.6733 16.5961C40.7324 17.0184 40.7254 17.3749 40.6473 17.654C40.5722 17.9262 40.448 18.1466 40.2818 18.3108C40.1156 18.4751 39.8952 18.597 39.6299 18.672L39.4987 18.7096V19.1529H53.3102V18.712L53.1811 18.672C52.436 18.4445 51.8712 18.0059 51.5027 17.3679C51.1261 16.7135 50.9199 15.6673 50.8868 14.2528L50.7086 5.4353V5.39304L50.1508 4.60253L50.0286 14.2505C50.0126 15.2121 49.8994 16.0191 49.6961 16.6478C49.4938 17.2671 49.2435 17.7221 48.9501 18.0059C48.6526 18.2897 48.2731 18.5149 47.8185 18.672L47.7574 18.6932L47.6753 18.6697C47.4179 18.5946 47.1876 18.4657 46.9933 18.285C46.792 18.0997 46.5336 17.7221 46.2222 17.1615C45.9058 16.5915 45.5332 15.7728 45.1156 14.7267L39.3795 0.260676L39.3354 0.145714H36.8569L35.6663 3.01217L39.019 11.7311L34.049 11.8555L33.6414 12.6742L39.3955 12.8008L40.2628 15.0973H40.2588Z" fill="black"/>
<path id="Vector_18" d="M19.6449 30.0636C19.1926 28.8767 18.5573 27.854 17.7509 27.0213C16.9469 26.1909 15.9764 25.5177 14.8701 25.0181C13.7636 24.5208 12.5354 24.2158 11.2156 24.1126L11.0234 24.0986V24.6193L11.1711 24.6451C12.4768 24.8703 13.5269 25.7828 14.2934 27.3567C15.074 28.9589 15.4701 31.1826 15.4701 33.9645C15.4701 36.7466 15.074 38.9515 14.2934 40.5677C13.5269 42.1534 12.4768 43.0824 11.1687 43.3239L11.0234 43.352V43.8729L11.2156 43.8588C12.5259 43.7555 13.7543 43.4483 14.8631 42.9463C15.9741 42.4443 16.9469 41.7664 17.7509 40.9313C18.555 40.0962 19.1926 39.0689 19.6449 37.8772C20.0951 36.6879 20.3224 35.372 20.3224 33.9693C20.3224 32.5666 20.0951 31.2506 19.6449 30.066V30.0636Z" fill="black"/>
<path id="Vector_19" d="M4.64815 42.4125C6.01708 43.2336 7.60403 43.7168 9.36913 43.8552L9.56131 43.8693V43.3485L9.416 43.3227C8.10094 43.0811 7.04614 42.1545 6.27966 40.5735C5.49905 38.962 5.10289 36.7383 5.10289 33.9656C5.10289 31.193 5.49435 28.96 6.26554 27.3578C7.02271 25.7839 8.06108 24.8738 9.35041 24.6462L9.49802 24.6204V24.0997L9.30584 24.1137C7.99549 24.2169 6.76955 24.5219 5.66309 25.0192C4.55432 25.5165 3.58865 26.192 2.78691 27.0224C1.98528 27.8551 1.35238 28.8778 0.899941 30.0647C0.449903 31.2493 0.222483 32.563 0.222483 33.9681C0.222483 35.8446 0.618646 37.5335 1.39925 38.9855C2.18216 40.4398 3.2745 41.5938 4.64815 42.4172V42.4125Z" fill="black"/>
<path id="Vector_20" d="M28.011 42.1924C27.7813 41.5661 27.6664 40.4988 27.6664 39.0186V24.4119H21.7711V24.8482L21.8953 24.8881C22.629 25.1274 23.0181 26.3753 23.0181 28.4935V39.6426C23.0181 41.7842 22.6314 43.0297 21.9023 43.2456L21.7735 43.2831V43.7217H29.1808V43.2737L29.0425 43.2408C28.5736 43.1283 28.2267 42.7764 28.0134 42.19L28.011 42.1924Z" fill="black"/>
<path id="Vector_21" d="M30.9664 35.8128C30.4727 36.1929 29.8328 36.4134 29.0682 36.4697L28.9018 36.4814V37.0303H29.0822C31.7545 37.0209 33.8364 36.4438 35.2705 35.3132C36.6725 34.2084 37.4065 32.6509 37.4506 30.6758C37.4065 28.7078 36.6745 27.1502 35.2705 26.0454C33.8364 24.9147 31.7525 24.3377 29.0822 24.3283H28.9018V24.8772L29.0682 24.889C29.8328 24.9452 30.4727 25.1658 30.9664 25.5457C31.4611 25.9234 31.8556 26.5544 32.139 27.4176C32.4154 28.2597 32.5606 29.3575 32.5727 30.6782C32.5606 32.0034 32.4134 33.1012 32.139 33.941C31.8556 34.8042 31.4611 35.4329 30.9664 35.8128Z" fill="black"/>
<path id="Vector_22" d="M25.3874 49.6609C24.3044 50.1488 23.3597 50.8127 22.5768 51.6313C21.7939 52.45 21.1703 53.461 20.725 54.6315C20.282 55.802 20.0522 57.0992 20.0475 58.4901C20.0405 60.348 20.4179 62.0181 21.1726 63.4584C21.9298 64.9014 22.9893 66.048 24.3231 66.8692C25.6546 67.6874 27.1994 68.173 28.9199 68.3162L29.1121 68.3323V67.8145L28.9691 67.7865C27.6916 67.5421 26.6672 66.6228 25.9289 65.0536C25.1764 63.4564 24.799 61.2534 24.8107 58.5113C24.8224 55.7598 25.2138 53.5619 25.9733 51.9785C26.7165 50.4256 27.7314 49.5295 28.9855 49.3114L29.1332 49.2856V48.7649L28.9433 48.779C27.6658 48.8751 26.4703 49.1706 25.3897 49.6586L25.3874 49.6609Z" fill="black"/>
<path id="Vector_23" d="M38.9838 54.7066C38.5501 53.5313 37.9333 52.5157 37.1532 51.6876C36.3731 50.8619 35.4307 50.1911 34.3522 49.6938C33.2757 49.1965 32.078 48.8892 30.7942 48.7813L30.6019 48.7649V49.2856L30.7471 49.3114C32.0169 49.5389 33.0343 50.4467 33.7734 52.0042C34.5254 53.5947 34.903 55.7949 34.891 58.5464C34.8789 61.2816 34.4834 63.4774 33.7163 65.0727C32.9642 66.6369 31.9378 67.5492 30.665 67.7835L30.5198 67.8095V68.3283L30.709 68.3142C31.9869 68.2181 33.1845 67.9197 34.2701 67.427C35.3576 66.9343 36.307 66.2683 37.0941 65.4452C37.8822 64.622 38.5081 63.6086 38.9507 62.4309C39.3943 61.2557 39.6237 59.9562 39.6287 58.5675C39.6357 57.1789 39.4174 55.877 38.9838 54.7042V54.7066Z" fill="black"/>
<path id="Vector_24" d="M1.12368 48.8729V49.3069L1.24325 49.3491C1.95586 49.5883 2.32617 50.8246 2.31916 52.9192L2.2723 63.9491C2.26289 66.0671 1.88315 67.2958 1.17054 67.5071L1.04396 67.5452V67.9838L7.89106 68.0138H8.06921V67.5732L7.93792 67.5351C7.19016 67.3238 6.80111 66.0931 6.81042 63.9671L6.85729 52.9381C6.862 51.7745 6.96745 50.8973 7.16913 50.332C7.3566 49.8065 7.6356 49.4852 7.99651 49.3796L8.12308 49.3421V48.9035L1.29952 48.8729H1.12137H1.12368Z" fill="black"/>
<path id="Vector_25" d="M12.4972 48.8728V49.3068L12.6191 49.3466C13.3552 49.5883 13.7396 50.822 13.7302 52.9168L13.7092 57.559L8.89674 57.6903L8.73501 57.7325V57.8122L8.38101 58.3799L13.7044 58.4972L13.681 63.944C13.6716 66.062 13.2778 67.2918 12.5441 67.5021L12.4152 67.5401V67.9787L19.2623 68.0088H19.4405V67.5702L19.3115 67.5331C18.5778 67.3148 18.1957 66.081 18.2051 63.965L18.252 52.9355C18.2614 50.8409 18.6482 49.6093 19.3701 49.3748L19.492 49.3349V48.9009L12.6707 48.8705H12.4925L12.4972 48.8728Z" fill="black"/>
<path id="Vector_26" d="M79.0438 54.6056L79.1699 54.9457L79.7798 54.6385L79.5595 48.8352L75.1172 48.8164L67.3562 48.807H67.0187V49.7922H73.6261C73.9806 49.8063 74.5103 49.8579 75.0281 50.0127C75.7641 50.2497 76.414 50.6297 76.9578 51.148C77.769 51.9198 78.472 53.0833 79.0458 54.6079L79.0438 54.6056Z" fill="black"/>
<path id="Vector_27" d="M69.6706 59.5921C69.2911 59.1675 68.8504 58.7687 68.3627 58.4051C67.8781 58.0439 67.3573 57.7131 66.8155 57.427C66.2888 57.1478 65.745 56.8663 65.2013 56.5942C64.6645 56.3245 64.1528 56.043 63.6821 55.7568C63.2134 55.473 62.7908 55.1657 62.4253 54.8468C62.0718 54.5347 61.7854 54.1618 61.5741 53.7349C61.3678 53.3126 61.2627 52.8411 61.2647 52.3345C61.2647 51.8231 61.3748 51.3516 61.5861 50.9411C62.0338 50.1366 62.9461 49.7565 63.4478 49.6017L63.5409 49.5736V48.9824L63.3486 48.9989C61.6312 49.1373 60.2122 49.719 59.1317 50.7323C58.0441 51.7504 57.4883 53.0124 57.4813 54.4831C57.4793 55.1634 57.5875 55.8014 57.8008 56.3784C58.0161 56.9555 58.3115 57.4574 58.682 57.8726C59.0455 58.2785 59.4671 58.6632 59.9338 59.0151C60.3975 59.3645 60.8952 59.6812 61.4129 59.9603C61.9286 60.2371 62.4464 60.5116 62.9531 60.7742C63.4618 61.037 63.9495 61.3185 64.4011 61.6093C64.8518 61.8979 65.2543 62.2075 65.6038 62.5312C65.9443 62.8456 66.2157 63.223 66.413 63.6476C66.6092 64.0722 66.7084 64.5439 66.7054 65.0506C66.7054 65.5693 66.5952 66.043 66.3889 66.4536C65.5708 67.8345 63.4147 68.2902 61.485 67.4901C60.0349 66.8171 59.1667 65.7356 59.1297 65.6905L58.9654 65.4842L58.684 65.9719L58.7661 66.069C59.1156 66.4816 61.0003 68.5455 63.8153 68.5455C63.9675 68.5455 64.1317 68.5385 64.305 68.5245H64.324C66.3309 68.3953 67.9321 67.8676 69.0807 66.9573C70.3035 65.9889 70.9274 64.7151 70.9344 63.1739C70.9364 62.4515 70.8242 61.776 70.5969 61.166C70.3696 60.5561 70.0581 60.0284 69.6706 59.5968V59.5921Z" fill="black"/>
</g>
</svg>
