<svg width="76" height="50" viewBox="0 0 76 50" fill="none" xmlns="http://www.w3.org/2000/svg">
<g id="Group">
<path id="Vector" fill-rule="evenodd" clip-rule="evenodd" d="M44.8725 28.5867C47.5872 32.9666 51.3573 35.1879 56.0788 35.1879C59.896 35.1879 63.1094 33.9673 65.6288 31.5596C65.9062 31.295 66.1656 31.0205 66.4119 30.7395L60.8072 49.3647H52.8113C49.6981 49.3647 46.9313 47.397 45.9319 44.4726L37.8309 20.7541L28.0595 49.3647H14.8548L0 0H13.5345L22.1175 31.8838L32.6808 0H42.7856L48.8419 18.2876H50.6203L50.7295 18.1576C52.3597 16.2142 54.3194 15.229 56.5514 15.229C58.5562 15.229 60.2485 15.9204 61.5853 17.2888C62.9191 18.6119 63.5961 20.3442 63.5961 22.4371C63.5961 24.4755 62.9091 26.2328 61.5593 27.6563C60.2114 29.0355 58.5191 29.7347 56.5294 29.7347C55.0043 29.7347 53.7005 29.3799 52.6601 28.6821C51.5977 27.9564 50.5212 26.6802 49.4577 24.8887L49.2384 24.5206L44.7093 28.3231L44.8725 28.5867ZM69.2047 5.10878V0H76L69.6633 21.2542C69.398 18.2375 68.2845 15.6861 66.3388 13.6581C64.1007 11.2935 61.1968 10.0943 57.707 10.0943C57.5037 10.0943 57.2804 10.1031 57.0371 10.1179C56.995 10.1207 56.953 10.1239 56.9109 10.1271C56.8839 10.1292 56.8568 10.1312 56.8298 10.1332L58.3208 5.10878H69.2047Z" fill="black"/>
</g>
</svg>
