<svg width="100" height="35" viewBox="0 0 100 35" fill="none" xmlns="http://www.w3.org/2000/svg">
<g id="Group">
<path id="Vector" d="M15.41 34.2748H2.34248C1.02774 34.2748 0 33.1509 0 31.9289V2.58587C0 1.02559 1.17304 0.247295 2.34248 0.247295C3.51202 0.247295 4.63059 1.02559 4.63059 2.58587V29.634H15.4064C16.9681 29.634 17.749 30.8087 17.749 31.9799C17.749 33.1509 16.9681 34.2748 15.4064 34.2748" fill="black"/>
<path id="Vector_2" d="M36.7762 3.27329L29.4144 20.9962V31.9799C29.4144 33.5438 28.245 34.2748 27.0754 34.2748C25.906 34.2748 24.7328 33.5438 24.7328 31.9799V20.9962L17.371 3.27329C17.2221 3.02965 17.1749 2.68406 17.1749 2.34218C17.1749 1.02564 18.0974 0 19.612 0C20.4472 0 21.2717 0.440116 21.7112 1.46575L27.0754 14.3988L32.4397 1.46575C32.8755 0.440116 33.7073 0 34.5281 0C36.0426 0 36.9723 1.02203 36.9723 2.34218C36.9723 2.68406 36.9215 2.9278 36.7762 3.27329Z" fill="black"/>
<path id="Vector_3" d="M56.1456 19.2869L61.7054 30.9542C61.8977 31.3471 61.9458 31.689 61.9458 31.9799C61.9458 33.2964 60.9724 34.2748 59.4613 34.2748C58.6802 34.2748 57.9031 33.9366 57.4635 33.0091L51.1737 19.7269H47.2221V31.9799C47.2221 33.5438 46.1066 34.2748 44.9299 34.2748C43.7533 34.2748 42.5406 33.5438 42.5406 31.9799V2.63685C42.5406 1.42204 43.6621 0.29827 44.8829 0.29827H52.833C58.0954 0.29827 62.3373 4.54261 62.3373 9.8162V10.2562C62.3373 14.4533 59.8498 18.0175 56.1416 19.2905L56.1456 19.2869ZM57.6558 9.81981C57.6558 7.08478 55.659 4.93537 52.9742 4.93537H47.2181V15.0898H53.0223C55.706 15.0898 57.6528 12.9404 57.6528 10.2562V9.8162L57.6558 9.81981Z" fill="black"/>
<path id="Vector_4" d="M71.443 34.2748C70.2773 34.2748 69.1037 33.5438 69.1037 31.9799V2.34218C69.1037 0.778292 70.2773 0 71.443 0C72.6086 0 73.7852 0.781997 73.7852 2.34218V31.9799C73.7852 33.5438 72.6156 34.2748 71.443 34.2748Z" fill="black"/>
<path id="Vector_5" d="M90.5427 34.2748H90.1031C84.8337 34.2748 80.5988 30.2705 80.5988 24.946V9.32156C80.5988 4.05158 84.8337 0 90.1031 0H90.5427C95.2754 0 100 3.4224 100 8.15042V8.30324C100 9.81616 99.1718 10.8382 97.6106 10.8382C96.2958 10.8382 95.6639 10.0635 95.3184 8.83789C94.8788 6.44834 93.0783 4.6372 90.5427 4.6372H90.1031C87.3723 4.6372 85.2804 6.59745 85.2804 9.28161V24.9969C85.2804 27.7356 87.4234 29.685 90.1031 29.685H90.5427C93.0813 29.685 94.8828 27.8811 95.3184 25.4843C95.6599 24.2659 96.2958 23.4839 97.6106 23.4839C99.1718 23.4839 100 24.5095 100 26.0226V26.1717C100 30.9543 95.2754 34.2748 90.5427 34.2748Z" fill="black"/>
</g>
</svg>
