<svg width="9" height="14" viewBox="0 0 9 14" fill="none" xmlns="http://www.w3.org/2000/svg">
<path id="Vector" d="M7.58243 0.29591H8.80782C8.76823 0.967039 8.70829 1.75749 8.70829 2.52751V8.47028C8.70829 10.4455 8.80782 12.5187 6.61603 13.5451C5.82622 13.9209 5.29218 14.0001 4.3643 14.0001C2.56849 14.0001 0.435573 13.3876 0.435573 11.3333H1.71874C1.85787 12.5187 3.25986 12.9136 4.52271 12.9136C6.06274 12.9136 7.48398 11.8279 7.52358 10.1685V8.31285H7.48398C6.91141 9.47767 5.54903 10.1685 4.26585 10.1685C1.28317 10.1685 0 7.8974 0 5.17286C0 2.48791 1.20505 0 4.22625 0C5.66782 0 6.69523 0.690813 7.48398 1.83583L7.52358 1.7575L7.58243 0.29591ZM4.34505 1.08572C2.19179 1.08572 1.28317 3.25782 1.28317 5.07472C1.28317 6.89087 2.21212 9.08276 4.38357 9.08276C6.65563 9.08276 7.52358 6.96995 7.52358 5.03512C7.52358 3.13914 6.47691 1.08572 4.34505 1.08572Z" fill="black"/>
</svg>
