<svg width="80" height="69" viewBox="0 0 80 69" fill="none" xmlns="http://www.w3.org/2000/svg">
<g id="Group">
<path id="Vector" d="M38.5483 43.2315L38.4191 43.269V43.7077H44.3145V24.3955H38.4191V24.8318L38.5433 24.8717C39.2773 25.1109 39.6669 26.3588 39.6669 28.477V39.6262C39.6669 41.7678 39.2793 43.0134 38.5483 43.2292V43.2315Z" fill="black"/>
<path id="Vector_2" d="M52.0865 30.1225L52.1576 30.3054L52.5371 30.1155L52.2958 24.4899H45.4661V25.0318L46.6898 25.1631C47.9676 25.3181 49.0442 25.7942 49.8873 26.5777C50.7416 27.3684 51.4796 28.5624 52.0845 30.1225H52.0865Z" fill="black"/>
<path id="Vector_3" d="M45.4681 43.7075H53.0378L53.6266 38.157L53.6407 38.0326L53.2651 37.845L53.186 38.0068C52.497 39.4097 51.5968 40.5898 50.5112 41.5094C49.4347 42.4219 48.3281 42.9239 47.2196 43.006L45.4681 43.1609V43.7075Z" fill="black"/>
<path id="Vector_4" d="M66.1464 35.963L65.6477 37.1101L71.3618 37.2368L72.244 39.6106C72.4573 40.1759 72.5955 40.6849 72.6566 41.1212C72.7147 41.5435 72.7057 41.8977 72.6306 42.1744C72.5575 42.4418 72.4403 42.6576 72.2811 42.8148C72.1218 42.9743 71.9105 43.0915 71.6572 43.1644L71.4799 43.2159V43.7742H79.9229V43.2182L79.7466 43.1667C79.4963 43.094 79.276 42.9673 79.0907 42.7913C78.9545 42.6646 78.7152 42.3668 78.3316 41.663C78.0172 41.086 77.6447 40.2556 77.2271 39.193L71.4869 24.4855L71.4258 24.3283H68.8562L67.6395 27.305L70.9522 35.8434L66.1494 35.963H66.1464Z" fill="black"/>
<path id="Vector_5" d="M53.9842 35.193C54.9335 35.1883 55.7547 35.1813 56.2884 35.1672C56.5398 35.1672 56.7501 35.1602 56.9213 35.1531L59.9546 43.8064H65.9511V43.1965L65.7538 43.1355C65.5225 43.0651 65.0018 42.6711 64.1465 40.8438L61.8393 36.0374L61.7712 35.9342L61.666 35.9084C60.4753 35.6129 59.4248 35.3056 58.5346 34.9912C60.0648 34.7333 61.3165 34.2265 62.2659 33.4807C63.4355 32.5611 64.0264 31.3672 64.0264 29.9268C64.0264 28.2474 63.3214 26.8915 61.9284 25.8993C60.5645 24.9259 58.5486 24.4286 55.9319 24.4215H55.6535V25.1534L55.9019 25.1792C56.9173 25.2871 57.7094 25.7304 58.2552 26.4975C58.816 27.2833 59.0994 28.4373 59.0994 29.9292C59.0994 30.8816 58.9722 31.6932 58.7309 32.3288C58.115 33.6495 56.683 34.4212 54.8824 34.3955H54.8233H53.9842L52.7494 34.3696C51.748 34.3462 50.9699 34.1444 50.4351 33.7692C49.9084 33.3986 49.5168 32.845 49.2725 32.1249L49.2044 31.9208H48.5625V38.0525H49.2114L49.2755 37.8389C49.5208 37.0039 49.9194 36.3589 50.4592 35.9154C50.9929 35.4792 51.762 35.2446 52.7464 35.2211L53.9611 35.1953H53.9842V35.193Z" fill="black"/>
<path id="Vector_6" d="M46.5336 65.6966C46.0389 64.566 45.7955 62.7623 45.8046 60.3322L45.8376 52.9385C45.8416 51.775 45.9498 50.9024 46.1581 50.3418C46.3533 49.8164 46.6367 49.4927 47.0023 49.3801L47.1264 49.3402V48.9063L40.2797 48.8757H40.1015V49.3073L40.2237 49.3496C40.9357 49.5888 41.3062 50.8251 41.2972 52.9198L41.2641 60.3134C41.2431 65.2319 43.7907 67.8927 48.8359 68.2231L49.0251 68.2352V67.6954L48.8819 67.6673C47.8044 67.456 47.0113 66.7941 46.5336 65.6966Z" fill="black"/>
<path id="Vector_7" d="M57.9858 49.3802V49.0119L52.9297 48.9884H52.7844V49.2464L52.7935 49.3614L52.9056 49.3802C53.4033 49.4599 53.891 49.9032 54.3567 50.7008C54.8333 51.5147 55.0717 52.5445 55.0647 53.7619L55.0366 60.1751C55.0276 62.3003 54.603 64.0502 53.7738 65.3801C52.9527 66.6959 51.8181 67.477 50.3891 67.7074L50.2759 67.7234V68.0639L50.2879 68.2161L50.4401 68.195C52.1025 67.9627 53.4404 67.1165 54.4178 65.6785C55.3881 64.2515 55.8878 62.4011 55.8969 60.1774L55.9249 53.7643C55.9299 52.5633 56.1622 51.5358 56.6149 50.7125C57.0485 49.9197 57.4821 49.4669 57.8757 49.4012L57.9858 49.3825V49.3802Z" fill="black"/>
<path id="Vector_8" d="M74.8677 57.4607C74.362 57.8173 73.623 58.0073 72.6666 58.026L71.5761 58.0565L71.5721 58.948L72.6646 58.9902C73.5999 59.0184 74.329 59.2459 74.8307 59.6658C75.3394 60.0928 75.7139 60.7192 75.9463 61.5285L76.0214 61.7842H76.7694L76.7945 55.9734V55.6426L76.0584 55.6402L75.9763 55.8841C75.745 56.5762 75.3714 57.1088 74.8707 57.4607H74.8677Z" fill="black"/>
<path id="Vector_9" d="M79.2369 62.3843C78.568 63.7517 77.6987 64.8964 76.6532 65.7906C75.6268 66.6649 74.5763 67.1466 73.5288 67.2217L71.4609 67.3759L71.4569 68.202L79.3371 68.2371L79.973 62.3937L79.3791 62.0888L79.2339 62.3866L79.2369 62.3843Z" fill="black"/>
<path id="Vector_10" d="M25.843 9.06187C25.346 9.53334 24.7108 9.66943 24.3732 9.73983C23.9583 9.82195 23.6466 9.83126 23.6372 9.83126L21.3072 9.96736L22.0011 10.7062L24.7459 10.6828L27.7933 19.0546L27.8518 19.2165H33.9438V18.6582L33.7655 18.6066C33.5202 18.5339 32.9784 18.1397 32.0901 16.3219L29.7198 11.5624L29.6568 11.4733L29.5654 11.4522C28.2949 11.1495 27.1791 10.8329 26.2392 10.5068C27.8542 10.2582 29.1716 9.75385 30.1634 9.00089C31.3561 8.09781 31.961 6.92024 31.961 5.50113C31.961 3.84739 31.2389 2.51029 29.8159 1.53221C28.4239 0.575151 26.3587 0.0848596 23.6817 0.0755464H23.4333V0.748699L23.6559 0.769828C24.7131 0.877681 25.5359 1.32341 26.1032 2.0905C26.6822 2.87161 26.9752 4.02093 26.9752 5.50113C26.9752 6.98123 26.6775 8.04854 26.0914 8.77807C26.0117 8.87661 25.9274 8.97274 25.8406 9.05957L25.843 9.06187Z" fill="black"/>
<path id="Vector_11" d="M49.4127 1.86044C49.9725 2.43986 50.8777 3.53992 52.1035 5.12797L62.9148 19.0826L62.9679 19.1529H64.5201V13.6312L54.0352 0.197389L53.9952 0.145714H47.6472V0.567912L47.7523 0.61718C48.3061 0.872943 48.8639 1.29274 49.4127 1.86044Z" fill="black"/>
<path id="Vector_12" d="M62.5102 1.30686C62.8317 1.59777 63.0991 2.05041 63.3023 2.65567C63.5116 3.27254 63.6308 4.07718 63.6538 5.04826L63.8321 10.8539V10.8961L64.3899 11.6514L64.472 5.04595C64.482 3.65018 64.6763 2.6087 65.0508 1.95197C65.4193 1.30686 65.9561 0.861125 66.6451 0.626593L66.7693 0.584335V0.145714H61.1042V0.586738L61.2324 0.626593C61.7551 0.783716 62.1848 1.01364 62.5082 1.30686H62.5102Z" fill="black"/>
<path id="Vector_13" d="M76.9897 16.5685C78.9876 14.9265 80 12.6019 80 9.65799C80 6.71422 78.9755 4.35679 76.9577 2.70304C74.9508 1.05871 72.0507 0.197796 68.3385 0.148526H68.1532V0.709218H68.3335C69.1326 0.718531 69.8756 0.821778 70.5366 1.01645C71.1935 1.20883 71.8164 1.53018 72.3862 1.9688C72.958 2.40742 73.4457 2.96812 73.8373 3.63657C74.2338 4.30982 74.5473 5.16363 74.7746 6.17236C75.0019 7.188 75.1191 8.36085 75.1191 9.65799C75.1191 12.5667 74.5453 14.7952 73.4157 16.2776C72.2951 17.7484 70.5837 18.5366 68.3285 18.6163L68.1532 18.6233V19.1581L68.3385 19.1534C72.0928 19.069 75.0019 18.1988 76.9877 16.5685H76.9897Z" fill="black"/>
<path id="Vector_14" d="M14.39 2.03692C15.2597 2.96122 16.0873 4.34769 16.8562 6.15635L17.2289 7.03369L17.0813 1.3214V1.22286L16.9922 1.17129C16.5936 0.934355 15.8434 0.692713 14.7651 0.453374C13.682 0.214135 12.5825 0.066323 11.4948 0.0123466L11.3048 0.00293384V0.382973L11.4595 0.406505C12.545 0.575344 13.532 1.12202 14.39 2.03692Z" fill="black"/>
<path id="Vector_15" d="M13.5755 11.4552C13.9107 12.0135 14.0818 12.9213 14.0818 14.1574C14.0818 15.6329 13.8591 16.7612 13.4231 17.5118C13.0012 18.2319 12.3355 18.6964 11.447 18.8911L11.3041 18.9216V19.2758L11.4986 19.2593C12.373 19.189 13.2285 19.0412 14.042 18.8183C14.8553 18.5979 15.5071 18.3586 15.9945 18.1006L18.4864 19.2125L18.4114 18.8629C18.2871 18.2906 18.2027 17.7112 18.1582 17.1436C18.1113 16.543 18.0878 15.5391 18.0878 14.1551C18.0878 12.0721 18.4278 10.8899 19.124 10.5404L19.806 10.1979H11.0485L12.3659 10.5544C12.8934 10.6975 13.2989 11.0002 13.5731 11.4552H13.5755Z" fill="black"/>
<path id="Vector_16" d="M4.66711 18.0244C6.08061 18.7938 7.7003 19.2113 9.49595 19.2653L9.66709 19.2489V18.9111L9.50065 18.897C8.05661 18.775 6.88925 17.9142 6.03134 16.3378C5.14999 14.7169 4.70456 12.4698 4.70456 9.65497C4.70456 6.84009 5.14999 4.75243 6.03134 3.12913C6.88925 1.54348 8.06131 0.628691 9.51237 0.405776L9.66709 0.382343V0L9.47481 0.0117163C7.68628 0.131386 6.06649 0.586431 4.6601 1.36754C3.22546 2.16507 2.07924 3.29336 1.24937 4.72189C0.419591 6.15512 0 7.81357 0 9.65497C0 11.4963 0.419591 13.2133 1.24937 14.6607C2.07924 16.1079 3.23017 17.2386 4.66711 18.022V18.0244Z" fill="black"/>
<path id="Vector_17" d="M40.2587 15.0973C40.472 15.6579 40.6122 16.1622 40.6733 16.5961C40.7324 17.0184 40.7254 17.3749 40.6473 17.654C40.5722 17.9262 40.448 18.1466 40.2817 18.3108C40.1155 18.4751 39.8952 18.597 39.6298 18.6721L39.4986 18.7096V19.1529H53.3102V18.712L53.181 18.6721C52.436 18.4445 51.8712 18.0059 51.5026 17.3679C51.1261 16.7135 50.9198 15.6673 50.8868 14.2528L50.7085 5.43531V5.39304L50.1507 4.60253L50.0285 14.2505C50.0125 15.2122 49.8994 16.0191 49.6961 16.6478C49.4938 17.2671 49.2434 17.7221 48.95 18.0059C48.6526 18.2897 48.2731 18.5149 47.8184 18.6721L47.7573 18.6932L47.6752 18.6697C47.4179 18.5946 47.1875 18.4657 46.9932 18.285C46.792 18.0997 46.5336 17.7221 46.2222 17.1615C45.9057 16.5915 45.5332 15.7728 45.1156 14.7267L39.3795 0.260676L39.3354 0.145714H36.8569L35.6662 3.01217L39.019 11.7311L34.0489 11.8555L33.6413 12.6742L39.3955 12.8008L40.2627 15.0973H40.2587Z" fill="black"/>
<path id="Vector_18" d="M19.6447 30.0636C19.1924 28.8767 18.5571 27.854 17.7507 27.0213C16.9467 26.1909 15.9762 25.5177 14.8699 25.0181C13.7634 24.5208 12.5351 24.2158 11.2154 24.1126L11.0232 24.0986V24.6193L11.1709 24.6451C12.4766 24.8703 13.5267 25.7828 14.2932 27.3567C15.0737 28.9589 15.4699 31.1826 15.4699 33.9646C15.4699 36.7466 15.0737 38.9515 14.2932 40.5677C13.5267 42.1535 12.4766 43.0824 11.1685 43.3239L11.0232 43.352V43.8729L11.2154 43.8588C12.5257 43.7555 13.7541 43.4483 14.8628 42.9463C15.9739 42.4443 16.9467 41.7664 17.7507 40.9313C18.5548 40.0962 19.1924 39.0689 19.6447 37.8772C20.0949 36.6879 20.3222 35.372 20.3222 33.9693C20.3222 32.5666 20.0949 31.2506 19.6447 30.066V30.0636Z" fill="black"/>
<path id="Vector_19" d="M4.64828 42.4125C6.01721 43.2336 7.60416 43.7168 9.36926 43.8552L9.56144 43.8693V43.3485L9.41613 43.3227C8.10107 43.0811 7.04628 42.1546 6.27979 40.5735C5.49918 38.962 5.10302 36.7383 5.10302 33.9657C5.10302 31.193 5.49448 28.96 6.26567 27.3578C7.02284 25.7839 8.06121 24.8738 9.35054 24.6462L9.49815 24.6204V24.0997L9.30597 24.1137C7.99562 24.2169 6.76968 24.5219 5.66322 25.0192C4.55445 25.5165 3.58878 26.192 2.78704 27.0224C1.98541 27.8551 1.35251 28.8778 0.900071 30.0647C0.450033 31.2493 0.222613 32.563 0.222613 33.9681C0.222613 35.8446 0.618776 37.5335 1.39938 38.9855C2.18229 40.4398 3.27463 41.5939 4.64828 42.4172V42.4125Z" fill="black"/>
<path id="Vector_20" d="M28.0108 42.1924C27.781 41.5661 27.6662 40.4988 27.6662 39.0186V24.4119H21.7708V24.8482L21.8951 24.8881C22.6287 25.1274 23.0179 26.3753 23.0179 28.4935V39.6426C23.0179 41.7842 22.6311 43.0298 21.9021 43.2456L21.7732 43.2831V43.7217H29.1805V43.2737L29.0422 43.2409C28.5734 43.1283 28.2265 42.7764 28.0132 42.19L28.0108 42.1924Z" fill="black"/>
<path id="Vector_21" d="M30.9666 35.8128C30.4729 36.1929 29.8329 36.4134 29.0684 36.4697L28.9019 36.4814V37.0303H29.0824C31.7547 37.021 33.8366 36.4438 35.2706 35.3132C36.6726 34.2084 37.4067 32.6509 37.4507 30.6758C37.4067 28.7078 36.6746 27.1502 35.2706 26.0454C33.8366 24.9147 31.7527 24.3377 29.0824 24.3283H28.9019V24.8773L29.0684 24.889C29.8329 24.9452 30.4729 25.1658 30.9666 25.5457C31.4613 25.9234 31.8558 26.5544 32.1392 27.4177C32.4156 28.2597 32.5608 29.3575 32.5728 30.6782C32.5608 32.0034 32.4136 33.1012 32.1392 33.941C31.8558 34.8042 31.4613 35.4329 30.9666 35.8128Z" fill="black"/>
<path id="Vector_22" d="M25.3875 49.6609C24.3045 50.1488 23.3599 50.8127 22.577 51.6313C21.7941 52.45 21.1705 53.461 20.7251 54.6315C20.2821 55.802 20.0524 57.0992 20.0477 58.4901C20.0407 60.348 20.418 62.0181 21.1728 63.4584C21.93 64.9014 22.9894 66.048 24.3232 66.8692C25.6547 67.6874 27.1995 68.1731 28.92 68.3163L29.1122 68.3323V67.8145L28.9692 67.7865C27.6917 67.5422 26.6674 66.6229 25.929 65.0536C25.1765 63.4564 24.7991 61.2535 24.8108 58.5113C24.8225 55.7598 25.214 53.5619 25.9735 51.9785C26.7166 50.4256 27.7316 49.5295 28.9856 49.3114L29.1333 49.2856V48.7649L28.9435 48.779C27.666 48.8751 26.4705 49.1706 25.3899 49.6586L25.3875 49.6609Z" fill="black"/>
<path id="Vector_23" d="M38.9839 54.7066C38.5503 53.5313 37.9334 52.5157 37.1533 51.6876C36.3732 50.8619 35.4309 50.1911 34.3523 49.6938C33.2758 49.1965 32.0781 48.8892 30.7943 48.7813L30.602 48.7649V49.2856L30.7472 49.3114C32.017 49.539 33.0345 50.4467 33.7735 52.0043C34.5256 53.5947 34.9031 55.7949 34.8911 58.5464C34.8791 61.2816 34.4835 63.4774 33.7164 65.0727C32.9644 66.6369 31.9379 67.5492 30.6651 67.7835L30.5199 67.8095V68.3283L30.7092 68.3143C31.987 68.2181 33.1847 67.9197 34.2702 67.427C35.3578 66.9343 36.3071 66.2684 37.0942 65.4452C37.8823 64.622 38.5082 63.6086 38.9509 62.4309C39.3945 61.2558 39.6238 59.9562 39.6288 58.5675C39.6358 57.1789 39.4175 55.877 38.9839 54.7042V54.7066Z" fill="black"/>
<path id="Vector_24" d="M1.12379 48.8729V49.3069L1.24336 49.3491C1.95597 49.5883 2.32629 50.8246 2.31928 52.9193L2.27241 63.9491C2.263 66.0671 1.88327 67.2958 1.17066 67.5071L1.04407 67.5452V67.9838L7.89117 68.0138H8.06933V67.5732L7.93804 67.5352C7.19028 67.3239 6.80123 66.0931 6.81054 63.9671L6.85741 52.9381C6.86211 51.7745 6.96756 50.8973 7.16925 50.332C7.35671 49.8065 7.63571 49.4852 7.99662 49.3796L8.1232 49.3421V48.9035L1.29964 48.8729H1.12148H1.12379Z" fill="black"/>
<path id="Vector_25" d="M12.497 48.8728V49.3068L12.6189 49.3467C13.3549 49.5883 13.7394 50.822 13.7299 52.9168L13.7089 57.559L8.8965 57.6903L8.73477 57.7325V57.8122L8.38077 58.3799L13.7042 58.4972L13.6808 63.944C13.6714 66.062 13.2776 67.2918 12.5439 67.5021L12.415 67.5401V67.9787L19.2621 68.0088H19.4402V67.5702L19.3112 67.5331C18.5776 67.3148 18.1955 66.0811 18.2049 63.9651L18.2517 52.9355C18.2612 50.8409 18.6479 49.6093 19.3698 49.3748L19.4918 49.3349V48.9009L12.6704 48.8705H12.4923L12.497 48.8728Z" fill="black"/>
<path id="Vector_26" d="M79.0436 54.6057L79.1698 54.9457L79.7797 54.6385L79.5594 48.8352L75.1171 48.8165L67.3561 48.807H67.0186V49.7922H73.626C73.9805 49.8064 74.5102 49.8579 75.0279 50.0127C75.764 50.2497 76.4139 50.6297 76.9577 51.1481C77.7688 51.9199 78.4718 53.0833 79.0456 54.608L79.0436 54.6057Z" fill="black"/>
<path id="Vector_27" d="M69.6704 59.5921C69.2908 59.1675 68.8502 58.7687 68.3625 58.4051C67.8778 58.0439 67.3571 57.7131 66.8153 57.427C66.2886 57.1478 65.7448 56.8663 65.201 56.5942C64.6643 56.3246 64.1525 56.0431 63.6819 55.7569C63.2132 55.473 62.7906 55.1657 62.4251 54.8468C62.0716 54.5347 61.7852 54.1618 61.5739 53.7349C61.3676 53.3126 61.2625 52.8411 61.2645 52.3345C61.2645 51.8231 61.3746 51.3516 61.5859 50.9411C62.0336 50.1366 62.9458 49.7566 63.4475 49.6017L63.5407 49.5736V48.9825L63.3484 48.9989C61.631 49.1373 60.212 49.719 59.1314 50.7323C58.0439 51.7504 57.4881 53.0124 57.4811 54.4831C57.4791 55.1634 57.5872 55.8014 57.8005 56.3784C58.0158 56.9556 58.3113 57.4575 58.6818 57.8726C59.0453 58.2785 59.4669 58.6632 59.9336 59.0151C60.3972 59.3646 60.8949 59.6812 61.4127 59.9603C61.9284 60.2371 62.4461 60.5116 62.9528 60.7743C63.4616 61.037 63.9493 61.3185 64.4009 61.6093C64.8515 61.8979 65.2541 62.2075 65.6036 62.5312C65.9441 62.8456 66.2155 63.223 66.4127 63.6476C66.609 64.0722 66.7082 64.5439 66.7052 65.0506C66.7052 65.5693 66.595 66.043 66.3887 66.4536C65.5706 67.8346 63.4145 68.2902 61.4848 67.4901C60.0347 66.8171 59.1665 65.7356 59.1294 65.6905L58.9652 65.4842L58.6838 65.9719L58.7659 66.0691C59.1154 66.4816 61.0001 68.5456 63.8151 68.5456C63.9673 68.5456 64.1315 68.5386 64.3048 68.5245H64.3238C66.3306 68.3954 67.9319 67.8676 69.0805 66.9573C70.3033 65.9889 70.9271 64.7151 70.9341 63.174C70.9362 62.4515 70.824 61.776 70.5967 61.166C70.3693 60.5562 70.0579 60.0284 69.6704 59.5968V59.5921Z" fill="black"/>
</g>
</svg>
