<svg width="5" height="7" viewBox="0 0 5 7" fill="none" xmlns="http://www.w3.org/2000/svg">
<path id="Vector" d="M2.24395 7.00006H0V0H1.73826C2.27552 0 2.70219 0.0793527 3.01828 0.238049C3.31847 0.380963 3.55554 0.603112 3.71358 0.873049C3.87152 1.14288 3.95054 1.46027 3.95054 1.80956C3.95054 2.50791 3.61867 2.99999 2.93926 3.28571C3.42906 3.39684 3.80838 3.60322 4.0928 3.92072C4.37721 4.254 4.53525 4.63496 4.53525 5.07937C4.53525 5.44455 4.44045 5.76194 4.26662 6.04766C4.0928 6.31749 3.83995 6.55564 3.50808 6.73023C3.16043 6.90482 2.74954 7.00006 2.24395 7.00006ZM1.75404 0.888835H0.948152V2.99999H1.58022C2.08591 2.99999 2.43356 2.88886 2.65473 2.6826C2.86023 2.49212 2.97082 2.22218 2.97082 1.90479C2.97082 1.22222 2.57571 0.888835 1.75404 0.888835ZM1.83306 3.88894H0.948152V6.09534H1.88041C2.40189 6.09534 2.74954 6.06355 2.93926 5.96831C3.11308 5.88896 3.27101 5.76194 3.38171 5.57147C3.4923 5.39688 3.53976 5.2064 3.53976 5.00003C3.53976 4.77787 3.4923 4.58739 3.36593 4.41269C3.25523 4.23811 3.08141 4.09531 2.86023 4.01596C2.63895 3.92072 2.30708 3.88894 1.83306 3.88894Z" fill="black"/>
</svg>
