<svg width="7" height="7" viewBox="0 0 7 7" fill="none" xmlns="http://www.w3.org/2000/svg">
<path id="Vector" d="M3.45355 0C4.45571 0 5.28817 0.325277 5.95115 0.991223C6.61412 1.65717 6.93791 2.49345 6.93791 3.50007C6.93791 4.50669 6.61412 5.34297 5.93575 6.00891C5.27277 6.65936 4.42481 7.00003 3.40726 7.00003C2.4206 7.00003 1.61883 6.65936 0.971365 6.00891C0.323791 5.34297 0 4.52219 0 3.53108C0 2.50896 0.323791 1.65717 0.971365 0.991223C1.63423 0.325277 2.45139 0 3.45355 0ZM3.48435 0.929316C2.74438 0.929316 2.14301 1.16156 1.66513 1.65717C1.18715 2.13717 0.955858 2.77221 0.955858 3.53108C0.955858 4.25894 1.18715 4.87837 1.66513 5.35848C2.14301 5.85409 2.74438 6.10184 3.45355 6.10184C4.17812 6.10184 4.77939 5.83858 5.27277 5.34297C5.75076 4.84736 5.98205 4.22793 5.98205 3.48457C5.98205 2.75671 5.75076 2.15267 5.27277 1.65717C4.77939 1.17706 4.19362 0.929316 3.48435 0.929316Z" fill="black"/>
</svg>
