<svg width="6" height="7" viewBox="0 0 6 7" fill="none" xmlns="http://www.w3.org/2000/svg">
<path id="Vector" d="M3.71564 3.56198H5.88913V6.44251C5.08778 6.81419 4.30141 7.00003 3.51514 7.00003C2.45139 7.00003 1.60343 6.65936 0.955858 6.00891C0.323788 5.34297 0 4.5377 0 3.56198C0 2.53986 0.323787 1.70357 0.986654 1.02223C1.64963 0.340779 2.48219 0 3.48435 0C3.85433 0 4.19352 0.0465205 4.5173 0.123936C4.84109 0.216857 5.25737 0.371794 5.76594 0.588538V1.57965C4.99528 1.11505 4.22442 0.867295 3.46895 0.867295C2.75968 0.867295 2.1584 1.13055 1.68053 1.64167C1.20254 2.13728 0.955858 2.77222 0.955858 3.50007C0.955858 4.27444 1.20254 4.90937 1.68053 5.40488C2.1584 5.90049 2.79058 6.14824 3.54604 6.14824C3.91603 6.14824 4.36311 6.05532 4.87189 5.86948L4.96438 5.83858V4.42928H3.71564V3.56198Z" fill="black"/>
</svg>
