<svg width="11" height="11" viewBox="0 0 11 11" fill="none" xmlns="http://www.w3.org/2000/svg">
<g id="Group">
<path id="Vector" d="M5.8525 8.85581C6.62796 7.01428 8.53185 2.12537 8.81424 1.13372C8.88471 0.920761 8.95518 0.708418 8.95518 0.637638C8.95653 0.564572 8.93751 0.492651 8.9001 0.429874C8.86278 0.367201 8.80863 0.316379 8.74377 0.28312C8.60294 0.21234 8.39102 0.21234 8.25008 0.21234C8.17961 0.21234 8.10925 0.21234 8.10925 0.14156C8.10925 0.07078 8.17899 0 8.39102 0C8.95581 0 9.59043 0.0701535 9.73064 0.0701535C9.80111 0.0701535 10.4357 0 10.7886 0C10.9294 0 10.9999 -2.85746e-06 10.9999 0.0701535C10.9999 0.141557 10.9301 0.14156 10.859 0.14156C10.7886 0.14156 10.4357 0.14156 10.2244 0.28312C10.013 0.42468 9.80111 0.637641 9.44887 1.5584C9.30804 1.91303 8.60294 3.613 7.89722 5.31359C7.32495 6.71329 6.73751 8.10664 6.13489 9.49346C5.71157 10.3441 5.71156 10.5564 5.57011 10.5564C5.42979 10.5564 5.3587 10.3441 5.07693 9.70642L1.69259 1.2045C1.33973 0.637017 1.1277 0.42468 0.634633 0.28312H0.140934C-2.88069e-06 0.28312 0 0.212964 0 0.14156C0 0.0701563 0.140937 0.07078 0.352861 0.07078C0.987491 0.07078 1.83342 0.140934 1.97435 0.140934C2.11519 0.140934 2.74982 0.07078 3.24351 0.07078C3.52601 0.07078 3.59637 0.0707771 3.59637 0.140934C3.59637 0.212337 3.52601 0.21234 3.45491 0.21234C3.31398 0.21234 3.03221 0.21234 2.89138 0.28312C2.82029 0.42468 2.82029 0.495455 2.82029 0.637638C2.82029 0.849978 2.96174 1.27528 3.17315 1.77074L5.8525 8.85581Z" fill="black"/>
</g>
</svg>
