<svg width="65" height="27" viewBox="0 0 65 27" fill="none" xmlns="http://www.w3.org/2000/svg">
<path id="Vector" d="M5.20575 6.53818C5.20575 7.84507 5.20575 8.87827 5.2736 9.49764C5.34265 9.91015 5.4111 10.1852 5.8222 10.2545C6.02755 10.2545 6.30124 10.3227 6.43864 10.3227C6.50648 10.3227 6.57554 10.392 6.57554 10.392C6.57554 10.4608 6.50709 10.5295 6.3703 10.5295C5.61635 10.5295 4.79466 10.4614 4.72621 10.4614C4.65776 10.4614 3.83546 10.5295 3.42487 10.5295C3.28747 10.5295 3.21902 10.5295 3.21902 10.392C3.21902 10.3233 3.21902 10.3233 3.35653 10.3233C3.49332 10.3233 3.63022 10.3233 3.76701 10.2545C4.04131 10.1858 4.10976 9.91015 4.17821 9.49764C4.24666 8.94641 4.24666 7.84507 4.24666 6.53818V1.30749C4.24666 0.82623 4.10976 0.619972 3.76701 0.550615C3.63022 0.481863 3.42488 0.481863 3.35653 0.481863C3.28808 0.481863 3.21902 0.481863 3.21902 0.413111C3.21902 0.34436 3.28807 0.275608 3.42487 0.275608C3.83546 0.275608 4.72561 0.343759 4.79466 0.343759C4.86311 0.343759 5.68479 0.275608 6.09589 0.275608C6.23279 0.275608 6.30124 0.275608 6.30124 0.413111C6.30124 0.481863 6.2334 0.481863 6.16434 0.481863C6.09589 0.481863 5.9591 0.481863 5.8222 0.550615C5.47945 0.619367 5.34265 0.82623 5.34265 1.30749V6.53818H5.20575ZM9.863 9.22202C8.56167 8.05264 8.21952 6.53818 8.21952 5.23129C8.21952 4.33691 8.56167 2.7538 9.72611 1.51496C10.5478 0.68933 11.7807 0.069961 13.8359 0.069961C14.384 0.069961 15.1366 0.138107 15.8221 0.207465C16.3016 0.276216 16.7806 0.41372 17.1918 0.41372C17.3287 0.41372 17.397 0.482472 17.397 0.551223C17.397 0.689333 17.3293 0.826834 17.3293 1.3087C17.3293 1.72121 17.3293 2.4788 17.2602 2.68505C17.2602 2.89131 17.1918 2.96006 17.1233 2.96006C17.055 2.96006 16.9865 2.89192 16.9865 2.68505C16.9865 2.13433 16.7806 1.58371 16.4379 1.3087C15.9589 0.895585 14.9314 0.551223 13.7669 0.551223C11.9866 0.551223 11.1642 1.10245 10.6847 1.51496C9.72611 2.47879 9.45181 3.64818 9.45181 5.02503C9.45181 7.64012 11.4385 9.98011 14.3155 9.98011C15.3425 9.98011 16.0958 9.842 16.6438 9.29199C16.9181 9.01637 17.1233 8.397 17.1233 8.19075C17.1233 8.05324 17.1918 7.98388 17.2602 7.98388C17.3287 7.98388 17.3287 8.05324 17.3287 8.19075C17.3287 8.25889 17.1918 9.42949 17.055 9.91136C16.9865 10.1864 16.9181 10.1864 16.7122 10.3239C16.1641 10.5307 15.1372 10.6682 14.3149 10.6682C12.3287 10.6682 10.959 10.1858 9.863 9.22202ZM23.425 6.53818C23.425 7.84578 23.425 8.87827 23.4926 9.49764C23.5613 9.91015 23.6299 10.1852 24.0418 10.2545C24.2468 10.2545 24.5204 10.3233 24.6577 10.3233C24.7263 10.3233 24.794 10.392 24.794 10.392C24.794 10.4608 24.7263 10.5295 24.589 10.5295C23.8359 10.5295 23.0131 10.4614 22.9454 10.4614C22.8768 10.4614 22.055 10.5295 21.6441 10.5295C21.5068 10.5295 21.4381 10.5295 21.4381 10.392C21.4381 10.3233 21.4381 10.3233 21.5754 10.3233C21.7117 10.3233 21.85 10.3233 21.9863 10.2545C22.2599 10.1858 22.3286 9.91015 22.3972 9.49764C22.4659 8.94641 22.4659 7.84578 22.4659 6.53818V0.82623H20.479C19.6573 0.82623 19.315 0.963734 19.1091 1.23874C18.9728 1.4456 18.9041 1.58311 18.9041 1.65186C18.8355 1.78936 18.8355 1.78936 18.7678 1.78936C18.6992 1.78936 18.6992 1.72122 18.6992 1.65186C18.6992 1.51436 18.9728 0.34436 18.9728 0.275608C18.9728 0.206856 19.0414 0 19.1091 0C19.1777 0 19.315 0.138104 19.7259 0.138104C20.1368 0.20625 20.6163 0.206255 20.8223 0.206255H25.8903C26.3012 0.206255 26.6435 0.20625 26.8494 0.138104C27.0544 0.138104 27.1917 0.0687518 27.2603 0.0687518C27.328 0.0687518 27.328 0.138104 27.328 0.206856C27.328 0.619367 27.2603 1.51375 27.2603 1.72061C27.2603 1.85812 27.1917 1.92687 27.1917 1.92687C27.124 1.92687 27.124 1.85872 27.0544 1.72061V1.58311C26.9867 1.16999 26.7121 0.894982 25.4108 0.82623H23.6986V6.53818H23.425ZM33.5621 10.1858C31.1643 10.1858 29.2472 8.19014 29.2472 5.02443C29.2472 2.06498 30.9584 0.550615 33.1512 0.550615C35.2733 0.550615 37.2601 2.27123 37.2601 5.50569C37.2601 9.42889 34.7261 10.1858 33.5621 10.1858ZM33.2188 0.0693525C29.5208 0.0693525 27.8762 3.16632 27.8762 5.36819C27.8762 7.77763 29.3835 10.6676 33.0825 10.6676C36.301 10.6676 38.4938 8.19014 38.4938 5.16133C38.5615 1.99622 36.301 0.0693525 33.2188 0.0693525ZM44.9995 5.50569C44.6896 5.69236 44.3342 5.78786 43.9718 5.7813C43.3559 5.7813 42.7391 5.71195 42.5341 5.57445C42.4655 5.5063 42.4655 5.5063 42.4655 5.43694V1.03249C42.4655 0.963734 42.5341 0.894982 42.6028 0.894982C42.7391 0.82623 43.0823 0.82623 43.4932 0.82623C44.9319 0.82623 45.8213 1.85811 45.8213 3.51008C45.8213 4.40445 45.4791 5.16193 44.9995 5.50569ZM50.2745 10.3233C50.2049 10.3233 49.9999 10.3233 49.7253 10.2545C49.3831 10.1858 48.8349 10.0477 48.0817 9.29078C47.3286 8.46515 46.3695 7.2263 45.2731 5.85005C46.5068 4.74881 46.9177 3.71633 46.9177 2.7531C46.9177 1.78936 46.3009 1.16999 45.9586 0.894982C45.2731 0.413114 44.315 0.275608 43.4932 0.275608C43.0823 0.275608 42.0546 0.343759 41.9173 0.343759C41.8496 0.343759 41.0279 0.275608 40.411 0.275608C40.2737 0.275608 40.2051 0.275608 40.2051 0.413111C40.2051 0.481863 40.2737 0.481863 40.3424 0.481863C40.4797 0.481863 40.6846 0.481863 40.8219 0.550615C41.2328 0.619367 41.3701 0.894982 41.3701 1.30749V6.60693C41.3701 7.91453 41.3701 8.94702 41.3014 9.56639C41.2328 9.9789 41.1641 10.2539 40.8906 10.3233C40.7533 10.3233 40.6159 10.392 40.4797 10.392C40.411 10.392 40.3424 10.4608 40.3424 10.4608C40.3424 10.5295 40.411 10.5983 40.5483 10.5983C40.9582 10.5983 41.781 10.5301 41.8496 10.5301C41.9173 10.5301 42.7391 10.5983 43.4932 10.5983C43.6305 10.5983 43.6982 10.5301 43.6982 10.4608C43.6982 10.392 43.6982 10.392 43.5619 10.392C43.4246 10.392 43.151 10.392 42.945 10.3233C42.5341 10.2545 42.4655 9.9789 42.3968 9.56639C42.3292 9.01517 42.3292 7.91453 42.3292 6.60693V6.26256C42.3292 6.19442 42.3292 6.12506 42.3968 6.12506H44.0404C44.1101 6.12506 44.1777 6.12506 44.2464 6.19381C44.52 6.53818 45.1368 7.43256 45.685 8.18954C46.4381 9.22203 46.9177 9.84139 47.5335 10.1858C47.8768 10.392 48.219 10.4608 48.9732 10.4608H49.9313C50.2049 10.4608 50.2745 10.4608 50.2745 10.3233C50.4108 10.3233 50.3422 10.3233 50.2745 10.3233ZM52.6712 6.53818C52.6712 7.84507 52.6712 8.87827 52.7389 9.49764C52.8085 9.91015 52.8772 10.1852 53.2881 10.2545C53.493 10.2545 53.7666 10.3227 53.9039 10.3227C53.9726 10.3227 54.0412 10.392 54.0412 10.392C54.0412 10.4608 53.9726 10.5295 53.8353 10.5295C53.0821 10.5295 52.2603 10.4614 52.1917 10.4614C52.123 10.4614 51.3013 10.5295 50.8904 10.5295C50.7541 10.5295 50.6844 10.5295 50.6844 10.392C50.6844 10.3233 50.6844 10.3233 50.8217 10.3233C50.959 10.3233 51.0963 10.3233 51.2326 10.2545C51.5072 10.1858 51.5759 9.91015 51.6435 9.49764C51.7121 8.94641 51.7121 7.84507 51.7121 6.53818V1.30749C51.7121 0.82623 51.5759 0.619972 51.2326 0.550615C51.0963 0.481863 50.8903 0.481863 50.8217 0.481863C50.7541 0.481863 50.6844 0.481863 50.6844 0.413111C50.6844 0.34436 50.7541 0.275608 50.8904 0.275608C51.3699 0.275608 52.1917 0.343759 52.2603 0.343759C52.329 0.343759 53.1508 0.275608 53.5617 0.275608C53.698 0.275608 53.7666 0.275608 53.7666 0.413111C53.7666 0.481863 53.698 0.481863 53.6303 0.481863C53.5617 0.481863 53.4244 0.481863 53.2881 0.550615C52.9448 0.619367 52.8085 0.82623 52.8085 1.30749V6.53818H52.6712ZM60.8215 5.98696H58.2198C58.1502 5.98696 58.1502 5.98695 58.1502 5.91881L59.3152 2.27123C59.3829 2.06497 59.4525 2.06497 59.5202 2.27123L60.8215 5.91881C60.8901 5.98695 60.8901 5.98696 60.8215 5.98696ZM64.8628 10.3233C64.7255 10.3233 64.5206 10.3233 64.3146 10.2545C64.041 10.1858 63.6301 9.9789 63.1506 8.74015C62.3288 6.67568 60.2057 1.10124 59.9997 0.619975C59.8624 0.206859 59.7948 0.137504 59.7261 0.137504C59.6575 0.137504 59.5888 0.206859 59.4525 0.688727L56.3703 9.01577C56.0957 9.70329 55.8908 10.1858 55.2053 10.2545H54.7944C54.7257 10.2545 54.6581 10.2545 54.6581 10.3233C54.6581 10.392 54.7257 10.4608 54.9317 10.4608C55.5475 10.4608 56.3006 10.3926 56.439 10.3926C56.5752 10.3926 57.1921 10.4608 57.4657 10.4608C57.603 10.4608 57.6716 10.4608 57.6716 10.3233C57.6716 10.2545 57.603 10.2545 57.5343 10.2545H57.397C57.1921 10.2545 56.9175 10.117 56.9175 9.8414C56.9175 9.56639 56.9861 9.29078 57.1234 8.94702L57.9452 6.53757C57.9452 6.46942 58.0139 6.40068 58.0815 6.40068H60.9588C61.0274 6.40068 61.0274 6.40067 61.0961 6.46882L62.3288 9.77265C62.3964 9.9789 62.3288 10.117 62.2601 10.117C62.1915 10.117 62.1915 10.1852 62.1915 10.1852C62.1915 10.2545 62.3288 10.2545 62.6024 10.2545H64.7255C64.8628 10.2545 65.0001 10.2545 65.0001 10.117C65.0001 10.3233 64.9315 10.3233 64.8628 10.3233ZM0.205246 23.5366C4.81401e-07 23.4685 0 23.3991 0 23.0548C0 22.3672 0.0684514 21.816 0.0684514 21.6098C0.0684514 21.4723 0.136797 21.4035 0.205246 21.4035C0.274301 21.4035 0.274306 21.4717 0.274306 21.541C0.274306 21.6785 0.274306 21.8854 0.342149 22.0229C0.548 23.0548 1.43813 23.3991 2.32888 23.3991C3.63022 23.3991 4.24666 22.436 4.24666 21.6098C4.24666 20.6466 3.83547 20.1647 2.67103 19.2009L2.05458 18.6503C0.616447 17.4803 0.274306 16.6547 0.274306 15.6915C0.274306 14.2458 1.36969 13.2821 3.08222 13.2821C3.63022 13.2821 3.97297 13.3515 4.31501 13.4202C4.58941 13.489 4.65776 13.489 4.79466 13.489C4.93146 13.489 4.93146 13.489 4.93146 13.5577C4.93146 13.6265 4.8631 14.0396 4.8631 15.0027C4.8631 15.2096 4.86311 15.3471 4.79466 15.3471C4.72621 15.3471 4.72621 15.2783 4.65776 15.1408C4.65776 15.0033 4.58941 14.5896 4.45191 14.4527C4.38407 14.3146 4.04132 13.764 2.74008 13.764C1.78089 13.764 1.09599 14.3152 1.09599 15.3471C1.09599 16.104 1.43814 16.5859 2.74008 17.6184L3.15057 17.8934C4.72621 19.1322 5.1368 19.9584 5.1368 21.0591C5.1368 21.6104 4.93145 22.6423 3.97297 23.3304C3.42427 23.7435 2.67103 23.881 1.91769 23.881C1.36969 23.881 0.753241 23.8122 0.205246 23.5366ZM12.8083 23.3991C10.411 23.3991 8.49322 21.4035 8.49322 18.2378C8.49322 15.2783 10.2058 13.7646 12.3971 13.7646C14.5208 13.7646 16.5069 15.4846 16.5069 18.7197C16.5069 22.6423 14.0412 23.3991 12.8083 23.3991ZM26.7121 25.326C26.6445 25.326 26.5748 25.3261 26.5072 25.3947C25.5481 25.7392 24.5204 25.9461 23.8359 25.9461C23.1514 25.9461 21.0959 25.8767 18.151 24.3629L15.4109 22.9173C16.3016 22.3666 17.8077 20.7841 17.8077 18.3753C17.8077 15.2096 15.5478 13.2827 12.534 13.2827C8.83537 13.2827 7.19198 16.3797 7.19198 18.5816C7.19198 20.991 8.69857 23.881 12.4656 23.881C13.1505 23.881 14.1096 23.6741 14.5892 23.3991L16.849 24.6379C19.0414 25.8767 20.7537 26.4273 22.3972 26.4273C24.3841 26.4273 25.8904 25.8767 26.6445 25.4635C26.7121 25.3955 26.7808 25.3955 26.7808 25.326C26.7808 25.3947 26.7798 25.326 26.7121 25.326Z" fill="black"/>
</svg>
