<svg width="36" height="29" viewBox="0 0 36 29" fill="none" xmlns="http://www.w3.org/2000/svg">
<g id="Group">
<path id="Vector" d="M16.856 4.59985C16.3704 5.29674 14.2202 8.43317 13.527 15.4028C13.2488 18.6791 13.1098 20.8395 13.0413 22.2339C12.2775 22.3029 11.5148 22.3029 10.7521 22.3726C10.8911 20.2818 11.0987 17.5638 11.7234 14.6363C13.2488 7.94516 16.6485 4.66948 16.856 4.59985ZM6.93652 22.8606C6.2429 22.9302 5.54938 22.9998 4.85576 23.1397C4.9944 20.2818 5.48006 17.5632 7.00584 14.009C10.1969 6.48164 15.5381 4.25171 15.5381 4.25171C15.5381 4.25171 12.07 5.78475 9.22555 13.0336C7.7696 16.5878 7.1451 20.0027 6.93652 22.8606ZM20.6022 4.25171C20.6022 4.25171 25.9434 6.48164 29.0649 13.9394C30.5914 17.4942 31.0066 20.2122 31.2151 23.0701C30.5219 23.0005 29.8277 22.9302 29.1345 22.791C28.8789 19.4462 28.1304 16.1579 26.9148 13.0336C24.0714 5.78475 20.6022 4.25171 20.6022 4.25171ZM22.5449 15.4028C21.9201 8.43378 19.77 5.22711 19.2148 4.59985C19.3538 4.7391 22.7534 7.94516 24.2779 14.6363C24.9026 17.5638 25.1807 20.2818 25.2492 22.3726C24.4865 22.3036 23.7237 22.3036 22.961 22.2333C23.0295 20.8395 22.8915 18.6791 22.5449 15.4028ZM18.0349 4.87897C18.2435 5.57525 19.2148 9.54845 19.5614 12.1272C20.1851 16.867 19.908 22.1637 19.908 22.1637H16.1628C16.1628 22.1637 15.9542 16.867 16.5094 12.1272C16.9255 9.54906 17.8263 5.57587 18.0349 4.87897ZM0 28.5757C3.3993 27.3212 10.1273 26.485 17.8273 26.485C25.7349 26.485 32.6016 27.3908 36.0001 28.7156V0H0.000608445L0 28.5757Z" fill="black"/>
</g>
</svg>
