<svg width="110" height="110" viewBox="0 0 110 110" fill="none" xmlns="http://www.w3.org/2000/svg">
<g id="SVG">
<path id="Vector" d="M43.1104 98.2142C66.9196 104.594 91.3925 90.4644 97.7722 66.6552C104.152 42.846 90.0224 18.3731 66.2132 11.9934C42.404 5.61375 17.9311 19.7432 11.5514 43.5524C5.17177 67.3616 19.3012 91.8345 43.1104 98.2142Z" fill="#CAF291"/>
<path id="Vector_2" d="M62.3898 25.6677C46.5424 21.4213 30.1949 30.8596 25.9486 46.707C21.7024 62.5545 31.1406 78.9019 46.9879 83.1482C62.8354 87.3945 79.1829 77.9563 83.4291 62.1089C87.6755 46.2614 78.2372 29.914 62.3898 25.6677ZM47.9506 79.5557C34.0841 75.8401 25.8257 61.5362 29.5411 47.6696C33.2567 33.8031 47.5608 25.5447 61.4273 29.2602C75.2937 32.9758 83.5521 47.2797 79.8366 61.1462C76.1211 75.0128 61.8171 83.2712 47.9506 79.5557ZM67.4824 67.2215C62.8846 71.8187 56.355 73.5493 50.0156 71.8508C43.676 70.1522 38.8861 65.3886 37.2028 59.1081C36.9369 58.1161 37.5255 57.0962 38.5175 56.8304C39.5097 56.5646 40.5293 57.1533 40.7951 58.1451C42.1304 63.1269 45.9372 66.9077 50.9781 68.2583C56.0188 69.6088 61.2055 68.2381 64.8526 64.5913C65.5788 63.865 66.7563 63.8652 67.4824 64.5915C68.2087 65.3178 68.2086 66.4952 67.4824 67.2215ZM41.1691 43.1978C41.7001 41.2161 43.7444 40.0358 45.7262 40.5668C47.7081 41.0978 48.8883 43.1421 48.3573 45.1239C47.8263 47.1058 45.782 48.286 43.8002 47.755C41.8183 47.224 40.6381 45.1797 41.1691 43.1978ZM72.0026 51.4596C71.4715 53.4414 69.4272 54.6218 67.4454 54.0907C65.4636 53.5597 64.2833 51.5154 64.8144 49.5335C65.3454 47.5517 67.3896 46.3715 69.3715 46.9025C71.3532 47.4336 72.5336 49.4779 72.0026 51.4596Z" fill="#0C0C0C"/>
</g>
</svg>
