<svg width="118" height="20" viewBox="0 0 118 20" fill="none" xmlns="http://www.w3.org/2000/svg">
<path id="Vector" fill-rule="evenodd" clip-rule="evenodd" d="M64.688 5.21044H70.6178C70.9243 5.21044 71.1955 5.04823 71.26 4.75023C71.2711 4.71343 71.2741 4.67109 71.2741 4.62492C71.2741 2.10993 69.9787 0 67.414 0C64.9168 0 63.0598 1.90537 63.0598 4.85467C63.0598 7.60325 64.9501 9.70964 67.7073 9.70964C69.1107 9.70964 70.149 9.10194 70.6712 8.71935C70.9767 8.49272 71.017 8.22416 70.8446 7.91366L70.6894 7.63934C70.512 7.32309 70.1732 7.23225 69.9081 7.43721C69.5089 7.74882 68.7639 8.17022 67.8102 8.17022C66.2929 8.17022 64.8241 7.21018 64.688 5.21044ZM8.9472 9.11635C8.9472 9.40972 9.09116 9.55561 9.38251 9.55561H9.80401C10.095 9.55561 10.2397 9.40972 10.2397 9.11635V5.42437H15.0774V9.11635C15.0774 9.40972 15.2355 9.55561 15.5123 9.55561H15.948C16.2232 9.55561 16.3699 9.40972 16.3699 9.11635V0.586028C16.3699 0.293467 16.2232 0.147184 15.948 0.147184H15.5123C15.2355 0.147184 15.0774 0.293467 15.0774 0.586028V4.29163H10.2397V0.586028C10.2397 0.293467 10.095 0.147184 9.80401 0.147184H9.38251C9.09116 0.147184 8.9472 0.293467 8.9472 0.586028V9.11635ZM19.1807 9.55581C18.8919 9.55581 18.745 9.40983 18.745 9.11646V0.586128C18.745 0.293567 18.8919 0.147284 19.1807 0.147284H23.7162C24.0053 0.147284 24.1504 0.293567 24.1504 0.586128V0.853183C24.1504 1.13334 24.0053 1.29323 23.7162 1.29323H20.0371V4.23819H22.9515C23.2275 4.23819 23.3868 4.38488 23.3868 4.67865V4.9452C23.3868 5.23857 23.2275 5.38565 22.9515 5.38565H20.0371V8.40985H23.9397C24.2295 8.40985 24.3761 8.55765 24.3761 8.85101V9.11646C24.3761 9.40983 24.2295 9.55581 23.9397 9.55581H19.1807ZM76.217 9.02896C76.1101 9.33513 76.2442 9.53463 76.5719 9.53463H77.0185C77.2554 9.53463 77.4278 9.41628 77.4923 9.17685L78.3079 6.83444H81.8061L82.6348 9.17685C82.7124 9.41628 82.8707 9.53463 83.1227 9.53463H83.5683C83.8849 9.53463 84.029 9.33513 83.9242 9.02896L80.8726 0.506083C80.7939 0.255359 80.6226 0.147891 80.3846 0.147891H79.7535C79.5045 0.147891 79.3463 0.255359 79.2676 0.506083L76.217 9.02896ZM85.3336 9.09458C85.3336 9.38906 85.4777 9.53463 85.7681 9.53463H86.1885C86.4758 9.53463 86.622 9.38906 86.622 9.09458V5.79838H88.609L90.4226 9.23078C90.5285 9.44218 90.6878 9.53463 90.9368 9.53463H91.461C91.7917 9.53463 91.9227 9.32121 91.7513 9.01655L90.0829 5.89224C89.9246 5.60008 89.8057 5.46731 89.8057 5.46731V5.43979C90.8309 5.0944 91.461 4.05562 91.461 2.85957C91.461 1.66241 90.8833 0.799048 90.0022 0.400533C89.6202 0.227436 89.1735 0.147891 88.2682 0.147891H85.7681C85.4777 0.147891 85.3336 0.294174 85.3336 0.586735V9.09458ZM109.592 9.02896C109.488 9.33513 109.621 9.53463 109.947 9.53463H110.394C110.634 9.53463 110.804 9.41628 110.87 9.17685L111.684 6.83444H115.183L116.012 9.17685C116.091 9.41628 116.249 9.53463 116.499 9.53463H116.947C117.261 9.53463 117.405 9.33513 117.302 9.02896L114.251 0.506083C114.17 0.255359 114.001 0.147891 113.763 0.147891H113.132C112.881 0.147891 112.724 0.255359 112.644 0.506083L109.592 9.02896ZM113.064 2.76531L112.025 5.74405H114.84L113.814 2.76531C113.656 2.28725 113.459 1.43427 113.459 1.43427H113.432C113.432 1.43427 113.223 2.28725 113.064 2.76531ZM110.601 19.3759C110.802 19.5443 111.314 19.8951 112.028 19.8951C112.956 19.8951 113.512 19.2993 113.512 18.5432C113.512 17.6944 112.814 17.3919 112.167 17.1107C111.608 16.8681 111.086 16.6418 111.086 16.0929C111.086 15.5752 111.551 15.2675 112.105 15.2675C112.548 15.2675 112.867 15.4619 113.04 15.5814C113.131 15.6377 113.221 15.6377 113.283 15.5325L113.345 15.4204C113.4 15.33 113.387 15.2524 113.303 15.1899C113.123 15.049 112.701 14.8037 112.119 14.8037C111.267 14.8037 110.594 15.3156 110.594 16.1201C110.594 16.9232 111.266 17.2226 111.902 17.5069C112.475 17.7619 113.019 18.0059 113.019 18.5926C113.019 19.1037 112.611 19.4324 112.028 19.4324C111.483 19.4324 111.072 19.1461 110.907 19.006C110.81 18.9354 110.734 18.9424 110.664 19.0271L110.581 19.131C110.512 19.2298 110.533 19.3074 110.601 19.3759ZM115.769 19.635C115.769 19.7479 115.832 19.8104 115.943 19.8104H116.082C116.192 19.8104 116.247 19.7479 116.247 19.635V15.3216H117.828C117.938 15.3216 118 15.2588 118 15.1466V15.0628C118 14.951 117.938 14.8882 117.828 14.8882H114.196C114.087 14.8882 114.023 14.951 114.023 15.0628V15.1466C114.023 15.2588 114.087 15.3216 114.196 15.3216H115.769V19.635ZM107.757 16.0361L107.106 17.8224H108.783L108.138 16.0361C108.062 15.8052 107.958 15.3923 107.958 15.3923H107.944C107.944 15.3923 107.833 15.8052 107.757 16.0361ZM105.979 19.6078C105.944 19.7328 105.992 19.8104 106.124 19.8104H106.269C106.366 19.8104 106.436 19.7681 106.464 19.6703L106.976 18.2418H108.93L109.449 19.6703C109.477 19.7681 109.545 19.8104 109.644 19.8104H109.796C109.92 19.8104 109.969 19.7328 109.935 19.6078L108.258 15.0273C108.229 14.9299 108.161 14.8883 108.07 14.8883H107.842C107.751 14.8883 107.683 14.9299 107.655 15.0273L105.979 19.6078ZM103.356 19.8104C103.245 19.8104 103.19 19.7479 103.19 19.635V15.0628C103.19 14.951 103.245 14.8882 103.356 14.8882H105.58C105.692 14.8882 105.753 14.951 105.753 15.0628V15.1466C105.753 15.2588 105.692 15.3216 105.58 15.3216H103.668V17.1712H105.289C105.399 17.1712 105.455 17.2266 105.455 17.3385V17.4292C105.455 17.5421 105.399 17.6047 105.289 17.6047H103.668V19.635C103.668 19.7479 103.606 19.8104 103.502 19.8104H103.356ZM99.5946 19.635C99.5946 19.7479 99.6501 19.8104 99.761 19.8104H102.156C102.268 19.8104 102.331 19.7479 102.331 19.635V19.5514C102.331 19.4395 102.268 19.3759 102.156 19.3759H100.072V15.0629C100.072 14.9511 100.01 14.8883 99.9072 14.8883H99.761C99.6501 14.8883 99.5946 14.9511 99.5946 15.0629V19.635ZM95.8041 19.8104C95.6922 19.8104 95.6367 19.7479 95.6367 19.635V15.0628C95.6367 14.951 95.6922 14.8882 95.8041 14.8882H98.2054C98.3173 14.8882 98.3798 14.951 98.3798 15.0628V15.1466C98.3798 15.2588 98.3173 15.3216 98.2054 15.3216H96.1146V17.1147H97.7911C97.903 17.1147 97.9645 17.1711 97.9645 17.282V17.3738C97.9645 17.4847 97.903 17.5492 97.7911 17.5492H96.1146V19.3759H98.3315C98.4423 19.3759 98.5038 19.4395 98.5038 19.5514V19.635C98.5038 19.7479 98.4423 19.8104 98.3315 19.8104H95.8041ZM91.7423 19.3759V17.4444H92.9833C93.5499 17.4444 93.9451 17.8285 93.9451 18.4162C93.9451 19.0049 93.5771 19.3759 92.9893 19.3759H91.7423ZM91.7423 15.3224V17.0249H92.9268C93.4178 17.0249 93.7515 16.6744 93.7515 16.163C93.7515 15.6593 93.44 15.3224 92.9208 15.3224H91.7423ZM91.2594 19.635C91.2594 19.7479 91.3169 19.8104 91.4267 19.8104H92.9793C93.7958 19.8104 94.4401 19.3064 94.4401 18.4313C94.4401 17.8355 94.1225 17.3536 93.6214 17.2135V17.1984C93.9965 17.01 94.2455 16.6379 94.2455 16.1272C94.2455 15.3562 93.692 14.8882 92.9228 14.8882H91.4267C91.3169 14.8882 91.2594 14.951 91.2594 15.0628V19.635ZM101.181 9.53463C100.893 9.53463 100.747 9.38906 100.747 9.09458V0.586735C100.747 0.294174 100.893 0.147891 101.181 0.147891H101.679C101.93 0.147891 102.077 0.227436 102.206 0.440051L106.166 6.25043C106.494 6.75611 106.928 7.60667 106.928 7.60667H106.954C106.954 7.60667 106.876 6.76972 106.876 6.25043V0.586735C106.876 0.294174 107.034 0.147891 107.309 0.147891H107.73C108.021 0.147891 108.164 0.294174 108.164 0.586735V9.09458C108.164 9.38906 108.021 9.53463 107.73 9.53463H107.23C106.993 9.53463 106.837 9.45469 106.718 9.24278L102.746 3.44399C102.416 2.92833 101.983 2.07454 101.983 2.07454H101.955C101.955 2.07454 102.036 2.9124 102.036 3.44399V9.09458C102.036 9.38906 101.89 9.53463 101.604 9.53463H101.181ZM93.4491 9.09458C93.4491 9.38906 93.5932 9.53463 93.8836 9.53463H98.6298C98.9212 9.53463 99.0654 9.38906 99.0654 9.09458V8.82954C99.0654 8.53728 98.9212 8.39181 98.6298 8.39181H94.7384V5.37386H97.6449C97.9211 5.37386 98.0794 5.22758 98.0794 4.93341V4.66907C98.0794 4.375 97.9211 4.22872 97.6449 4.22872H94.7384V1.29112H98.406C98.6984 1.29112 98.8395 1.13163 98.8395 0.851067V0.586735C98.8395 0.294174 98.6984 0.147891 98.406 0.147891H93.8836C93.5932 0.147891 93.4491 0.294174 93.4491 0.586735V9.09458ZM86.625 1.29132V4.65385H88.4931C89.5062 4.65385 90.1504 3.96388 90.1504 2.9126C90.1504 2.23463 89.8601 1.70344 89.2814 1.45121C89.0445 1.34324 88.7703 1.29132 88.1775 1.29132H86.625ZM79.6941 2.76531L78.6557 5.74405H81.4704L80.4451 2.76531C80.2858 2.28725 80.0903 1.43427 80.0903 1.43427H80.064C80.064 1.43427 79.8523 2.28725 79.6941 2.76531ZM3.62646 9.55581C3.34932 9.55581 3.20305 9.40983 3.20305 9.11646V1.29323H0.434506C0.14507 1.29323 0 1.13334 0 0.853183V0.586128C0 0.293567 0.14507 0.147284 0.434506 0.147284H7.26492C7.54246 0.147284 7.68713 0.293567 7.68713 0.586128V0.853183C7.68713 1.13334 7.54246 1.29323 7.26492 1.29323H4.49598V9.11646C4.49598 9.40983 4.3374 9.55581 4.06137 9.55581H3.62646ZM64.7525 3.86367H69.7418C69.7418 2.84858 69.0209 1.39183 67.3837 1.39183C66.1004 1.39183 64.9047 2.29441 64.7525 3.86367ZM57.4092 2.63647C57.4092 1.84912 58.0786 1.46422 58.9497 1.46422C59.8187 1.46422 60.4306 1.78318 60.8157 1.99701C61.1242 2.16658 61.4065 2.12776 61.6132 1.79407L61.7765 1.52046C61.966 1.19484 61.9045 0.921634 61.5769 0.71406C61.1424 0.43773 60.3086 0 59.0404 0C57.2449 0 55.7236 0.915078 55.7236 2.67528C55.7236 4.45403 57.25 5.02767 58.5686 5.52347C59.5717 5.90071 60.4548 6.23279 60.4548 7.01611C60.4548 7.80548 59.8015 8.24392 58.8952 8.24392C57.8256 8.24392 57.0655 7.76586 56.6471 7.49306C56.3336 7.28619 56.0462 7.3006 55.8134 7.61998L55.6329 7.87726C55.4313 8.1799 55.4565 8.47407 55.7599 8.70302C56.269 9.0841 57.3175 9.70964 58.8408 9.70964C60.8157 9.70964 62.1374 8.55634 62.1374 6.98083C62.1374 5.19593 60.6222 4.63288 59.3076 4.14444C58.2994 3.77012 57.4092 3.43955 57.4092 2.63647ZM51.2778 9.70964C53.2527 9.70964 54.5764 8.55634 54.5764 6.98083C54.5764 5.19593 53.0601 4.63288 51.7455 4.14444C50.7374 3.77012 49.8472 3.43955 49.8472 2.63647C49.8472 1.84912 50.5176 1.46422 51.3877 1.46422C52.2577 1.46422 52.8706 1.78318 53.2527 1.99701C53.5642 2.16658 53.8435 2.12776 54.0522 1.79407L54.2145 1.52046C54.405 1.19484 54.3445 0.921634 54.0159 0.71406C53.5803 0.43773 52.7466 0 51.4784 0C49.6829 0 48.1616 0.915078 48.1616 2.67528C48.1616 4.45403 49.6869 5.02767 51.0046 5.52347C52.0077 5.90071 52.8908 6.23279 52.8908 7.01611C52.8908 7.80548 52.2405 8.24392 51.3332 8.24392C50.2626 8.24392 49.5024 7.76586 49.0841 7.49306C48.7715 7.28619 48.4842 7.3006 48.2524 7.61998L48.0703 7.87726C47.8676 8.1799 47.8938 8.47407 48.1969 8.70302C48.707 9.0841 49.7555 9.70964 51.2778 9.70964Z" fill="black"/>
</svg>
