<svg width="76" height="50" viewBox="0 0 76 50" fill="none" xmlns="http://www.w3.org/2000/svg">
<g id="Group">
<path id="Vector" fill-rule="evenodd" clip-rule="evenodd" d="M44.8723 28.5866C47.587 32.9665 51.3571 35.1877 56.0786 35.1877C59.8958 35.1877 63.1092 33.9672 65.6286 31.5595C65.906 31.2949 66.1653 31.0203 66.4117 30.7394L60.807 49.3645H52.8111C49.6979 49.3645 46.9311 47.3969 45.9318 44.4725L37.8307 20.7541L28.0594 49.3645H14.8547L0 0H13.5344L22.1174 31.8837L32.6807 0H42.7855L48.8417 18.2875H50.6201L50.7293 18.1575C52.3595 16.2142 54.3192 15.2289 56.5512 15.2289C58.556 15.2289 60.2483 15.9204 61.5851 17.2887C62.9189 18.6118 63.5958 20.3441 63.5958 22.4371C63.5958 24.4754 62.9089 26.2327 61.5591 27.6562C60.2112 29.0354 58.5189 29.7346 56.5292 29.7346C55.0041 29.7346 53.7003 29.3798 52.6599 28.682C51.5975 27.9563 50.521 26.6801 49.4576 24.8886L49.2383 24.5205L44.7091 28.323L44.8723 28.5866ZM69.2045 5.10876V0H75.9997L69.6631 21.2541C69.3977 18.2374 68.2842 15.6861 66.3386 13.658C64.1005 11.2935 61.1966 10.0942 57.7068 10.0942C57.5035 10.0942 57.2802 10.1031 57.0369 10.1179C56.9948 10.1207 56.9528 10.1239 56.9107 10.1271C56.8837 10.1292 56.8566 10.1312 56.8296 10.1332L58.3206 5.10876H69.2045Z" fill="black"/>
</g>
</svg>
