<svg width="80" height="69" viewBox="0 0 80 69" fill="none" xmlns="http://www.w3.org/2000/svg">
<g id="Group">
<path id="Vector" d="M38.5478 43.2315L38.4187 43.269V43.7077H44.314V24.3955H38.4187V24.8318L38.5428 24.8717C39.2769 25.1109 39.6664 26.3588 39.6664 28.477V39.6262C39.6664 41.7678 39.2789 43.0134 38.5478 43.2292V43.2315Z" fill="black"/>
<path id="Vector_2" d="M52.0861 30.1225L52.1572 30.3054L52.5368 30.1154L52.2954 24.4899H45.4657V25.0318L46.6895 25.1631C47.9673 25.318 49.0438 25.7942 49.887 26.5777C50.7412 27.3684 51.4793 28.5624 52.0841 30.1225H52.0861Z" fill="black"/>
<path id="Vector_3" d="M45.4677 43.7075H53.0374L53.6263 38.157L53.6403 38.0326L53.2647 37.845L53.1856 38.0068C52.4967 39.4097 51.5964 40.5898 50.5108 41.5094C49.4343 42.4219 48.3278 42.9239 47.2192 43.006L45.4677 43.1609V43.7075Z" fill="black"/>
<path id="Vector_4" d="M66.1464 35.9629L65.6476 37.1101L71.3617 37.2368L72.244 39.6106C72.4573 40.1759 72.5955 40.6849 72.6566 41.1212C72.7146 41.5434 72.7056 41.8976 72.6305 42.1744C72.5574 42.4418 72.4403 42.6576 72.281 42.8148C72.1218 42.9743 71.9105 43.0915 71.6571 43.1643L71.4799 43.2159V43.7742H79.9228V43.2182L79.7466 43.1667C79.4963 43.0939 79.2759 42.9673 79.0907 42.7913C78.9545 42.6646 78.7152 42.3668 78.3316 41.663C78.0172 41.086 77.6446 40.2556 77.227 39.193L71.4869 24.4855L71.4258 24.3283H68.8562L67.6395 27.305L70.9522 35.8434L66.1493 35.9629H66.1464Z" fill="black"/>
<path id="Vector_5" d="M53.9846 35.193C54.9339 35.1883 55.7551 35.1813 56.2888 35.1672C56.5402 35.1672 56.7505 35.1601 56.9217 35.1531L59.955 43.8064H65.9515V43.1965L65.7542 43.1355C65.5229 43.0651 65.0022 42.6711 64.147 40.8438L61.8397 36.0374L61.7716 35.9342L61.6665 35.9084C60.4758 35.6129 59.4253 35.3056 58.535 34.9912C60.0652 34.7332 61.317 34.2265 62.2663 33.4807C63.436 32.5611 64.0268 31.3672 64.0268 29.9268C64.0268 28.2474 63.3218 26.8915 61.9288 25.8993C60.5649 24.9259 58.549 24.4286 55.9323 24.4215H55.6539V25.1534L55.9023 25.1792C56.9177 25.2871 57.7099 25.7304 58.2556 26.4975C58.8164 27.2833 59.0998 28.4373 59.0998 29.9292C59.0998 30.8816 58.9726 31.6932 58.7313 32.3288C58.1154 33.6495 56.6834 34.4212 54.8829 34.3955H54.8238H53.9846L52.7498 34.3696C51.7484 34.3462 50.9703 34.1444 50.4356 33.7692C49.9088 33.3986 49.5173 32.845 49.2729 32.1249L49.2048 31.9208H48.5629V38.0524H49.2118L49.2759 37.8389C49.5213 37.0039 49.9198 36.3588 50.4596 35.9154C50.9933 35.4792 51.7624 35.2446 52.7468 35.2211L53.9615 35.1953H53.9846V35.193Z" fill="black"/>
<path id="Vector_6" d="M46.5338 65.6965C46.0391 64.5659 45.7958 62.7623 45.8048 60.3322L45.8378 52.9385C45.8418 51.775 45.95 50.9024 46.1583 50.3418C46.3536 49.8164 46.637 49.4927 47.0025 49.38L47.1267 49.3402V48.9063L40.28 48.8757H40.1017V49.3073L40.2239 49.3496C40.9359 49.5888 41.3064 50.8251 41.2974 52.9198L41.2644 60.3134C41.2433 65.2319 43.7909 67.8927 48.8361 68.2231L49.0253 68.2351V67.6954L48.8821 67.6673C47.8046 67.456 47.0115 66.7941 46.5338 65.6965Z" fill="black"/>
<path id="Vector_7" d="M57.9862 49.3802V49.0119L52.93 48.9884H52.7848V49.2464L52.7938 49.3614L52.906 49.3802C53.4037 49.4599 53.8914 49.9032 54.357 50.7008C54.8337 51.5147 55.0721 52.5445 55.065 53.7619L55.037 60.1751C55.028 62.3003 54.6034 64.0502 53.7742 65.38C52.9531 66.6959 51.8185 67.477 50.3894 67.7073L50.2763 67.7234V68.0638L50.2883 68.2161L50.4405 68.195C52.1029 67.9627 53.4408 67.1165 54.4181 65.6785C55.3885 64.2514 55.8882 62.4011 55.8972 60.1774L55.9253 53.7643C55.9303 52.5633 56.1626 51.5358 56.6152 50.7125C57.0489 49.9197 57.4825 49.4669 57.876 49.4012L57.9862 49.3825V49.3802Z" fill="black"/>
<path id="Vector_8" d="M74.8677 57.4607C74.362 57.8173 73.6229 58.0072 72.6666 58.026L71.5761 58.0565L71.5721 58.948L72.6646 58.9902C73.5999 59.0184 74.329 59.2459 74.8307 59.6658C75.3394 60.0928 75.7139 60.7192 75.9462 61.5285L76.0213 61.7842H76.7694L76.7944 55.9734V55.6426L76.0584 55.6402L75.9763 55.8841C75.745 56.5762 75.3714 57.1088 74.8707 57.4607H74.8677Z" fill="black"/>
<path id="Vector_9" d="M79.2367 62.3843C78.5677 63.7517 77.6985 64.8964 76.653 65.7906C75.6266 66.6649 74.5761 67.1465 73.5286 67.2216L71.4607 67.3759L71.4567 68.202L79.3368 68.2371L79.9727 62.3937L79.3789 62.0888L79.2337 62.3866L79.2367 62.3843Z" fill="black"/>
<path id="Vector_10" d="M25.8433 9.06187C25.3463 9.53334 24.7111 9.66943 24.3736 9.73983C23.9587 9.82195 23.6469 9.83126 23.6375 9.83126L21.3075 9.96735L22.0014 10.7062L24.7463 10.6828L27.7936 19.0546L27.8522 19.2165H33.9441V18.6582L33.7659 18.6066C33.5205 18.5339 32.9787 18.1397 32.0905 16.3219L29.7201 11.5624L29.6571 11.4733L29.5657 11.4522C28.2952 11.1495 27.1794 10.8329 26.2395 10.5068C27.8546 10.2582 29.172 9.75385 30.1638 9.00089C31.3564 8.09781 31.9613 6.92024 31.9613 5.50113C31.9613 3.84739 31.2393 2.51029 29.8163 1.53221C28.4242 0.575151 26.3591 0.0848596 23.6821 0.0755464H23.4336V0.748699L23.6562 0.769828C24.7134 0.877681 25.5362 1.32341 26.1035 2.0905C26.6825 2.87161 26.9755 4.02093 26.9755 5.50113C26.9755 6.98123 26.6778 8.04854 26.0918 8.77807C26.0121 8.87661 25.9278 8.97274 25.8409 9.05957L25.8433 9.06187Z" fill="black"/>
<path id="Vector_11" d="M49.413 1.86044C49.9728 2.43986 50.8781 3.53992 52.1039 5.12797L62.9152 19.0826L62.9682 19.1529H64.5204V13.6312L54.0356 0.197389L53.9955 0.145714H47.6475V0.567912L47.7527 0.61718C48.3065 0.872942 48.8643 1.29274 49.413 1.86044Z" fill="black"/>
<path id="Vector_12" d="M62.5101 1.30686C62.8315 1.59777 63.0989 2.05041 63.3022 2.65567C63.5115 3.27254 63.6307 4.07718 63.6537 5.04826L63.832 10.8539V10.8961L64.3897 11.6514L64.4719 5.04595C64.4819 3.65018 64.6762 2.6087 65.0507 1.95197C65.4192 1.30686 65.956 0.861125 66.6449 0.626593L66.7691 0.584335V0.145714H61.1041V0.586738L61.2323 0.626593C61.755 0.783715 62.1846 1.01364 62.5081 1.30686H62.5101Z" fill="black"/>
<path id="Vector_13" d="M76.9896 16.5685C78.9875 14.9264 79.9999 12.6019 79.9999 9.65799C79.9999 6.71422 78.9755 4.35678 76.9576 2.70304C74.9508 1.05871 72.0507 0.197796 68.3384 0.148526H68.1531V0.709218H68.3334C69.1325 0.718531 69.8756 0.821778 70.5365 1.01645C71.1934 1.20883 71.8163 1.53018 72.3861 1.9688C72.9579 2.40742 73.4456 2.96812 73.8372 3.63657C74.2338 4.30982 74.5472 5.16363 74.7745 6.17236C75.0018 7.18799 75.119 8.36085 75.119 9.65799C75.119 12.5667 74.5452 14.7952 73.4156 16.2776C72.295 17.7483 70.5836 18.5366 68.3284 18.6163L68.1531 18.6233V19.1581L68.3384 19.1534C72.0927 19.069 75.0018 18.1988 76.9876 16.5685H76.9896Z" fill="black"/>
<path id="Vector_14" d="M14.3902 2.03692C15.26 2.96122 16.0875 4.34769 16.8564 6.15635L17.2292 7.03369L17.0816 1.3214V1.22286L16.9924 1.17129C16.5939 0.934355 15.8437 0.692713 14.7654 0.453374C13.6822 0.214135 12.5828 0.066323 11.495 0.0123466L11.3051 0.00293384V0.382973L11.4598 0.406505C12.5452 0.575344 13.5322 1.12202 14.3902 2.03692Z" fill="black"/>
<path id="Vector_15" d="M13.5758 11.4552C13.911 12.0135 14.0821 12.9213 14.0821 14.1574C14.0821 15.6329 13.8594 16.7612 13.4234 17.5118C13.0015 18.2319 12.3358 18.6963 11.4473 18.8911L11.3044 18.9216V19.2758L11.4989 19.2593C12.3733 19.1889 13.2288 19.0412 14.0423 18.8183C14.8556 18.5979 15.5074 18.3586 15.9948 18.1006L18.4867 19.2125L18.4117 18.8629C18.2874 18.2906 18.203 17.7112 18.1585 17.1435C18.1117 16.543 18.0881 15.5391 18.0881 14.1551C18.0881 12.0721 18.4281 10.8899 19.1243 10.5404L19.8064 10.1979H11.0488L12.3662 10.5544C12.8937 10.6975 13.2992 11.0001 13.5734 11.4552H13.5758Z" fill="black"/>
<path id="Vector_16" d="M4.66711 18.0244C6.08061 18.7938 7.7003 19.2113 9.49594 19.2653L9.66709 19.2489V18.9111L9.50065 18.897C8.05661 18.775 6.88925 17.9142 6.03134 16.3378C5.14999 14.7169 4.70456 12.4698 4.70456 9.65497C4.70456 6.84009 5.14999 4.75243 6.03134 3.12913C6.88925 1.54348 8.06131 0.628691 9.51236 0.405776L9.66709 0.382343V0L9.47481 0.0117163C7.68628 0.131386 6.06649 0.586431 4.66009 1.36754C3.22546 2.16507 2.07924 3.29336 1.24937 4.72188C0.419591 6.15511 0 7.81356 0 9.65497C0 11.4963 0.419591 13.2133 1.24937 14.6607C2.07924 16.1079 3.23017 17.2386 4.66711 18.022V18.0244Z" fill="black"/>
<path id="Vector_17" d="M40.2588 15.0973C40.4721 15.6579 40.6123 16.1622 40.6733 16.5961C40.7324 17.0184 40.7254 17.3749 40.6473 17.654C40.5722 17.9262 40.448 18.1466 40.2818 18.3108C40.1156 18.4751 39.8952 18.597 39.6299 18.672L39.4987 18.7096V19.1529H53.3102V18.712L53.1811 18.672C52.436 18.4445 51.8712 18.0059 51.5027 17.3679C51.1261 16.7135 50.9199 15.6673 50.8868 14.2528L50.7086 5.4353V5.39304L50.1508 4.60253L50.0286 14.2505C50.0126 15.2121 49.8994 16.0191 49.6961 16.6478C49.4938 17.2671 49.2435 17.7221 48.9501 18.0059C48.6526 18.2897 48.2731 18.5149 47.8185 18.672L47.7574 18.6932L47.6753 18.6697C47.4179 18.5946 47.1876 18.4657 46.9933 18.285C46.792 18.0997 46.5336 17.7221 46.2222 17.1615C45.9058 16.5915 45.5332 15.7728 45.1156 14.7267L39.3795 0.260676L39.3354 0.145714H36.8569L35.6663 3.01217L39.019 11.7311L34.049 11.8555L33.6414 12.6742L39.3955 12.8008L40.2628 15.0973H40.2588Z" fill="black"/>
<path id="Vector_18" d="M19.6449 30.0636C19.1926 28.8767 18.5573 27.854 17.7509 27.0213C16.9469 26.1909 15.9764 25.5177 14.8701 25.0181C13.7636 24.5208 12.5354 24.2158 11.2156 24.1126L11.0234 24.0986V24.6193L11.1711 24.6451C12.4768 24.8703 13.5269 25.7828 14.2934 27.3567C15.074 28.9589 15.4701 31.1826 15.4701 33.9645C15.4701 36.7466 15.074 38.9515 14.2934 40.5677C13.5269 42.1534 12.4768 43.0824 11.1687 43.3239L11.0234 43.352V43.8729L11.2156 43.8588C12.5259 43.7555 13.7543 43.4483 14.8631 42.9463C15.9741 42.4443 16.9469 41.7664 17.7509 40.9313C18.555 40.0962 19.1926 39.0689 19.6449 37.8772C20.0951 36.6879 20.3224 35.372 20.3224 33.9693C20.3224 32.5666 20.0951 31.2506 19.6449 30.066V30.0636Z" fill="black"/>
<path id="Vector_19" d="M4.64863 42.4125C6.01757 43.2336 7.60452 43.7168 9.36962 43.8552L9.5618 43.8693V43.3485L9.41649 43.3227C8.10142 43.0811 7.04663 42.1545 6.28015 40.5735C5.49954 38.962 5.10338 36.7383 5.10338 33.9656C5.10338 31.193 5.49484 28.96 6.26603 27.3578C7.0232 25.7839 8.06157 24.8738 9.3509 24.6462L9.4985 24.6204V24.0997L9.30633 24.1137C7.99597 24.2169 6.77004 24.5219 5.66358 25.0192C4.55481 25.5165 3.58914 26.192 2.7874 27.0224C1.98577 27.8551 1.35287 28.8778 0.90043 30.0647C0.450392 31.2493 0.222972 32.563 0.222972 33.9681C0.222972 35.8446 0.619135 37.5335 1.39974 38.9855C2.18265 40.4398 3.27499 41.5938 4.64863 42.4172V42.4125Z" fill="black"/>
<path id="Vector_20" d="M28.011 42.1924C27.7813 41.5661 27.6664 40.4988 27.6664 39.0186V24.4119H21.7711V24.8482L21.8953 24.8881C22.629 25.1274 23.0181 26.3753 23.0181 28.4935V39.6426C23.0181 41.7842 22.6314 43.0297 21.9023 43.2456L21.7735 43.2831V43.7217H29.1808V43.2737L29.0425 43.2408C28.5736 43.1283 28.2267 42.7764 28.0134 42.19L28.011 42.1924Z" fill="black"/>
<path id="Vector_21" d="M30.9669 35.8128C30.4732 36.1929 29.8333 36.4134 29.0687 36.4697L28.9023 36.4814V37.0303H29.0827C31.755 37.0209 33.8369 36.4438 35.271 35.3132C36.673 34.2084 37.407 32.6509 37.4511 30.6758C37.407 28.7078 36.675 27.1502 35.271 26.0454C33.8369 24.9147 31.753 24.3377 29.0827 24.3283H28.9023V24.8772L29.0687 24.889C29.8333 24.9452 30.4732 25.1658 30.9669 25.5457C31.4616 25.9234 31.8561 26.5544 32.1395 27.4176C32.4159 28.2597 32.5611 29.3575 32.5731 30.6782C32.5611 32.0034 32.4139 33.1012 32.1395 33.941C31.8561 34.8042 31.4616 35.4329 30.9669 35.8128Z" fill="black"/>
<path id="Vector_22" d="M25.3879 49.6609C24.3048 50.1488 23.3602 50.8127 22.5773 51.6313C21.7944 52.45 21.1708 53.461 20.7255 54.6315C20.2824 55.802 20.0527 57.0992 20.048 58.4901C20.041 60.348 20.4183 62.0181 21.1731 63.4584C21.9303 64.9014 22.9898 66.048 24.3236 66.8692C25.6551 67.6874 27.1998 68.173 28.9204 68.3162L29.1126 68.3323V67.8145L28.9696 67.7865C27.692 67.5421 26.6677 66.6228 25.9293 65.0536C25.1769 63.4564 24.7994 61.2534 24.8112 58.5113C24.8229 55.7598 25.2143 53.5619 25.9738 51.9785C26.717 50.4256 27.7319 49.5295 28.986 49.3114L29.1337 49.2856V48.7649L28.9438 48.779C27.6663 48.8751 26.4708 49.1706 25.3902 49.6586L25.3879 49.6609Z" fill="black"/>
<path id="Vector_23" d="M38.9838 54.7066C38.5501 53.5313 37.9333 52.5157 37.1532 51.6876C36.3731 50.8619 35.4307 50.1911 34.3522 49.6938C33.2757 49.1965 32.078 48.8892 30.7942 48.7813L30.6019 48.7649V49.2856L30.7471 49.3114C32.0169 49.5389 33.0343 50.4467 33.7734 52.0042C34.5254 53.5947 34.903 55.7949 34.891 58.5464C34.8789 61.2816 34.4834 63.4774 33.7163 65.0727C32.9642 66.6369 31.9378 67.5492 30.665 67.7835L30.5198 67.8095V68.3283L30.709 68.3142C31.9869 68.2181 33.1845 67.9197 34.2701 67.427C35.3576 66.9343 36.307 66.2683 37.0941 65.4452C37.8822 64.622 38.5081 63.6086 38.9507 62.4309C39.3943 61.2557 39.6237 59.9562 39.6287 58.5675C39.6357 57.1789 39.4174 55.877 38.9838 54.7042V54.7066Z" fill="black"/>
<path id="Vector_24" d="M1.12417 48.8729V49.3069L1.24374 49.3491C1.95634 49.5883 2.32666 50.8246 2.31965 52.9192L2.27279 63.9491C2.26337 66.0671 1.88364 67.2958 1.17103 67.5071L1.04445 67.5452V67.9838L7.89155 68.0138H8.0697V67.5732L7.93841 67.5351C7.19065 67.3238 6.8016 66.0931 6.81091 63.9671L6.85778 52.9381C6.86249 51.7745 6.96794 50.8973 7.16962 50.332C7.35709 49.8065 7.63608 49.4852 7.997 49.3796L8.12357 49.3421V48.9035L1.30001 48.8729H1.12186H1.12417Z" fill="black"/>
<path id="Vector_25" d="M12.4972 48.8728V49.3068L12.6191 49.3466C13.3552 49.5883 13.7396 50.822 13.7302 52.9168L13.7092 57.559L8.89674 57.6903L8.73501 57.7325V57.8122L8.38101 58.3799L13.7044 58.4972L13.681 63.944C13.6716 66.062 13.2778 67.2918 12.5441 67.5021L12.4152 67.5401V67.9787L19.2623 68.0088H19.4405V67.5702L19.3115 67.5331C18.5778 67.3148 18.1957 66.081 18.2051 63.965L18.252 52.9355C18.2614 50.8409 18.6482 49.6093 19.3701 49.3748L19.492 49.3349V48.9009L12.6707 48.8705H12.4925L12.4972 48.8728Z" fill="black"/>
<path id="Vector_26" d="M79.0438 54.6056L79.1699 54.9457L79.7798 54.6385L79.5595 48.8352L75.1172 48.8164L67.3562 48.807H67.0187V49.7922H73.6261C73.9806 49.8063 74.5103 49.8579 75.0281 50.0127C75.7641 50.2497 76.414 50.6297 76.9578 51.148C77.769 51.9198 78.472 53.0833 79.0458 54.6079L79.0438 54.6056Z" fill="black"/>
<path id="Vector_27" d="M69.6701 59.5921C69.2906 59.1675 68.8499 58.7687 68.3622 58.4051C67.8776 58.0439 67.3568 57.7131 66.8151 57.427C66.2883 57.1478 65.7445 56.8663 65.2008 56.5942C64.664 56.3245 64.1523 56.043 63.6816 55.7568C63.2129 55.473 62.7904 55.1657 62.4248 54.8468C62.0713 54.5347 61.7849 54.1618 61.5736 53.7349C61.3673 53.3126 61.2622 52.8411 61.2642 52.3345C61.2642 51.8231 61.3744 51.3516 61.5857 50.9411C62.0333 50.1366 62.9456 49.7565 63.4473 49.6017L63.5404 49.5736V48.9824L63.3481 48.9989C61.6307 49.1373 60.2117 49.719 59.1312 50.7323C58.0436 51.7504 57.4878 53.0124 57.4808 54.4831C57.4788 55.1634 57.587 55.8014 57.8003 56.3784C58.0156 56.9555 58.311 57.4574 58.6815 57.8726C59.045 58.2785 59.4666 58.6632 59.9333 59.0151C60.397 59.3645 60.8947 59.6812 61.4124 59.9603C61.9281 60.2371 62.4459 60.5116 62.9526 60.7742C63.4613 61.037 63.949 61.3185 64.4006 61.6093C64.8513 61.8979 65.2538 62.2075 65.6033 62.5312C65.9438 62.8456 66.2152 63.223 66.4125 63.6476C66.6088 64.0722 66.7079 64.5439 66.7049 65.0506C66.7049 65.5693 66.5947 66.043 66.3884 66.4536C65.5703 67.8345 63.4142 68.2902 61.4845 67.4901C60.0344 66.8171 59.1662 65.7356 59.1292 65.6905L58.9649 65.4842L58.6835 65.9719L58.7657 66.069C59.1151 66.4816 60.9998 68.5455 63.8148 68.5455C63.967 68.5455 64.1313 68.5385 64.3045 68.5245H64.3235C66.3304 68.3953 67.9316 67.8676 69.0803 66.9573C70.303 65.9889 70.9269 64.7151 70.9339 63.1739C70.9359 62.4515 70.8237 61.776 70.5964 61.166C70.3691 60.5561 70.0576 60.0284 69.6701 59.5968V59.5921Z" fill="black"/>
</g>
</svg>
