<svg width="200" height="29" viewBox="0 0 200 29" fill="none" xmlns="http://www.w3.org/2000/svg">
<g id="Group">
<path id="Vector" d="M199.245 0.13419V1.67665H191.362V7.44392H197.002V8.98637H191.362V15.6256H199.787V17.1679H189.459V0.13419H199.245ZM176.615 1.60955V7.91337H179.197C182.935 7.91337 183.682 6.37091 183.682 4.76146C183.682 2.41428 182.119 1.60955 179.537 1.60955H176.615ZM174.711 0.13419H178.993C184.633 0.13419 185.585 2.95073 185.585 4.89555C185.585 6.90746 184.226 8.58401 182.187 9.18755L185.653 17.1009H183.547L180.284 9.45583H176.683V17.1009H174.779V0.13419H174.711ZM171.654 0.13419V1.67665H166.829V17.1009H164.926V1.67665H160.101V0.13419H171.654ZM155.344 10.1265L152.83 1.20719H152.762L150.383 10.1265H155.344ZM154.189 0.13419L159.354 17.1009H157.383L155.752 11.6688H149.908L148.345 17.1009H146.374L151.471 0.13419H154.189ZM143.452 0.13419V1.67665H135.569V7.44392H141.21V8.98637H135.569V15.6256H143.995V17.1679H133.666V0.13419H143.452ZM119.871 7.24273H127.549V0.13419H129.453V17.1009H127.549V8.78519H119.871V17.1009H117.968V0.13419H119.871V7.24273ZM114.91 0.13419V1.67665H110.085V17.1009H108.182V1.67665H103.358V0.13419H114.91ZM90.1732 6.70628H92.96C94.5913 6.70628 95.3384 6.23683 95.3384 4.89555C95.3384 3.82255 94.5232 3.219 92.96 3.219H90.1732V6.70628ZM85.0089 17.1009V0.0670952H94.2509C98.5999 0.0670952 100.843 1.74364 100.843 4.76146C100.843 6.90746 99.6194 8.51691 97.3772 9.18755L100.639 17.1009H94.9308L92.4163 10.0594H90.1732V17.0338H85.0089V17.1009ZM67.4761 17.1009V0.0670952H81.0674V3.62137H72.6408V6.63919H78.0093V10.1935H72.6408V13.4125H81.2713V17.1009H67.4761ZM51.778 17.1009V0.0670952H56.9428V13.4125H64.418V17.1009H51.778ZM36.0121 17.1009V0.0670952H41.1768V13.4125H48.5841V17.1009H36.0121ZM26.2263 0.0670952H31.323V17.1009H26.2263V0.0670952ZM12.2951 11.9371H9.03324L5.29561 6.97446H4.95584V17.1009H0.13089V0H5.22762L10.5962 7.10865H10.8001L16.2366 0H21.2655V17.0338H16.3725V6.97446H16.0327L12.2951 11.9371Z" fill="black"/>
<path id="Vector_2" d="M2.85419 28.5018C1.01933 28.5018 0 27.2947 0 25.6852C0 24.0086 1.01933 22.8015 2.85419 22.8015C3.46585 22.8015 3.94151 22.8686 4.48517 23.1368L4.28129 23.6063C3.80562 23.4722 3.32986 23.338 2.85419 23.338C1.69898 23.338 0.611655 23.9417 0.611655 25.6182C0.611655 27.2947 1.76687 27.9654 2.99008 27.9654C3.53374 27.9654 4.00951 27.8312 4.34928 27.6971L4.48517 28.1666C4.34928 28.3006 3.87352 28.5018 2.85419 28.5018ZM8.35869 28.4347C6.65982 28.4347 5.64039 27.2947 5.64039 25.6182C5.64039 23.9417 6.79571 22.8015 8.49458 22.8015C10.2615 22.8015 11.2129 24.0757 11.2129 25.6182C11.2129 27.2947 10.1256 28.4347 8.35869 28.4347ZM8.42669 23.338C6.99959 23.338 6.18405 24.344 6.18405 25.6182C6.18405 26.8924 6.9316 27.9654 8.35869 27.9654C9.85379 27.9654 10.6012 26.9594 10.6012 25.6852C10.6012 24.344 9.85379 23.338 8.42669 23.338ZM13.0478 28.3677V22.8686H13.6593V27.8312H16.9213V28.3677H13.0478ZM20.523 28.5018C19.5036 28.5018 18.0765 28.0324 18.0765 26.49V22.9356H18.6881V26.4229C18.6881 27.63 19.7755 27.9654 20.523 27.9654C21.3385 27.9654 22.3578 27.5629 22.3578 26.2217V22.9356H22.9014V26.2887C22.9694 27.9654 21.4743 28.5018 20.523 28.5018ZM30.9883 28.3677V24.2098V23.5392L28.6778 28.3677H27.7944L25.6877 23.6063L25.7556 24.2098V28.3677H25.1441V22.8686H26.0275L28.27 27.9654L30.7165 22.8686H31.532V28.3677H30.9883ZM36.1531 28.3677H33.9784V22.8686H35.9492C37.1724 22.8686 37.8519 23.4722 37.8519 24.2098C37.8519 24.6793 37.5802 25.2828 37.1044 25.417C37.784 25.6182 38.2597 26.0875 38.2597 26.7582C38.1917 27.7642 37.5802 28.3677 36.1531 28.3677ZM35.7453 23.4051H34.5221V25.3499H35.9492C36.8326 25.3499 37.1724 25.0146 37.1724 24.411C37.2404 23.6063 36.6287 23.4051 35.7453 23.4051ZM35.8133 25.8194H34.5221V27.8983H35.9492C36.7646 27.8983 37.5122 27.7642 37.5122 26.8924C37.5802 25.9535 36.9685 25.8194 35.8133 25.8194ZM40.1625 22.9356H40.7741V28.4347H40.1625V22.9356ZM46.6184 28.3677L45.9389 26.3558H43.5603L42.7448 28.3677H42.1332L44.3758 22.8686H45.3272L47.298 28.3677H46.6184ZM44.7835 23.2039L43.6962 25.8864H45.667L44.7835 23.2039ZM52.8705 28.5018C51.851 28.5018 50.4239 28.0324 50.4239 26.49V22.9356H51.0356V26.4229C51.0356 27.63 52.1229 27.9654 52.8705 27.9654C53.6859 27.9654 54.7052 27.5629 54.7052 26.2217V22.9356H55.2489V26.2887C55.2489 27.9654 53.8218 28.5018 52.8705 28.5018ZM61.297 28.3677L57.9672 23.4051V23.6734V28.3677H57.3555V22.8686H58.239L61.6368 27.8983V27.4288V22.8686H62.2485V28.3677H61.297ZM64.6949 22.9356H65.3066V28.4347H64.6949V22.9356ZM69.6557 28.3677H68.7043L66.7335 22.8686H67.4132L69.1801 28.0324L71.2867 22.8686H71.8983L69.6557 28.3677ZM73.2575 28.3677V22.8686H76.8591V23.338H73.869V25.2828H76.7232V25.8194H73.869V27.8312H77.063V28.3006H73.2575V28.3677ZM83.6548 28.4347C83.315 28.4347 82.7714 28.2335 82.2277 27.63L81.0725 26.3558C80.9365 26.3558 80.8686 26.3558 80.7327 26.3558H79.7133V28.4347H79.1018V22.9356H81.0725C82.1598 22.9356 82.8394 23.5392 82.8394 24.6122C82.8394 25.3499 82.4316 25.9535 81.6162 26.2217L82.4316 27.0936C82.7714 27.4959 83.1792 27.8312 83.7228 27.9654L83.6548 28.4347ZM80.9366 23.4051H79.7133V25.8194H80.7327C81.5482 25.8194 82.2277 25.484 82.2277 24.6122C82.2277 23.7405 81.8201 23.4051 80.9366 23.4051ZM86.4411 28.4347C85.4897 28.4347 84.8101 28.1666 84.5383 28.0324L84.7421 27.4959C85.2858 27.6971 85.8295 27.8983 86.4411 27.8983C87.1207 27.8983 87.9361 27.7642 87.9361 26.8924C87.9361 26.3558 87.3246 26.0875 86.9168 25.9535C86.0333 25.6182 84.8101 25.2828 84.8101 24.1428C84.8101 23.271 85.6256 22.8015 86.7129 22.8015C87.5283 22.8015 87.9361 22.9356 88.3439 23.0698L88.14 23.5392C87.6643 23.4051 87.2566 23.271 86.7129 23.271C86.0333 23.271 85.4217 23.4722 85.4217 24.0757C85.4217 24.6122 86.0333 24.8805 86.4411 25.0816C87.1886 25.417 88.5478 25.7523 88.5478 26.7582C88.5478 28.0995 87.5283 28.4347 86.4411 28.4347ZM90.3824 22.9356H90.9943V28.4347H90.3824V22.9356ZM94.7315 23.4051V28.3677H94.1207V23.4051H91.9456V22.8686H96.8385V23.4051H94.7315ZM100.236 26.8924V28.4347H99.6244V26.8924L97.5184 22.9356H98.1974L99.9648 26.3558L101.799 22.9356H102.411L100.236 26.8924ZM107.1 28.4347C106.148 28.4347 105.469 28.1666 105.197 28.0324L105.401 27.4959C105.944 27.6971 106.488 27.8983 107.1 27.8983C107.78 27.8983 108.595 27.7642 108.595 26.8924C108.595 26.3558 107.983 26.0875 107.575 25.9535C106.692 25.6182 105.469 25.2828 105.469 24.1428C105.469 23.271 106.285 22.8015 107.372 22.8015C108.187 22.8015 108.595 22.9356 109.002 23.0698L108.799 23.5392C108.324 23.4051 107.915 23.271 107.372 23.271C106.692 23.271 106.08 23.4722 106.08 24.0757C106.08 24.6122 106.692 24.8805 107.1 25.0816C107.848 25.417 109.207 25.7523 109.207 26.7582C109.139 28.0995 108.187 28.4347 107.1 28.4347ZM113.284 28.5018C111.449 28.5018 110.429 27.2947 110.429 25.6852C110.429 24.0086 111.449 22.8015 113.284 22.8015C113.895 22.8015 114.371 22.8686 114.915 23.1368L114.711 23.6063C114.236 23.4722 113.76 23.338 113.284 23.338C112.129 23.338 111.041 23.9417 111.041 25.6182C111.041 27.2947 112.129 27.9654 113.488 27.9654C113.963 27.9654 114.507 27.8312 114.847 27.6971L114.983 28.1666C114.779 28.3006 114.303 28.5018 113.284 28.5018ZM120.895 28.3677V25.8864H117.293V28.3677H116.682V22.8686H117.293V25.3499H120.895V22.8686H121.439V28.3677H120.895ZM126.06 28.4347C124.361 28.4347 123.342 27.2947 123.342 25.6182C123.342 23.9417 124.497 22.8015 126.196 22.8015C127.963 22.8015 128.914 24.0757 128.914 25.6182C128.846 27.2947 127.759 28.4347 126.06 28.4347ZM126.06 23.338C124.632 23.338 123.817 24.344 123.817 25.6182C123.817 26.8924 124.565 27.9654 125.992 27.9654C127.487 27.9654 128.234 26.9594 128.234 25.6852C128.302 24.344 127.487 23.338 126.06 23.338ZM132.856 28.4347C131.156 28.4347 130.137 27.2947 130.137 25.6182C130.137 23.9417 131.293 22.8015 132.991 22.8015C134.759 22.8015 135.71 24.0757 135.71 25.6182C135.71 27.2947 134.622 28.4347 132.856 28.4347ZM132.924 23.338C131.496 23.338 130.681 24.344 130.681 25.6182C130.681 26.8924 131.429 27.9654 132.856 27.9654C134.351 27.9654 135.098 26.9594 135.098 25.6852C135.098 24.344 134.283 23.338 132.924 23.338ZM137.544 28.3677V22.8686H138.156V27.8312H141.418V28.3677H137.544ZM146.923 28.4347C145.224 28.4347 144.205 27.2947 144.205 25.6182C144.205 23.9417 145.359 22.8015 147.059 22.8015C148.825 22.8015 149.777 24.0757 149.777 25.6182C149.777 27.2947 148.69 28.4347 146.923 28.4347ZM146.991 23.338C145.564 23.338 144.748 24.344 144.748 25.6182C144.748 26.8924 145.496 27.9654 146.923 27.9654C148.418 27.9654 149.166 26.9594 149.166 25.6852C149.166 24.344 148.418 23.338 146.991 23.338ZM152.223 23.4051V25.5511H155.213V26.0875H152.223V28.4347H151.612V22.9356H155.417V23.4051H152.223ZM160.854 23.4051V28.3677H160.242V23.4051H158.067V22.8686H162.96V23.4051H160.854ZM168.669 28.3677V25.8864H165.067V28.3677H164.455V22.8686H165.067V25.3499H168.669V22.8686H169.281V28.3677H168.669ZM171.659 28.3677V22.8686H175.26V23.338H172.271V25.2828H175.125V25.8194H172.271V27.8312H175.464V28.3006H171.659V28.3677ZM183.347 28.3677L182.668 26.3558H180.289L179.474 28.3677H178.862L181.105 22.8686H182.057L184.027 28.3677H183.347ZM181.581 23.2039L180.493 25.8864H182.532L181.581 23.2039ZM189.94 28.4347C189.599 28.4347 189.055 28.2335 188.512 27.63L187.357 26.3558C187.221 26.3558 187.153 26.3558 187.018 26.3558H185.998V28.4347H185.386V22.9356H187.357C188.445 22.9356 189.124 23.5392 189.124 24.6122C189.124 25.3499 188.784 25.9535 187.901 26.2217L188.716 27.0936C189.055 27.4959 189.464 27.8312 190.007 27.9654L189.94 28.4347ZM187.153 23.4051H185.93V25.8194H186.95C187.833 25.8194 188.445 25.484 188.445 24.6122C188.512 23.7405 188.036 23.4051 187.153 23.4051ZM193.133 23.4051V28.3677H192.521V23.4051H190.347V22.8686H195.24V23.4051H193.133ZM197.958 28.4347C197.007 28.4347 196.328 28.1666 196.055 28.0324L196.26 27.4959C196.803 27.6971 197.347 27.8983 197.958 27.8983C198.638 27.8983 199.453 27.7642 199.453 26.8924C199.453 26.3558 198.841 26.0875 198.434 25.9535C197.618 25.6182 196.328 25.2828 196.328 24.1428C196.328 23.271 197.143 22.8015 198.23 22.8015C199.045 22.8015 199.453 22.9356 199.861 23.0698L199.657 23.5392C199.182 23.4051 198.774 23.271 198.23 23.271C197.55 23.271 196.87 23.4722 196.87 24.0757C196.87 24.6122 197.482 24.8805 197.89 25.0816C198.638 25.417 199.997 25.7523 199.997 26.7582C200.065 28.0995 199.045 28.4347 197.958 28.4347Z" fill="black"/>
</g>
</svg>
