<svg width="200" height="29" viewBox="0 0 200 29" fill="none" xmlns="http://www.w3.org/2000/svg">
<g id="Group">
<path id="Vector" d="M199.244 0.13419V1.67664H191.361V7.4439H197.001V8.98635H191.361V15.6255H199.787V17.1679H189.459V0.13419H199.244ZM176.615 1.60955V7.91335H179.196C182.935 7.91335 183.682 6.3709 183.682 4.76145C183.682 2.41427 182.118 1.60955 179.537 1.60955H176.615ZM174.711 0.13419H178.993C184.633 0.13419 185.584 2.95072 185.584 4.89554C185.584 6.90745 184.225 8.58399 182.187 9.18753L185.652 17.1009H183.546L180.284 9.45581H176.683V17.1009H174.779V0.13419H174.711ZM171.654 0.13419V1.67664H166.829V17.1009H164.925V1.67664H160.101V0.13419H171.654ZM155.344 10.1264L152.83 1.20719H152.761L150.383 10.1264H155.344ZM154.188 0.13419L159.354 17.1009H157.383L155.752 11.6688H149.907L148.344 17.1009H146.374L151.471 0.13419H154.188ZM143.451 0.13419V1.67664H135.568V7.4439H141.209V8.98635H135.568V15.6255H143.995V17.1679H133.666V0.13419H143.451ZM119.871 7.24272H127.549V0.13419H129.453V17.1009H127.549V8.78517H119.871V17.1009H117.968V0.13419H119.871V7.24272ZM114.91 0.13419V1.67664H110.085V17.1009H108.182V1.67664H103.357V0.13419H114.91ZM90.1731 6.70627H92.96C94.5913 6.70627 95.3383 6.23681 95.3383 4.89554C95.3383 3.82254 94.5232 3.219 92.96 3.219H90.1731V6.70627ZM85.0089 17.1009V0.067095H94.2508C98.5999 0.067095 100.843 1.74364 100.843 4.76145C100.843 6.90745 99.6193 8.51689 97.3771 9.18753L100.639 17.1009H94.9307L92.4162 10.0594H90.1731V17.0338H85.0089V17.1009ZM67.4761 17.1009V0.067095H81.0674V3.62136H72.6408V6.63917H78.0093V10.1934H72.6408V13.4124H81.2713V17.1009H67.4761ZM51.7781 17.1009V0.067095H56.9428V13.4124H64.418V17.1009H51.7781ZM36.0122 17.1009V0.067095H41.1769V13.4124H48.5841V17.1009H36.0122ZM26.2264 0.067095H31.3231V17.1009H26.2264V0.067095ZM12.2952 11.9371H9.03337L5.29576 6.97444H4.95598V17.1009H0.131042V0H5.22776L10.5964 7.10863H10.8002L16.2367 0H21.2656V17.0338H16.3726V6.97444H16.0328L12.2952 11.9371Z" fill="black"/>
<path id="Vector_2" d="M2.85419 28.5018C1.01932 28.5018 0 27.2947 0 25.6851C0 24.0086 1.01932 22.8015 2.85419 22.8015C3.46584 22.8015 3.9415 22.8686 4.48516 23.1368L4.28128 23.6062C3.80561 23.4721 3.32985 23.3379 2.85419 23.3379C1.69897 23.3379 0.611654 23.9416 0.611654 25.6181C0.611654 27.2947 1.76687 27.9653 2.99008 27.9653C3.53373 27.9653 4.0095 27.8311 4.34927 27.697L4.48516 28.1665C4.34927 28.3006 3.87351 28.5018 2.85419 28.5018ZM8.35867 28.4347C6.6598 28.4347 5.64038 27.2947 5.64038 25.6181C5.64038 23.9416 6.79569 22.8015 8.49456 22.8015C10.2614 22.8015 11.2129 24.0757 11.2129 25.6181C11.2129 27.2947 10.1255 28.4347 8.35867 28.4347ZM8.42667 23.3379C6.99958 23.3379 6.18404 24.344 6.18404 25.6181C6.18404 26.8923 6.93158 27.9653 8.35867 27.9653C9.85376 27.9653 10.6012 26.9593 10.6012 25.6851C10.6012 24.3439 9.85376 23.3379 8.42667 23.3379ZM13.0477 28.3677V22.8686H13.6593V27.8311H16.9212V28.3677H13.0477ZM20.523 28.5018C19.5035 28.5018 18.0764 28.0323 18.0764 26.4899V22.9356H18.6881V26.4229C18.6881 27.6299 19.7754 27.9653 20.523 27.9653C21.3384 27.9653 22.3577 27.5628 22.3577 26.2217V22.9356H22.9014V26.2887C22.9694 27.9653 21.4743 28.5018 20.523 28.5018ZM30.9883 28.3677V24.2098V23.5391L28.6778 28.3677H27.7943L25.6877 23.6062L25.7556 24.2098V28.3677H25.144V22.8686H26.0274L28.27 27.9653L30.7164 22.8686H31.5319V28.3677H30.9883ZM36.153 28.3677H33.9784V22.8686H35.9491C37.1723 22.8686 37.8519 23.4721 37.8519 24.2098C37.8519 24.6792 37.5801 25.2828 37.1043 25.4169C37.7839 25.6181 38.2596 26.0875 38.2596 26.7581C38.1916 27.7641 37.5801 28.3677 36.153 28.3677ZM35.7452 23.405H34.522V25.3499H35.9491C36.8325 25.3499 37.1723 25.0146 37.1723 24.4109C37.2403 23.6062 36.6287 23.405 35.7452 23.405ZM35.8132 25.8193H34.522V27.8982H35.9491C36.7645 27.8982 37.5121 27.7641 37.5121 26.8923C37.5801 25.9534 36.9684 25.8193 35.8132 25.8193ZM40.1624 22.9356H40.774V28.4347H40.1624V22.9356ZM46.6183 28.3677L45.9388 26.3558H43.5602L42.7447 28.3677H42.1331L44.3757 22.8686H45.3271L47.2979 28.3677H46.6183ZM44.7834 23.2039L43.6961 25.8863H45.6669L44.7834 23.2039ZM52.8703 28.5018C51.8509 28.5018 50.4238 28.0323 50.4238 26.4899V22.9356H51.0355V26.4229C51.0355 27.6299 52.1228 27.9653 52.8703 27.9653C53.6858 27.9653 54.7051 27.5628 54.7051 26.2217V22.9356H55.2488V26.2887C55.2488 27.9653 53.8217 28.5018 52.8703 28.5018ZM61.2969 28.3677L57.9671 23.405V23.6733V28.3677H57.3554V22.8686H58.2388L61.6367 27.8982V27.4288V22.8686H62.2483V28.3677H61.2969ZM64.6947 22.9356H65.3064V28.4347H64.6947V22.9356ZM69.6556 28.3677H68.7041L66.7334 22.8686H67.413L69.1799 28.0323L71.2866 22.8686H71.8981L69.6556 28.3677ZM73.2573 28.3677V22.8686H76.8589V23.3379H73.8689V25.2828H76.723V25.8193H73.8689V27.8311H77.0628V28.3006H73.2573V28.3677ZM83.6546 28.4347C83.3148 28.4347 82.7712 28.2335 82.2275 27.6299L81.0723 26.3558C80.9363 26.3558 80.8684 26.3558 80.7325 26.3558H79.7131V28.4347H79.1016V22.9356H81.0723C82.1596 22.9356 82.8392 23.5391 82.8392 24.6121C82.8392 25.3499 82.4314 25.9534 81.616 26.2217L82.4314 27.0935C82.7712 27.4959 83.179 27.8311 83.7226 27.9653L83.6546 28.4347ZM80.9364 23.405H79.7131V25.8193H80.7325C81.548 25.8193 82.2275 25.4839 82.2275 24.6121C82.2275 23.7404 81.8199 23.405 80.9364 23.405ZM86.4409 28.4347C85.4895 28.4347 84.8099 28.1665 84.5381 28.0323L84.7419 27.4959C85.2856 27.697 85.8293 27.8982 86.4409 27.8982C87.1205 27.8982 87.9359 27.7641 87.9359 26.8923C87.9359 26.3558 87.3244 26.0875 86.9166 25.9534C86.0331 25.6181 84.8099 25.2828 84.8099 24.1428C84.8099 23.271 85.6254 22.8015 86.7127 22.8015C87.5281 22.8015 87.9359 22.9356 88.3437 23.0698L88.1398 23.5391C87.6641 23.405 87.2564 23.271 86.7127 23.271C86.0331 23.271 85.4215 23.4721 85.4215 24.0757C85.4215 24.6121 86.0331 24.8804 86.4409 25.0816C87.1884 25.4169 88.5476 25.7522 88.5476 26.7581C88.5476 28.0994 87.5281 28.4347 86.4409 28.4347ZM90.3822 22.9356H90.9941V28.4347H90.3822V22.9356ZM94.7313 23.405V28.3677H94.1204V23.405H91.9454V22.8686H96.8382V23.405H94.7313ZM100.236 26.8923V28.4347H99.6241V26.8923L97.5182 22.9356H98.1971L99.9646 26.3558L101.799 22.9356H102.411L100.236 26.8923ZM107.1 28.4347C106.148 28.4347 105.468 28.1665 105.197 28.0323L105.401 27.4959C105.944 27.697 106.488 27.8982 107.1 27.8982C107.78 27.8982 108.595 27.7641 108.595 26.8923C108.595 26.3558 107.983 26.0875 107.575 25.9534C106.692 25.6181 105.468 25.2828 105.468 24.1428C105.468 23.271 106.284 22.8015 107.372 22.8015C108.187 22.8015 108.595 22.9356 109.002 23.0698L108.799 23.5391C108.323 23.405 107.915 23.271 107.372 23.271C106.692 23.271 106.08 23.4721 106.08 24.0757C106.08 24.6121 106.692 24.8804 107.1 25.0816C107.848 25.4169 109.207 25.7522 109.207 26.7581C109.138 28.0994 108.187 28.4347 107.1 28.4347ZM113.284 28.5018C111.449 28.5018 110.429 27.2947 110.429 25.6851C110.429 24.0086 111.449 22.8015 113.284 22.8015C113.895 22.8015 114.371 22.8686 114.914 23.1368L114.711 23.6062C114.236 23.4721 113.76 23.3379 113.284 23.3379C112.129 23.3379 111.041 23.9416 111.041 25.6181C111.041 27.2947 112.129 27.9653 113.487 27.9653C113.963 27.9653 114.507 27.8311 114.846 27.697L114.983 28.1665C114.778 28.3006 114.303 28.5018 113.284 28.5018ZM120.895 28.3677V25.8863H117.293V28.3677H116.682V22.8686H117.293V25.3499H120.895V22.8686H121.439V28.3677H120.895ZM126.06 28.4347C124.361 28.4347 123.341 27.2947 123.341 25.6181C123.341 23.9416 124.497 22.8015 126.195 22.8015C127.963 22.8015 128.914 24.0757 128.914 25.6181C128.846 27.2947 127.758 28.4347 126.06 28.4347ZM126.06 23.3379C124.632 23.3379 123.817 24.344 123.817 25.6181C123.817 26.8923 124.565 27.9653 125.992 27.9653C127.487 27.9653 128.234 26.9593 128.234 25.6851C128.302 24.3439 127.487 23.3379 126.06 23.3379ZM132.856 28.4347C131.156 28.4347 130.137 27.2947 130.137 25.6181C130.137 23.9416 131.292 22.8015 132.991 22.8015C134.758 22.8015 135.71 24.0757 135.71 25.6181C135.71 27.2947 134.622 28.4347 132.856 28.4347ZM132.924 23.3379C131.496 23.3379 130.68 24.344 130.68 25.6181C130.68 26.8923 131.429 27.9653 132.856 27.9653C134.351 27.9653 135.098 26.9593 135.098 25.6851C135.098 24.3439 134.283 23.3379 132.924 23.3379ZM137.544 28.3677V22.8686H138.156V27.8311H141.417V28.3677H137.544ZM146.922 28.4347C145.224 28.4347 144.204 27.2947 144.204 25.6181C144.204 23.9416 145.359 22.8015 147.058 22.8015C148.825 22.8015 149.776 24.0757 149.776 25.6181C149.776 27.2947 148.69 28.4347 146.922 28.4347ZM146.99 23.3379C145.563 23.3379 144.748 24.344 144.748 25.6181C144.748 26.8923 145.495 27.9653 146.922 27.9653C148.417 27.9653 149.165 26.9593 149.165 25.6851C149.165 24.3439 148.417 23.3379 146.99 23.3379ZM152.223 23.405V25.551H155.213V26.0875H152.223V28.4347H151.612V22.9356H155.417V23.405H152.223ZM160.854 23.405V28.3677H160.242V23.405H158.067V22.8686H162.96V23.405H160.854ZM168.669 28.3677V25.8863H165.067V28.3677H164.455V22.8686H165.067V25.3499H168.669V22.8686H169.28V28.3677H168.669ZM171.659 28.3677V22.8686H175.26V23.3379H172.271V25.2828H175.125V25.8193H172.271V27.8311H175.464V28.3006H171.659V28.3677ZM183.347 28.3677L182.667 26.3558H180.289L179.474 28.3677H178.862L181.105 22.8686H182.056L184.027 28.3677H183.347ZM181.581 23.2039L180.493 25.8863H182.532L181.581 23.2039ZM189.939 28.4347C189.599 28.4347 189.055 28.2335 188.511 27.6299L187.357 26.3558C187.22 26.3558 187.152 26.3558 187.017 26.3558H185.998V28.4347H185.386V22.9356H187.357C188.444 22.9356 189.123 23.5391 189.123 24.6121C189.123 25.3499 188.784 25.9534 187.9 26.2217L188.716 27.0935C189.055 27.4959 189.464 27.8311 190.006 27.9653L189.939 28.4347ZM187.152 23.405H185.93V25.8193H186.949C187.832 25.8193 188.444 25.4839 188.444 24.6121C188.511 23.7404 188.036 23.405 187.152 23.405ZM193.133 23.405V28.3677H192.521V23.405H190.347V22.8686H195.24V23.405H193.133ZM197.957 28.4347C197.006 28.4347 196.327 28.1665 196.055 28.0323L196.259 27.4959C196.803 27.697 197.347 27.8982 197.957 27.8982C198.637 27.8982 199.453 27.7641 199.453 26.8923C199.453 26.3558 198.841 26.0875 198.433 25.9534C197.618 25.6181 196.327 25.2828 196.327 24.1428C196.327 23.271 197.142 22.8015 198.23 22.8015C199.045 22.8015 199.453 22.9356 199.86 23.0698L199.657 23.5391C199.181 23.405 198.774 23.271 198.23 23.271C197.55 23.271 196.87 23.4721 196.87 24.0757C196.87 24.6121 197.482 24.8804 197.889 25.0816C198.637 25.4169 199.996 25.7522 199.996 26.7581C200.064 28.0994 199.045 28.4347 197.957 28.4347Z" fill="black"/>
</g>
</svg>
