<svg width="125" height="56" viewBox="0 0 125 56" fill="none" xmlns="http://www.w3.org/2000/svg">
<g id="Group">
<path id="Vector" fill-rule="evenodd" clip-rule="evenodd" d="M5.76346 4.11576L4.67684 3.95012V0.851491L2.9998 0.544061V3.68996L1.88964 3.5007V0.354798L0 0V5.88974L7.46414 6.90686V1.30092L5.76346 1.01712V4.11576ZM29.4784 29.6143C27.0692 26.9178 24.0221 24.4105 20.8806 20.555C18.8964 18.1187 18.4712 16.0371 18.3768 14.1685C18.2587 11.6376 18.8728 9.81623 20.8806 10.0055C22.6285 10.171 23.8804 11.9924 23.8804 15.6114V16.6758L32.2894 17.3381V15.8243C32.2894 8.75184 28.6754 2.83847 20.8333 1.82135C13.0385 0.804227 8.52702 5.96073 9.04665 15.9899C9.28288 20.4604 10.1568 23.9848 13.1802 27.7931C14.9991 30.0875 18.9437 33.4935 21.4948 35.9772C23.5734 37.9877 23.8804 39.9983 23.8331 41.7014C23.7623 44.4689 22.9356 46.2192 20.8333 46.3375C18.3059 46.4794 17.8572 43.9721 17.8572 40.4004V38.721L8.99939 39.2887V41.5832C8.99939 50.5005 11.8811 56.6032 21.5419 55.3259C29.6202 54.2615 33.305 47.9932 33.1869 40.1875C33.116 35.0547 31.746 32.1926 29.4784 29.6143ZM33.3286 15.7061L39.9187 16.321V51.6359L49.5324 49.8856V17.2199L55.5557 17.8112V8.27878L33.3286 4.30492V15.7061ZM124.788 11.0462L119.591 10.7624V10.6678L124.788 9.154L124.812 5.29841L116.402 6.85959V8.98837L122.59 7.97125V8.06588L116.402 10.3367V11.9924L122.59 12.4182V12.5128L116.402 13.2934V15.4222L124.788 14.5233V11.0462ZM0 9.60333L2.7164 9.91086V11.4484L0 11.1645V13.8611L7.46414 14.5233V11.9451L4.72411 11.6612V10.1474L7.46414 10.4549V7.92398L0 6.95413V9.60333ZM105.277 24.5998H105.182L102.442 9.41417L95.4745 10.7151L101.923 34.487V47.733L108.843 49.0813V34.9128L115.362 7.04876L107.828 8.46804L105.277 24.5998ZM71.1455 14.9491C70.2002 14.9491 68.9955 15.1384 68.1924 15.4458V10.4313C66.9166 9.98186 65.6178 9.74533 64.4131 9.74533C62.0508 9.74533 59.9959 10.5968 58.7211 12.158C56.3818 14.9964 55.6969 20.1529 55.6969 26.7286V30.3476C55.6969 36.9233 56.3818 42.0798 58.7211 44.9183C59.9959 46.4794 62.0508 47.331 64.4131 47.331C65.6178 47.331 66.9166 47.0944 68.1924 46.645V41.6304C68.9955 41.9379 70.2002 42.1271 71.1455 42.1271C75.2783 42.1271 77.3101 38.0587 77.3101 29.5671V27.5092C77.3101 19.0649 75.2783 14.9491 71.1455 14.9491ZM96.1595 36.3084C95.9942 32.5947 95.1911 29.8746 91.8835 29.2833V29.1886C95.1441 28.2661 96.2776 24.9073 96.2776 20.9571C96.2776 17.1725 95.3794 14.7362 93.6079 13.3643C92.0728 12.1816 90.2071 11.6849 86.3808 12.3709L78.7982 13.7427V43.1679L85.3884 44.4925V32.2635L86.8054 32.3345C88.9554 32.4528 89.2618 33.8957 89.357 36.7104L89.4751 39.9037C89.5693 42.2454 89.8056 43.8538 90.5136 45.4386L97.5534 46.8578C96.8444 45.2257 96.4659 43.5227 96.3487 40.7552L96.1595 36.3084ZM2.17314 14.8072L0 14.6179V21.3829L2.17314 21.4539V19.4197L7.46414 19.7035V17.0542L2.17314 16.6522V14.8072ZM119.119 22.0215L124.788 21.785V19.3487L118.811 19.7272C118.173 19.7745 117.796 19.6562 117.796 19.1121C117.796 18.4262 118.197 18.3315 118.811 18.2843L124.788 17.8585V15.3985L119.047 15.9899C116.922 16.2028 116.142 17.1016 116.142 19.2068C116.142 21.3593 117.087 22.1161 119.119 22.0215ZM70.4125 30.0165C70.4125 35.3622 70.082 37.3018 68.1924 36.8997V39.8091C65.4055 40.424 65.0269 37.4438 65.0269 31.483V25.5933C65.0269 19.6326 65.4055 16.6522 68.1924 17.2671V20.1529C70.082 19.7508 70.4125 21.6904 70.4125 27.0597V30.0165ZM86.7343 26.563L85.3884 26.5867V18.5444L86.6642 18.3789C88.9554 18.0714 89.4751 19.5616 89.4751 22.0925C89.4751 24.3396 88.7421 26.5394 86.7343 26.563ZM122.236 22.6129C120.748 22.6838 120.205 23.4171 119.685 24.7417C119.426 25.4749 119.047 26.5867 118.481 26.6103C117.938 26.634 117.749 26.4448 117.749 25.8535C117.749 25.0965 118.008 24.931 118.811 24.8836V22.7785C117.158 22.8731 116.214 23.559 116.214 25.7352C116.214 27.9586 117.158 28.6918 118.575 28.7392C120.181 28.7865 120.701 28.0769 121.457 26.492C122.048 25.2384 122.142 24.86 122.638 24.8363C123.087 24.8127 123.322 25.0492 123.322 25.6878C123.322 26.3975 123.134 26.5867 122.284 26.5867V28.8101C124.457 28.8811 125 27.5328 125 25.6406C125 23.7009 124.268 22.5183 122.236 22.6129ZM116.402 34.5107L118.197 34.6053V31.8378L119.638 31.8851V34.6762L121.434 34.7708V31.9325L122.945 31.9797V34.8655L124.788 34.9837V29.5671L116.402 29.4252V34.5107ZM116.142 38.3425C116.095 40.566 117.04 41.2993 119.237 41.5594L124.788 42.2217V39.8091L118.811 39.2414C118.268 39.1941 117.772 39.0285 117.796 38.4135C117.82 37.8695 118.126 37.7276 118.929 37.7986L124.788 38.2716V35.8826L119.426 35.5278C117.04 35.3622 116.189 36.5449 116.142 38.3425ZM116.402 44.2324L122.59 45.0838V45.1785L116.402 45.5333V47.2364L122.59 49.507V49.6017L116.402 48.49V50.6424L124.788 52.2982V48.5373L119.591 46.8578V46.7633L124.788 46.7396V43.0733L116.402 42.0562V44.2324Z" fill="black"/>
</g>
</svg>
