<svg width="100" height="35" viewBox="0 0 100 35" fill="none" xmlns="http://www.w3.org/2000/svg">
<g id="Group">
<path id="Vector" d="M15.4099 34.2746H2.34247C1.02773 34.2746 0 33.1507 0 31.9287V2.58586C0 1.02558 1.17304 0.247294 2.34247 0.247294C3.512 0.247294 4.63057 1.02558 4.63057 2.58586V29.6338H15.4063C16.968 29.6338 17.7489 30.8086 17.7489 31.9797C17.7489 33.1507 16.968 34.2746 15.4063 34.2746" fill="black"/>
<path id="Vector_2" d="M36.7765 3.27327L29.4147 20.9961V31.9798C29.4147 33.5436 28.2453 34.2747 27.0758 34.2747C25.9063 34.2747 24.7332 33.5436 24.7332 31.9798V20.9961L17.3714 3.27327C17.2225 3.02963 17.1754 2.68405 17.1754 2.34217C17.1754 1.02563 18.0978 0 19.6124 0C20.4476 0 21.2721 0.440114 21.7116 1.46575L27.0758 14.3987L32.4401 1.46575C32.8759 0.440114 33.7076 0 34.5284 0C36.0429 0 36.9726 1.02203 36.9726 2.34217C36.9726 2.68405 36.9218 2.92779 36.7765 3.27327Z" fill="black"/>
<path id="Vector_3" d="M56.1449 19.2868L61.7046 30.9541C61.8969 31.3469 61.945 31.6888 61.945 31.9797C61.945 33.2962 60.9716 34.2746 59.4605 34.2746C58.6794 34.2746 57.9023 33.9364 57.4627 33.0089L51.1729 19.7268H47.2214V31.9797C47.2214 33.5436 46.1059 34.2746 44.9292 34.2746C43.7526 34.2746 42.5399 33.5436 42.5399 31.9797V2.63683C42.5399 1.42204 43.6614 0.298268 44.8822 0.298268H52.8322C58.0946 0.298268 62.3365 4.54259 62.3365 9.81616V10.2562C62.3365 14.4532 59.849 18.0174 56.1409 19.2904L56.1449 19.2868ZM57.655 9.81976C57.655 7.08474 55.6582 4.93534 52.9735 4.93534H47.2174V15.0897H53.0215C55.7053 15.0897 57.652 12.9403 57.652 10.2562V9.81616L57.655 9.81976Z" fill="black"/>
<path id="Vector_4" d="M71.4426 34.2747C70.277 34.2747 69.1033 33.5436 69.1033 31.9798V2.34217C69.1033 0.778288 70.277 0 71.4426 0C72.6082 0 73.7849 0.781994 73.7849 2.34217V31.9798C73.7849 33.5436 72.6152 34.2747 71.4426 34.2747Z" fill="black"/>
<path id="Vector_5" d="M90.5428 34.2747H90.1032C84.8338 34.2747 80.5989 30.2704 80.5989 24.9458V9.32152C80.5989 4.05156 84.8338 0 90.1032 0H90.5428C95.2754 0 100 3.42238 100 8.15038V8.30319C100 9.81611 99.1718 10.8381 97.6106 10.8381C96.2958 10.8381 95.6639 10.0635 95.3184 8.83784C94.8788 6.44831 93.0783 4.63717 90.5428 4.63717H90.1032C87.3724 4.63717 85.2804 6.59741 85.2804 9.28156V24.9968C85.2804 27.7354 87.4234 29.6849 90.1032 29.6849H90.5428C93.0813 29.6849 94.8828 27.8809 95.3184 25.4842C95.6599 24.2658 96.2958 23.4838 97.6106 23.4838C99.1718 23.4838 100 24.5094 100 26.0224V26.1715C100 30.9541 95.2754 34.2747 90.5428 34.2747Z" fill="black"/>
</g>
</svg>
