<svg width="125" height="56" viewBox="0 0 125 56" fill="none" xmlns="http://www.w3.org/2000/svg">
<g id="Group">
<path id="Vector" fill-rule="evenodd" clip-rule="evenodd" d="M5.76347 4.11576L4.67685 3.95013V0.851492L2.9998 0.544062V3.68996L1.88965 3.5007V0.354798L0 0V5.88975L7.46415 6.90687V1.30092L5.76347 1.01713V4.11576ZM29.4785 29.6144C27.0692 26.9179 24.0221 24.4106 20.8806 20.5551C18.8965 18.1188 18.4713 16.0372 18.3768 14.1685C18.2588 11.6376 18.8728 9.81624 20.8806 10.0055C22.6286 10.171 23.8804 11.9924 23.8804 15.6115V16.6758L32.2894 17.3382V15.8244C32.2894 8.75185 28.6754 2.83848 20.8334 1.82135C13.0386 0.804228 8.52704 5.96074 9.04666 15.9899C9.2829 20.4604 10.1568 23.9849 13.1803 27.7931C14.9991 30.0875 18.9437 33.4936 21.4948 35.9773C23.5734 37.9878 23.8804 39.9984 23.8332 41.7015C23.7624 44.4689 22.9356 46.2193 20.8334 46.3376C18.3059 46.4795 17.8572 43.9722 17.8572 40.4005V38.7211L8.9994 39.2888V41.5832C8.9994 50.5006 11.8811 56.6032 21.542 55.3259C29.6203 54.2616 33.305 47.9933 33.187 40.1876C33.1161 35.0548 31.746 32.1927 29.4785 29.6144ZM33.3287 15.7061L39.9188 16.321V51.636L49.5324 49.8856V17.2199L55.5558 17.8112V8.27879L33.3287 4.30493V15.7061ZM124.788 11.0463L119.591 10.7625V10.6678L124.788 9.15402L124.812 5.29842L116.402 6.8596V8.98838L122.591 7.97126V8.06589L116.402 10.3367V11.9924L122.591 12.4182V12.5128L116.402 13.2934V15.4222L124.788 14.5233V11.0463ZM0 9.60334L2.7164 9.91087V11.4484L0 11.1645V13.8611L7.46415 14.5233V11.9451L4.72411 11.6612V10.1474L7.46415 10.4549V7.92399L0 6.95414V9.60334ZM105.277 24.5998H105.182L102.442 9.41418L95.4747 10.7151L101.923 34.4871V47.7331L108.843 49.0814V34.9129L115.363 7.04877L107.828 8.46805L105.277 24.5998ZM71.1456 14.9491C70.2003 14.9491 68.9956 15.1384 68.1925 15.4458V10.4313C66.9167 9.98187 65.6179 9.74534 64.4132 9.74534C62.0509 9.74534 59.996 10.5968 58.7212 12.158C56.3819 14.9964 55.697 20.1529 55.697 26.7286V30.3477C55.697 36.9234 56.3819 42.0799 58.7212 44.9184C59.996 46.4795 62.0509 47.3311 64.4132 47.3311C65.6179 47.3311 66.9167 47.0944 68.1925 46.6451V41.6305C68.9956 41.938 70.2003 42.1272 71.1456 42.1272C75.2784 42.1272 77.3102 38.0588 77.3102 29.5671V27.5092C77.3102 19.0649 75.2784 14.9491 71.1456 14.9491ZM96.1596 36.3084C95.9944 32.5947 95.1913 29.8746 91.8836 29.2833V29.1887C95.1442 28.2662 96.2778 24.9074 96.2778 20.9571C96.2778 17.1725 95.3795 14.7362 93.608 13.3643C92.0729 12.1817 90.2073 11.685 86.3809 12.3709L78.7983 13.7427V43.1679L85.3885 44.4926V32.2636L86.8055 32.3346C88.9555 32.4528 89.262 33.8958 89.3571 36.7105L89.4753 39.9038C89.5694 42.2454 89.8057 43.8539 90.5137 45.4387L97.5536 46.8579C96.8446 45.2258 96.466 43.5227 96.3489 40.7552L96.1596 36.3084ZM2.17314 14.8072L0 14.618V21.3829L2.17314 21.4539V19.4197L7.46415 19.7035V17.0543L2.17314 16.6522V14.8072ZM119.119 22.0215L124.788 21.785V19.3487L118.811 19.7272C118.173 19.7745 117.796 19.6562 117.796 19.1122C117.796 18.4262 118.197 18.3316 118.811 18.2843L124.788 17.8585V15.3986L119.048 15.9899C116.922 16.2028 116.143 17.1016 116.143 19.2068C116.143 21.3593 117.087 22.1162 119.119 22.0215ZM70.4126 30.0165C70.4126 35.3622 70.0821 37.3018 68.1925 36.8998V39.8091C65.4056 40.4241 65.027 37.4438 65.027 31.4831V25.5933C65.027 19.6326 65.4056 16.6522 68.1925 17.2672V20.1529C70.0821 19.7508 70.4126 21.6905 70.4126 27.0598V30.0165ZM86.7344 26.5631L85.3885 26.5867V18.5445L86.6643 18.3789C88.9555 18.0714 89.4753 19.5616 89.4753 22.0925C89.4753 24.3397 88.7422 26.5395 86.7344 26.5631ZM122.236 22.613C120.748 22.6839 120.205 23.4172 119.686 24.7417C119.426 25.475 119.048 26.5867 118.481 26.6103C117.938 26.6341 117.749 26.4448 117.749 25.8535C117.749 25.0965 118.008 24.931 118.811 24.8836V22.7785C117.158 22.8731 116.214 23.5591 116.214 25.7352C116.214 27.9586 117.158 28.6919 118.575 28.7392C120.181 28.7865 120.701 28.0769 121.457 26.4921C122.048 25.2384 122.142 24.86 122.638 24.8364C123.087 24.8127 123.323 25.0493 123.323 25.6879C123.323 26.3976 123.134 26.5867 122.284 26.5867V28.8101C124.457 28.8811 125 27.5328 125 25.6406C125 23.701 124.268 22.5183 122.236 22.613ZM116.402 34.5107L118.197 34.6053V31.8379L119.638 31.8851V34.6762L121.434 34.7709V31.9325L122.945 31.9798V34.8655L124.788 34.9838V29.5671L116.402 29.4252V34.5107ZM116.143 38.3426C116.096 40.5661 117.04 41.2993 119.237 41.5595L124.788 42.2218V39.8091L118.811 39.2414C118.269 39.1942 117.772 39.0285 117.796 38.4136C117.82 37.8695 118.126 37.7276 118.929 37.7986L124.788 38.2717V35.8826L119.426 35.5278C117.04 35.3622 116.19 36.545 116.143 38.3426ZM116.402 44.2324L122.591 45.0839V45.1785L116.402 45.5333V47.2364L122.591 49.5071V49.6017L116.402 48.4901V50.6425L124.788 52.2983V48.5373L119.591 46.8579V46.7634L124.788 46.7396V43.0734L116.402 42.0563V44.2324Z" fill="black"/>
</g>
</svg>
