<svg width="1912" height="885" viewBox="0 0 1912 885" fill="none" xmlns="http://www.w3.org/2000/svg">
<path id="Vector-Cuadros" d="M1.00009 0L1.00002 885M239.669 0L239.669 885M478.338 0L478.338 885M717.007 0L717.007 885M955.675 0L955.675 885M1194.34 0L1194.34 885M1433.01 0L1433.01 885M1671.68 0L1671.68 885M1910.35 0L1910.35 885M0.350647 860.255H1909.7M0.350647 721.022H1909.7M0.350647 581.789H1909.7M0.350647 442.556L1909.7 442.556M0.350647 303.323L1909.7 303.323M0.350647 164.09L1909.7 164.09M0.350647 24.8571L1909.7 24.8572" stroke="url(#paint0_radial_3_1726)" stroke-opacity="0.5" stroke-width="2"/>
<defs>
<radialGradient id="paint0_radial_3_1726" cx="0" cy="0" r="1" gradientUnits="userSpaceOnUse" gradientTransform="translate(955.351 442.5) rotate(90) scale(442.5 955)">
<stop offset="1" stop-color="#FE975C"/>
</radialGradient>
</defs>
</svg>
